<svg version="1.1" xmlns="http://www.w3.org/2000/svg" viewBox="0 0 306.28125 290.85546875" width="612.5625" height="581.7109375">
  <!-- svg-source:excalidraw -->
  
  <defs>
    <style class="style-fonts">
      @font-face {
        font-family: "Virgil";
        src: url("https://excalidraw.com/Virgil.woff2");
      }
      @font-face {
        font-family: "Cascadia";
        src: url("https://excalidraw.com/Cascadia.woff2");
      }
      @font-face {
        font-family: "Assistant";
        src: url("https://excalidraw.com/Assistant-Regular.woff2");
      }
    </style>
    
  </defs>
  <g stroke-linecap="round" transform="translate(10 10) rotate(0 143.140625 135.427734375)"><path d="M119.37 1.73 C133.61 -2.68, 151.66 -0.39, 167 2.06 C182.34 4.5, 197.8 9.24, 211.43 16.38 C225.05 23.52, 238.33 34.06, 248.76 44.89 C259.18 55.72, 267.87 67.94, 273.97 81.35 C280.07 94.76, 283.88 110.78, 285.34 125.36 C286.81 139.93, 286.68 154.63, 282.76 168.81 C278.84 183, 270.65 198.2, 261.84 210.45 C253.03 222.7, 241.92 233.34, 229.9 242.31 C217.88 251.28, 204.17 259.59, 189.71 264.26 C175.26 268.94, 158.66 270.55, 143.16 270.36 C127.66 270.17, 111.42 267.91, 96.7 263.11 C81.99 258.3, 67.04 250.54, 54.88 241.54 C42.72 232.54, 32.16 221.45, 23.74 209.11 C15.32 196.77, 8.23 181.65, 4.35 167.49 C0.46 153.33, -0.87 138.75, 0.43 124.15 C1.72 109.54, 5.87 93.18, 12.13 79.85 C18.4 66.53, 27.52 54.67, 38.02 44.21 C48.52 33.75, 61.02 24.16, 75.14 17.09 C89.25 10.01, 113.93 4.17, 122.71 1.76 C131.48 -0.65, 127.35 0.57, 127.8 2.61 M103.04 6.6 C116.06 0.2, 132.66 -1.69, 147.96 -1.01 C163.25 -0.34, 180.37 5.12, 194.81 10.67 C209.25 16.22, 222.67 23.23, 234.6 32.31 C246.54 41.39, 258.38 52.82, 266.39 65.17 C274.41 77.52, 279.62 91.86, 282.71 106.4 C285.8 120.95, 286.81 137.43, 284.95 152.44 C283.08 167.46, 278.36 183.22, 271.54 196.48 C264.71 209.75, 254.8 222.05, 244 232.02 C233.21 242, 220.62 249.86, 206.76 256.35 C192.91 262.84, 176.57 269.21, 160.85 270.97 C145.13 272.74, 127.69 270.1, 112.43 266.92 C97.16 263.74, 82.3 259.18, 69.26 251.9 C56.23 244.63, 43.98 234.28, 34.2 223.27 C24.43 212.26, 16.48 199.79, 10.62 185.83 C4.75 171.87, -0.17 154.34, -0.99 139.52 C-1.8 124.71, 0.92 110.89, 5.73 96.94 C10.53 83, 18.92 67.74, 27.83 55.86 C36.73 43.98, 46.7 33.98, 59.17 25.66 C71.65 17.33, 95.25 8.68, 102.67 5.91 C110.09 3.13, 103.05 6.67, 103.7 9.01" stroke="none" stroke-width="0" fill="#ffc9c9"></path><path d="M181.84 4.73 C196.62 6.68, 212.77 16.29, 225.53 24.7 C238.29 33.1, 249.2 43.36, 258.39 55.17 C267.57 66.98, 276.06 81.54, 280.67 95.55 C285.28 109.57, 286.53 124.83, 286.07 139.28 C285.62 153.72, 283.39 168.55, 277.94 182.21 C272.49 195.86, 263.19 209.8, 253.38 221.2 C243.58 232.6, 232.14 243.01, 219.12 250.6 C206.1 258.18, 190.64 263.45, 175.25 266.69 C159.87 269.94, 142.48 271.56, 126.82 270.08 C111.16 268.6, 95.09 263.92, 81.29 257.82 C67.49 251.73, 54.95 243.63, 44.02 233.52 C33.09 223.4, 22.72 210.27, 15.7 197.13 C8.69 184, 4.07 169.25, 1.93 154.72 C-0.21 140.19, 0 124.47, 2.85 109.98 C5.7 95.49, 11.26 80.5, 19.02 67.77 C26.77 55.04, 37.64 43.38, 49.39 33.6 C61.15 23.82, 75.11 14.76, 89.55 9.1 C103.99 3.44, 118.97 0.03, 136.01 -0.35 C153.05 -0.72, 181.51 4.41, 191.8 6.83 C202.1 9.25, 198.59 11.93, 197.79 14.18 M79.13 14.78 C91.39 6.68, 107.75 2.41, 123.21 0.5 C138.66 -1.41, 156.64 0.18, 171.86 3.29 C187.07 6.4, 201.26 12.1, 214.5 19.17 C227.73 26.23, 241.09 34.69, 251.27 45.68 C261.45 56.67, 269.71 71.59, 275.57 85.1 C281.44 98.61, 285.73 112.35, 286.46 126.74 C287.19 141.12, 284.18 156.88, 279.97 171.41 C275.76 185.95, 269.65 201.9, 261.21 213.95 C252.76 225.99, 241.81 235.02, 229.31 243.69 C216.81 252.36, 201.22 261.67, 186.21 265.98 C171.19 270.29, 154.99 270.09, 139.22 269.55 C123.45 269.01, 106.3 267.56, 91.58 262.73 C76.86 257.89, 62.39 250.06, 50.88 240.53 C39.37 231.01, 30.47 218.2, 22.53 205.57 C14.6 192.94, 6.73 179.03, 3.28 164.76 C-0.17 150.49, -0.06 134.67, 1.84 119.95 C3.75 105.23, 8.17 89.35, 14.71 76.43 C21.25 63.5, 30.7 52.89, 41.1 42.4 C51.5 31.92, 70.9 17.56, 77.12 13.5 C83.34 9.44, 77.2 15.91, 78.4 18.04" stroke="#1e1e1e" stroke-width="2" fill="none"></path></g></svg>