<svg version="1.1" xmlns="http://www.w3.org/2000/svg" viewBox="0 0 91.22601382559083 101.20145765750897" width="91.22601382559083" height="101.20145765750897">
  <!-- svg-source:excalidraw -->
  
  <defs>
    <style class="style-fonts">
      @font-face {
        font-family: "Virgil";
        src: url("https://excalidraw.com/Virgil.woff2");
      }
      @font-face {
        font-family: "Cascadia";
        src: url("https://excalidraw.com/Cascadia.woff2");
      }
      @font-face {
        font-family: "Assistant";
        src: url("https://excalidraw.com/Assistant-Regular.woff2");
      }
    </style>
    
  </defs>
  <g stroke-linecap="round"><g transform="translate(79.8759211502122 90.2774333013524) rotate(0 -33.287662875875185 -39.263962653727475)"><path d="M-0.56 0.92 C-11.81 -4.52, -59.18 -18.39, -67 -31.57 C-74.81 -44.75, -50.79 -70.3, -47.44 -78.14 M1.35 0.36 C-10.15 -4.87, -59.86 -19.67, -68.16 -33.11 C-76.47 -46.55, -52.06 -72.87, -48.46 -80.28" stroke="#1e1e1e" stroke-width="1" fill="none"></path></g><g transform="translate(79.8759211502122 90.2774333013524) rotate(0 -33.287662875875185 -39.263962653727475)"><path d="M-54.57 -56.1 C-51.14 -65.13, -48.72 -73.61, -48.46 -80.28 M-54.57 -56.1 C-52.2 -63.13, -51.45 -72.77, -48.46 -80.28" stroke="#1e1e1e" stroke-width="1" fill="none"></path></g><g transform="translate(79.8759211502122 90.2774333013524) rotate(0 -33.287662875875185 -39.263962653727475)"><path d="M-68.68 -65.68 C-60.29 -71.33, -53 -76.5, -48.46 -80.28 M-68.68 -65.68 C-61.62 -69.52, -56.17 -75.97, -48.46 -80.28" stroke="#1e1e1e" stroke-width="1" fill="none"></path></g></g><mask></mask></svg>