<svg version="1.1" xmlns="http://www.w3.org/2000/svg" viewBox="0 0 116.51601812758372 109.4227862411127" width="116.51601812758372" height="109.4227862411127">
  <!-- svg-source:excalidraw -->
  
  <defs>
    <style class="style-fonts">
      @font-face {
        font-family: "Virgil";
        src: url("https://excalidraw.com/Virgil.woff2");
      }
      @font-face {
        font-family: "Cascadia";
        src: url("https://excalidraw.com/Cascadia.woff2");
      }
      @font-face {
        font-family: "Assistant";
        src: url("https://excalidraw.com/Assistant-Regular.woff2");
      }
    </style>
    
  </defs>
  <g transform="translate(10 15.801370907690455) rotate(0 30.17686762500327 41.810707666711124)" stroke="none"><path fill="#1e1e1e" d="M 1.56,0 Q 1.56,0 1.52,2.77 1.49,5.55 1.46,8.15 1.44,10.75 1.42,13.27 1.40,15.79 1.39,18.55 1.38,21.31 1.37,24.45 1.36,27.60 1.35,30.80 1.34,33.99 1.43,37.25 1.52,40.50 2.01,44.00 2.50,47.50 3.44,50.94 4.37,54.37 5.52,57.43 6.67,60.50 7.93,63.23 9.20,65.97 10.47,68.31 11.74,70.65 13.05,72.52 14.36,74.39 15.79,75.87 17.23,77.36 18.75,78.45 20.26,79.55 21.69,80.17 23.11,80.79 24.52,81.08 25.92,81.37 27.54,81.32 29.17,81.27 31.10,80.66 33.03,80.05 34.80,79.12 36.58,78.19 38.36,76.89 40.13,75.60 42.04,73.83 43.94,72.05 45.46,70.14 46.98,68.22 48.22,65.96 49.47,63.70 50.52,60.91 51.57,58.12 52.51,54.49 53.45,50.85 54.38,46.50 55.30,42.14 56.09,37.95 56.88,33.76 57.43,30.03 57.98,26.30 58.28,22.93 58.58,19.56 58.71,16.70 58.84,13.84 58.89,11.67 58.95,9.50 58.86,6.97 58.77,4.43 58.82,4.18 58.86,3.93 58.99,3.71 59.11,3.48 59.30,3.31 59.49,3.14 59.72,3.03 59.95,2.93 60.21,2.91 60.46,2.88 60.71,2.94 60.96,3.00 61.17,3.14 61.39,3.27 61.55,3.47 61.71,3.67 61.80,3.90 61.89,4.14 61.90,4.40 61.91,4.65 61.84,4.90 61.77,5.14 61.62,5.35 61.48,5.56 61.27,5.71 61.06,5.86 60.82,5.94 60.58,6.02 60.32,6.01 60.07,6.01 59.83,5.92 59.59,5.84 59.39,5.68 59.19,5.52 59.05,5.31 58.91,5.09 58.84,4.85 58.78,4.60 58.80,4.35 58.82,4.09 58.91,3.86 59.01,3.62 59.18,3.43 59.35,3.24 59.57,3.11 59.79,2.98 60.04,2.93 60.29,2.88 60.54,2.91 60.79,2.94 61.02,3.06 61.25,3.17 61.44,3.34 61.62,3.52 61.73,3.75 61.85,3.98 61.89,4.23 61.92,4.48 61.92,4.48 61.92,4.48 61.75,7.03 61.58,9.57 61.53,11.76 61.48,13.96 61.35,16.88 61.22,19.80 60.91,23.24 60.60,26.68 60.05,30.47 59.49,34.25 58.71,38.47 57.92,42.70 56.99,47.11 56.06,51.52 55.08,55.30 54.11,59.08 52.99,62.05 51.88,65.02 50.52,67.48 49.17,69.94 47.54,72.03 45.90,74.12 43.89,76.04 41.88,77.96 39.96,79.41 38.04,80.86 36.03,81.98 34.02,83.10 31.63,83.89 29.24,84.68 27.16,84.66 25.07,84.63 23.40,84.09 21.73,83.55 20.16,82.65 18.60,81.76 16.97,80.47 15.34,79.19 13.77,77.54 12.20,75.90 10.81,73.90 9.42,71.91 8.11,69.49 6.80,67.07 5.50,64.25 4.19,61.43 3.00,58.25 1.81,55.07 0.84,51.47 -0.13,47.87 -0.64,44.22 -1.15,40.58 -1.25,37.29 -1.34,33.99 -1.35,30.80 -1.36,27.60 -1.37,24.45 -1.38,21.31 -1.39,18.55 -1.40,15.79 -1.42,13.27 -1.44,10.75 -1.46,8.15 -1.49,5.55 -1.52,2.77 -1.56,0 -1.53,-0.18 -1.51,-0.37 -1.45,-0.54 -1.38,-0.72 -1.27,-0.88 -1.16,-1.03 -1.02,-1.16 -0.88,-1.28 -0.72,-1.37 -0.55,-1.46 -0.37,-1.50 -0.18,-1.55 0.00,-1.55 0.18,-1.55 0.37,-1.50 0.55,-1.46 0.72,-1.37 0.88,-1.28 1.02,-1.16 1.16,-1.03 1.27,-0.88 1.38,-0.72 1.45,-0.54 1.51,-0.37 1.53,-0.18 1.56,0.00 1.56,0.00 L 1.56,0 Z"></path></g><g transform="translate(28.973469456730925 35.36691060930502) rotate(0 8.777271245272146 -7.450217248119145)" stroke="none"><path fill="#1e1e1e" d="M -2.36,-1.15 Q -2.36,-1.15 -2.02,-1.93 -1.68,-2.71 -1.10,-3.93 -0.52,-5.16 0.37,-6.63 1.26,-8.11 1.96,-8.93 2.66,-9.75 3.53,-10.57 4.40,-11.40 5.40,-12.19 6.40,-12.97 7.34,-13.67 8.28,-14.37 9.92,-15.45 11.57,-16.54 12.67,-17.07 13.78,-17.60 15.01,-17.74 16.24,-17.89 17.64,-17.04 19.04,-16.20 19.70,-15.16 20.36,-14.12 20.61,-12.73 20.86,-11.35 20.90,-10.28 20.93,-9.21 20.96,-7.75 20.99,-6.29 21.01,-3.78 21.03,-1.28 20.94,-0.72 20.85,-0.17 20.58,0.32 20.32,0.82 19.91,1.21 19.50,1.59 18.99,1.83 18.48,2.07 17.92,2.13 17.36,2.19 16.81,2.07 16.26,1.94 15.78,1.65 15.30,1.36 14.93,0.94 14.57,0.51 14.36,-0.01 14.15,-0.53 14.12,-1.09 14.09,-1.65 14.24,-2.20 14.39,-2.74 14.71,-3.21 15.02,-3.67 15.47,-4.01 15.92,-4.35 16.45,-4.53 16.99,-4.71 17.55,-4.71 18.11,-4.71 18.65,-4.53 19.18,-4.35 19.63,-4.01 20.08,-3.67 20.39,-3.20 20.71,-2.74 20.86,-2.20 21.01,-1.65 20.98,-1.09 20.95,-0.53 20.74,-0.01 20.53,0.51 20.17,0.94 19.80,1.36 19.32,1.66 18.84,1.95 18.29,2.07 17.74,2.19 17.18,2.13 16.62,2.07 16.11,1.83 15.60,1.59 15.19,1.20 14.78,0.82 14.51,0.32 14.25,-0.17 14.16,-0.72 14.07,-1.28 14.07,-1.28 14.07,-1.28 14.09,-3.78 14.11,-6.28 14.13,-7.72 14.15,-9.15 14.34,-10.21 14.52,-11.27 13.17,-10.44 11.82,-9.61 10.16,-8.34 8.49,-7.06 7.27,-5.85 6.04,-4.63 5.27,-3.55 4.50,-2.46 3.84,-1.39 3.17,-0.33 2.77,0.41 2.36,1.15 2.18,1.42 2.01,1.69 1.78,1.90 1.55,2.12 1.27,2.27 1.00,2.43 0.69,2.51 0.38,2.60 0.07,2.61 -0.24,2.62 -0.55,2.55 -0.86,2.48 -1.15,2.34 -1.43,2.20 -1.67,2.00 -1.92,1.79 -2.10,1.54 -2.29,1.28 -2.41,0.99 -2.53,0.69 -2.58,0.38 -2.63,0.07 -2.60,-0.24 -2.57,-0.55 -2.46,-0.85 -2.36,-1.15 -2.36,-1.15 L -2.36,-1.15 Z"></path></g><g transform="translate(26.207072278050475 69.50282265914802) rotate(0 0.8183499649110217 -1.4597593968682645)" stroke="none"><path d="M0.2 0.29 C0.19 -0.07, 0.9 -1.71, 0.66 -1.65 C0.43 -1.6, -1.04 0.29, -1.21 0.62" stroke="none" stroke-width="0" fill="#b2f2bb" fill-rule="evenodd"></path><path fill="#1e1e1e" d="M -2.05,-1.15 Q -2.05,-1.15 -1.63,-2.01 -1.20,-2.87 -1.77,-1.89 -2.34,-0.90 -2.19,-1.17 -2.05,-1.44 -1.85,-1.66 -1.65,-1.89 -1.40,-2.06 -1.15,-2.23 -0.86,-2.33 -0.58,-2.44 -0.28,-2.47 0.01,-2.51 0.31,-2.47 0.61,-2.43 0.90,-2.32 1.18,-2.21 1.43,-2.04 1.67,-1.86 1.87,-1.63 2.07,-1.41 2.21,-1.14 2.35,-0.87 2.42,-0.57 2.49,-0.28 2.49,0.01 2.49,0.32 2.41,0.61 2.34,0.90 2.08,1.31 1.82,1.73 1.49,1.97 1.17,2.22 0.78,2.35 0.40,2.47 -0.00,2.47 -0.41,2.47 -0.79,2.34 -1.18,2.21 -1.50,1.97 -1.82,1.72 -2.05,1.38 -2.28,1.05 -2.38,0.65 -2.49,0.26 -2.47,-0.13 -2.45,-0.54 -2.30,-0.92 -2.14,-1.29 -1.88,-1.60 -1.62,-1.91 -1.27,-2.12 -0.92,-2.33 -0.52,-2.42 -0.13,-2.50 0.27,-2.46 0.67,-2.41 1.04,-2.24 1.41,-2.07 1.70,-1.79 2.00,-1.51 2.19,-1.15 2.38,-0.79 2.44,-0.39 2.51,0.00 2.44,0.40 2.37,0.80 2.18,1.16 1.99,1.52 1.70,1.80 1.40,2.08 1.03,2.25 0.66,2.42 0.26,2.46 -0.14,2.50 -0.53,2.41 -0.93,2.33 -1.28,2.12 -1.63,1.91 -1.89,1.60 -2.15,1.29 -2.30,0.91 -2.45,0.53 -2.47,0.12 -2.49,-0.27 -2.38,-0.66 -2.27,-1.05 -2.30,-0.98 -2.34,-0.90 -2.19,-1.17 -2.05,-1.44 -1.85,-1.66 -1.65,-1.89 -1.40,-2.06 -1.15,-2.23 -0.86,-2.33 -0.58,-2.44 -0.28,-2.47 0.01,-2.51 0.31,-2.47 0.61,-2.43 0.90,-2.32 1.18,-2.21 1.43,-2.04 1.67,-1.86 1.87,-1.63 2.07,-1.41 2.21,-1.14 2.35,-0.87 2.42,-0.57 2.49,-0.28 2.49,0.01 2.49,0.32 2.41,0.61 2.34,0.90 2.71,0.21 3.08,-0.47 2.57,0.33 2.05,1.15 1.88,1.38 1.71,1.60 1.50,1.79 1.28,1.97 1.02,2.09 0.77,2.22 0.49,2.28 0.21,2.34 -0.06,2.33 -0.34,2.32 -0.62,2.25 -0.89,2.17 -1.14,2.03 -1.39,1.90 -1.59,1.70 -1.80,1.51 -1.95,1.27 -2.11,1.03 -2.20,0.76 -2.30,0.49 -2.32,0.21 -2.35,-0.06 -2.31,-0.34 -2.26,-0.62 -2.16,-0.88 -2.05,-1.15 -2.05,-1.15 L -2.05,-1.15 Z"></path></g><g transform="translate(46.96355787454593 70.44537126738237) rotate(0 0.38110268636188493 0.1837459380673181)" stroke="none"><path d="M-0.84 0.07 C-1.02 -0.04, 0.04 -0.15, -0.2 0.16 C-0.43 0.47, -2.4 1.73, -2.24 1.94 C-2.08 2.15, -0.09 1.79, 0.76 1.44 C1.61 1.1, 2.98 0.01, 2.87 -0.12 C2.76 -0.25, 0.36 0.65, 0.1 0.64" stroke="none" stroke-width="0" fill="#b2f2bb" fill-rule="evenodd"></path><path fill="#1e1e1e" d="M 1.99,1.44 Q 1.99,1.44 1.78,1.75 1.57,2.06 1.31,0.71 1.05,-0.64 0.03,-0.29 -0.99,0.06 -2.03,-0.03 -3.07,-0.12 -3.01,-0.49 -2.95,-0.85 -2.81,-1.19 -2.66,-1.53 -2.44,-1.83 -2.22,-2.13 -1.93,-2.36 -1.64,-2.60 -1.31,-2.76 -0.97,-2.92 -0.61,-2.99 -0.24,-3.06 0.12,-3.05 0.49,-3.03 0.85,-2.93 1.20,-2.83 1.52,-2.64 1.85,-2.46 2.11,-2.20 2.38,-1.94 2.58,-1.63 2.78,-1.32 2.89,-0.96 3.01,-0.61 3.04,-0.24 3.07,0.12 1.46,1.59 -0.15,3.07 -0.64,2.97 -1.12,2.86 -1.55,2.60 -1.98,2.35 -2.30,1.97 -2.63,1.59 -2.81,1.13 -3.00,0.67 -3.03,0.17 -3.06,-0.32 -2.93,-0.80 -2.79,-1.28 -2.52,-1.69 -2.24,-2.10 -1.84,-2.41 -1.45,-2.71 -0.98,-2.87 -0.50,-3.03 -0.01,-3.03 0.48,-3.04 0.96,-2.88 1.43,-2.72 1.83,-2.42 2.22,-2.12 2.50,-1.71 2.79,-1.30 2.92,-0.82 3.06,-0.34 3.03,0.15 3.01,0.65 2.82,1.11 2.64,1.57 2.32,1.95 2.00,2.34 1.57,2.59 1.14,2.85 0.66,2.96 0.17,3.07 -0.31,3.02 -0.81,2.97 -1.26,2.76 -1.71,2.55 -2.08,2.21 -2.44,1.87 -2.68,1.43 -2.91,0.99 -2.99,0.50 -3.07,0.01 -3.00,-0.48 -2.92,-0.97 -2.68,-1.41 -2.45,-1.85 -2.09,-2.19 -1.73,-2.54 -1.28,-2.75 -0.83,-2.96 -1.95,-1.54 -3.07,-0.12 -3.01,-0.48 -2.95,-0.85 -2.81,-1.19 -2.66,-1.53 -2.44,-1.83 -2.22,-2.13 -1.93,-2.36 -1.64,-2.60 -1.31,-2.76 -0.97,-2.92 -0.61,-2.99 -0.24,-3.06 0.12,-3.05 0.49,-3.03 0.85,-2.93 1.20,-2.83 1.52,-2.64 1.84,-2.46 2.11,-2.20 2.38,-1.94 2.58,-1.63 2.78,-1.32 2.89,-0.96 3.01,-0.61 3.04,-0.24 3.07,0.12 3.99,-0.40 4.90,-0.93 4.73,0.23 4.56,1.40 3.65,2.73 2.74,4.05 1.18,4.26 -0.37,4.48 -1.38,3.89 -2.39,3.31 -2.55,1.41 -2.71,-0.48 -2.35,-0.96 -1.99,-1.44 -1.79,-1.65 -1.59,-1.87 -1.34,-2.03 -1.09,-2.20 -0.81,-2.30 -0.53,-2.39 -0.24,-2.42 0.05,-2.45 0.34,-2.41 0.64,-2.37 0.91,-2.26 1.18,-2.15 1.43,-1.97 1.67,-1.80 1.86,-1.57 2.05,-1.35 2.18,-1.08 2.31,-0.82 2.38,-0.53 2.44,-0.24 2.44,0.05 2.43,0.34 2.35,0.63 2.27,0.92 2.13,1.18 1.99,1.44 1.99,1.44 L 1.99,1.44 Z"></path></g><g transform="translate(26.39762362123139 65.0554904174071) rotate(0 0.9391459056775489 1.966762077831902)" stroke="none"><path d="M1.2 -0.89 C1.46 -1.07, 1.42 -0.37, 1.4 0.22 C1.39 0.81, 1.04 1.88, 1.12 2.64 C1.19 3.4, 1.8 4.47, 1.87 4.77 C1.93 5.07, 1.4 4.98, 1.52 4.46 C1.63 3.93, 2.75 2.06, 2.56 1.63 C2.37 1.19, 0.68 1.63, 0.4 1.83 C0.11 2.04, 0.84 3.36, 0.87 2.86 C0.89 2.37, 0.7 -0.57, 0.56 -1.15" stroke="none" stroke-width="0" fill="#b2f2bb" fill-rule="evenodd"></path><path fill="#1e1e1e" d="M 0.55,-2.38 Q 0.55,-2.38 1.06,-2.31 1.56,-2.24 1.90,-2.23 2.23,-2.22 2.54,-2.13 2.84,-2.04 3.12,-1.89 3.40,-1.73 3.63,-1.51 3.86,-1.30 4.03,-1.03 4.21,-0.76 4.31,-0.46 4.41,-0.16 4.44,0.15 4.47,0.46 4.42,0.78 4.37,1.09 4.25,1.39 4.13,1.68 3.94,1.94 3.75,2.19 3.51,2.40 3.26,2.60 2.98,2.74 2.69,2.88 2.38,2.95 2.07,3.01 1.75,3.00 1.43,2.99 2.49,3.21 3.54,3.44 2.76,2.27 1.97,1.10 0.53,1.81 -0.91,2.52 0.00,3.43 0.93,4.33 1.96,4.04 3.00,3.74 3.15,3.80 3.30,3.86 3.24,4.27 3.19,4.68 3.04,5.07 2.89,5.46 2.65,5.80 2.41,6.14 2.09,6.41 1.78,6.69 1.41,6.88 1.04,7.07 0.64,7.16 0.23,7.26 -0.18,7.26 -0.59,7.25 -1.00,7.15 -1.40,7.05 -1.77,6.85 -2.13,6.65 -2.44,6.37 -2.75,6.10 -2.98,5.75 -3.22,5.41 -3.36,5.02 -3.51,4.63 -3.55,4.21 -3.60,3.80 -3.34,1.84 -3.08,-0.12 -2.98,-0.61 -2.88,-1.10 -2.63,-1.53 -2.38,-1.96 -2.00,-2.29 -1.62,-2.62 -1.16,-2.81 -0.70,-3.00 -0.20,-3.03 0.28,-3.07 0.77,-2.94 1.25,-2.81 1.67,-2.54 2.09,-2.27 2.39,-1.87 2.70,-1.48 2.87,-1.01 3.03,-0.54 3.04,-0.04 3.05,0.45 2.90,0.93 2.74,1.40 2.45,1.80 2.15,2.21 1.74,2.49 1.33,2.78 0.85,2.92 0.37,3.06 -0.12,3.04 -0.62,3.02 -1.08,2.84 -1.55,2.66 -1.93,2.34 -2.32,2.03 -2.58,1.60 -2.85,1.18 -2.96,0.69 -3.07,0.21 -3.03,-0.28 -2.98,-0.78 -2.78,-1.23 -2.57,-1.69 -2.24,-2.06 -1.90,-2.43 -1.46,-2.67 -1.02,-2.91 -0.53,-2.99 -0.04,-3.08 0.45,-3.01 0.94,-2.93 1.38,-2.71 1.83,-2.48 2.18,-2.12 2.53,-1.76 2.74,-1.31 2.96,-0.86 3.02,-0.37 3.08,0.12 3.08,0.12 3.08,0.12 3.19,1.99 3.30,3.86 3.24,4.27 3.19,4.68 3.04,5.07 2.89,5.46 2.65,5.80 2.41,6.14 2.09,6.41 1.78,6.69 1.41,6.88 1.04,7.07 0.64,7.16 0.23,7.26 -0.18,7.26 -0.59,7.25 -0.99,7.15 -1.40,7.05 -1.77,6.85 -2.13,6.65 -2.44,6.38 -2.75,6.10 -2.98,5.75 -3.22,5.41 -3.36,5.02 -3.51,4.63 -3.55,4.21 -3.60,3.80 -3.53,2.98 -3.46,2.17 -2.96,0.99 -2.45,-0.17 -1.50,-1.01 -0.55,-1.84 1.11,-1.89 2.79,-1.94 3.84,-0.95 4.89,0.03 5.08,1.21 5.27,2.40 5.11,3.50 4.96,4.60 3.45,5.76 1.95,6.91 0.72,6.74 -0.50,6.56 -1.45,5.12 -2.40,3.68 -2.27,2.52 -2.14,1.36 -1.46,0.15 -0.79,-1.04 0.71,-1.63 2.23,-2.22 2.54,-2.13 2.84,-2.04 3.12,-1.89 3.40,-1.73 3.63,-1.51 3.86,-1.30 4.03,-1.03 4.21,-0.76 4.31,-0.46 4.41,-0.16 4.44,0.15 4.47,0.46 4.42,0.78 4.37,1.09 4.25,1.39 4.13,1.68 3.94,1.94 3.75,2.19 3.51,2.40 3.26,2.60 2.98,2.74 2.69,2.88 2.38,2.95 2.07,3.01 1.75,3.00 1.43,2.99 0.92,2.85 0.41,2.70 -0.06,2.54 -0.55,2.38 -0.83,2.28 -1.10,2.18 -1.35,2.01 -1.59,1.85 -1.79,1.63 -1.99,1.41 -2.13,1.15 -2.27,0.89 -2.35,0.61 -2.42,0.32 -2.42,0.03 -2.43,-0.26 -2.36,-0.54 -2.29,-0.83 -2.16,-1.10 -2.03,-1.36 -1.83,-1.58 -1.64,-1.81 -1.40,-1.98 -1.16,-2.15 -0.89,-2.26 -0.61,-2.36 -0.32,-2.40 -0.03,-2.44 0.26,-2.41 0.55,-2.38 0.55,-2.38 L 0.55,-2.38 Z"></path></g><g transform="translate(74.579057819073 11.72984705994412) rotate(0 0.00005000000000165983 0.00004999999998744897)" stroke="none"><path fill="#1e1e1e" d="M 2.12,-2.12 Q 2.12,-2.12 2.40,-1.73 2.69,-1.33 2.83,-0.87 2.97,-0.40 2.96,0.08 2.95,0.56 2.78,1.02 2.61,1.47 2.31,1.85 2.00,2.23 1.59,2.49 1.18,2.76 0.71,2.87 0.24,2.99 -0.24,2.95 -0.72,2.91 -1.17,2.72 -1.61,2.53 -1.98,2.20 -2.34,1.88 -2.58,1.45 -2.82,1.03 -2.91,0.55 -3.00,0.08 -2.93,-0.40 -2.87,-0.88 -2.65,-1.31 -2.44,-1.75 -2.09,-2.09 -1.75,-2.44 -1.31,-2.65 -0.88,-2.87 -0.39,-2.93 0.08,-3.00 0.55,-2.91 1.03,-2.82 1.46,-2.58 1.88,-2.34 2.20,-1.97 2.53,-1.61 2.72,-1.17 2.91,-0.72 2.95,-0.23 2.99,0.24 2.87,0.71 2.76,1.18 2.49,1.59 2.23,2.00 1.85,2.31 1.47,2.61 1.02,2.78 0.56,2.95 0.07,2.96 -0.40,2.97 -0.87,2.83 -1.33,2.69 -1.73,2.40 -2.12,2.12 -2.12,2.12 -2.12,2.12 -2.34,1.83 -2.57,1.55 -2.72,1.22 -2.86,0.89 -2.93,0.53 -2.99,0.18 -2.97,-0.18 -2.95,-0.54 -2.84,-0.88 -2.74,-1.23 -2.55,-1.54 -2.36,-1.85 -2.10,-2.10 -1.85,-2.36 -1.54,-2.55 -1.23,-2.74 -0.88,-2.84 -0.54,-2.95 -0.18,-2.97 0.18,-2.99 0.53,-2.93 0.89,-2.86 1.22,-2.72 1.55,-2.57 1.83,-2.34 2.12,-2.12 2.12,-2.12 L 2.12,-2.12 Z"></path></g><g transform="translate(84.11317539238854 13.604753580189026) rotate(348.88015124479483 7.304972606934797 26.808295172672786)" stroke="none"><path fill="#f08c00" d="M 2.67,-0.05 Q 2.67,-0.05 2.70,1.11 2.74,2.29 3.06,3.84 3.39,5.40 3.86,6.87 4.34,8.34 4.84,9.92 5.33,11.50 5.81,13.04 6.28,14.59 6.66,15.88 7.04,17.16 7.54,18.64 8.04,20.12 8.58,21.72 9.13,23.32 9.54,24.48 9.95,25.63 10.53,27.08 11.11,28.52 11.63,29.96 12.16,31.40 12.54,32.64 12.92,33.88 13.23,34.96 13.53,36.03 13.95,37.29 14.36,38.54 14.74,39.63 15.11,40.71 15.46,41.86 15.81,43.01 16.10,44.04 16.38,45.06 16.74,46.36 17.10,47.66 17.35,48.84 17.60,50.02 17.94,51.70 18.28,53.38 18.22,53.96 18.16,54.54 17.92,55.07 17.68,55.60 17.29,56.03 16.89,56.46 16.38,56.73 15.87,57.01 15.29,57.11 14.72,57.21 14.14,57.12 13.57,57.04 13.05,56.77 12.53,56.50 12.13,56.08 11.72,55.66 11.47,55.14 11.22,54.61 11.15,54.03 11.09,53.45 11.21,52.88 11.33,52.31 11.62,51.81 11.92,51.31 12.36,50.93 12.80,50.54 13.34,50.32 13.88,50.10 14.46,50.07 15.04,50.03 15.60,50.18 16.16,50.33 16.65,50.65 17.13,50.97 17.49,51.43 17.85,51.89 18.04,52.44 18.23,52.99 18.24,53.58 18.24,54.16 18.06,54.71 17.88,55.27 17.53,55.73 17.19,56.20 16.71,56.53 16.23,56.87 15.67,57.03 15.11,57.19 14.53,57.16 13.94,57.14 13.40,56.93 12.86,56.71 12.41,56.34 11.96,55.97 11.66,55.47 11.35,54.98 11.22,54.41 11.09,53.84 11.09,53.84 11.09,53.84 10.63,51.54 10.17,49.23 9.88,48.08 9.60,46.94 9.19,45.43 8.79,43.91 8.47,42.89 8.15,41.87 7.76,40.71 7.37,39.55 6.96,38.20 6.55,36.85 6.26,35.82 5.97,34.78 5.65,33.72 5.33,32.66 4.86,31.32 4.39,29.98 4.00,28.88 3.61,27.78 3.24,26.61 2.86,25.45 2.45,24.16 2.04,22.87 1.68,21.46 1.32,20.05 0.98,18.80 0.65,17.54 0.32,16.14 -0.00,14.74 -0.42,13.15 -0.84,11.56 -1.26,9.98 -1.67,8.39 -2.07,6.47 -2.47,4.55 -2.56,3.47 -2.65,2.40 -2.66,1.22 -2.67,0.05 -2.63,-0.26 -2.60,-0.58 -2.49,-0.89 -2.38,-1.19 -2.21,-1.46 -2.03,-1.73 -1.79,-1.94 -1.56,-2.16 -1.27,-2.32 -0.99,-2.47 -0.68,-2.56 -0.37,-2.64 -0.05,-2.65 0.26,-2.65 0.58,-2.58 0.89,-2.51 1.18,-2.37 1.47,-2.22 1.71,-2.01 1.96,-1.81 2.15,-1.54 2.33,-1.28 2.45,-0.98 2.58,-0.69 2.62,-0.37 2.67,-0.05 2.67,-0.05 L 2.67,-0.05 Z"></path></g><g transform="translate(80.73394900714797 15.778261118061153) rotate(348.88015124479483 6.7151568667372885 24.46996512959325)" stroke="none"><path fill="#f08c00" d="M 2.45,-0.87 Q 2.45,-0.87 2.80,-0.03 3.14,0.81 3.88,1.89 4.62,2.97 5.45,3.81 6.28,4.64 7.00,5.54 7.72,6.45 8.08,7.68 8.44,8.91 8.52,10.03 8.59,11.15 8.64,12.24 8.69,13.33 8.73,14.47 8.77,15.60 8.85,16.74 8.93,17.89 9.16,19.25 9.39,20.61 9.63,21.83 9.87,23.05 10.16,24.33 10.45,25.62 10.84,27.59 11.23,29.56 11.54,30.99 11.84,32.42 12.16,33.59 12.47,34.76 13.09,36.72 13.70,38.67 14.20,40.17 14.69,41.67 15.09,42.79 15.48,43.91 15.88,45.73 16.28,47.55 16.35,47.97 16.42,48.39 16.38,48.81 16.35,49.23 16.21,49.64 16.08,50.04 15.85,50.40 15.62,50.76 15.31,51.05 15.01,51.34 14.64,51.56 14.27,51.77 13.86,51.88 13.45,52.00 13.03,52.02 12.60,52.03 12.19,51.95 11.77,51.86 11.39,51.68 11.01,51.50 10.68,51.23 10.35,50.96 10.09,50.62 9.84,50.28 9.67,49.89 9.51,49.50 9.67,49.88 9.83,50.26 9.63,49.73 9.44,49.19 9.42,48.62 9.40,48.05 9.57,47.51 9.74,46.96 10.07,46.50 10.40,46.03 10.86,45.70 11.33,45.37 11.87,45.20 12.41,45.03 12.98,45.05 13.55,45.06 14.09,45.26 14.63,45.45 15.07,45.81 15.52,46.17 15.82,46.65 16.13,47.12 16.27,47.68 16.41,48.23 16.36,48.80 16.32,49.37 16.09,49.89 15.87,50.42 15.49,50.84 15.11,51.27 14.61,51.55 14.12,51.83 13.56,51.94 13.00,52.04 12.43,51.97 11.87,51.89 11.36,51.64 10.84,51.39 10.44,50.98 10.04,50.58 9.78,50.07 9.53,49.56 9.45,49.00 9.37,48.43 9.48,47.87 9.59,47.31 9.87,46.82 10.15,46.32 10.57,45.94 10.99,45.56 11.52,45.33 12.04,45.10 12.61,45.06 13.18,45.01 13.73,45.15 14.28,45.28 14.76,45.59 15.25,45.90 15.76,46.72 16.28,47.55 16.35,47.97 16.42,48.39 16.38,48.81 16.35,49.23 16.21,49.64 16.08,50.04 15.85,50.40 15.62,50.76 15.31,51.05 15.01,51.34 14.64,51.56 14.27,51.77 13.86,51.88 13.45,52.00 13.03,52.02 12.60,52.03 12.19,51.95 11.77,51.86 11.39,51.68 11.01,51.50 10.68,51.23 10.35,50.96 10.09,50.62 9.84,50.28 9.67,49.89 9.51,49.50 9.13,47.77 8.76,46.04 8.43,44.99 8.11,43.94 7.60,42.52 7.10,41.09 6.39,39.27 5.69,37.44 5.40,36.42 5.12,35.39 4.88,34.24 4.64,33.09 4.41,32.04 4.19,31.00 3.74,29.04 3.29,27.08 3.02,25.84 2.75,24.59 2.48,23.12 2.20,21.65 2.00,20.24 1.80,18.83 1.74,17.57 1.69,16.32 1.73,15.17 1.77,14.01 1.81,12.92 1.86,11.83 2.01,10.62 2.17,9.40 1.50,8.52 0.83,7.64 0.08,6.50 -0.66,5.37 -1.28,3.99 -1.91,2.61 -2.18,1.74 -2.45,0.87 -2.52,0.57 -2.59,0.26 -2.59,-0.05 -2.58,-0.36 -2.50,-0.67 -2.42,-0.97 -2.27,-1.24 -2.11,-1.52 -1.90,-1.75 -1.69,-1.98 -1.42,-2.16 -1.16,-2.33 -0.87,-2.44 -0.57,-2.54 -0.26,-2.57 0.05,-2.61 0.36,-2.56 0.67,-2.52 0.96,-2.40 1.25,-2.28 1.51,-2.10 1.76,-1.91 1.97,-1.67 2.17,-1.43 2.31,-1.15 2.45,-0.87 2.45,-0.87 L 2.45,-0.87 Z"></path></g><g transform="translate(79.97541401696938 26.135013471718594) rotate(348.88015124479483 8.93712451430811 16.875625719012476)" stroke="none"><path d="M0.2 0.66 C0.16 -0.69, 0.61 -7.46, 1.17 -8.79 C1.73 -10.12, 3.92 -9.01, 3.56 -7.33 C3.19 -5.65, -1.11 0.11, -1.02 1.29 C-0.94 2.47, 2.88 -0.74, 4.05 -0.24 C5.22 0.27, 6.14 2.82, 5.97 4.31 C5.79 5.81, 2.96 8.15, 2.99 8.72 C3.02 9.29, 5.21 7.8, 6.17 7.73 C7.12 7.67, 9.14 7.18, 8.72 8.33 C8.3 9.48, 3.56 13.73, 3.64 14.64 C3.71 15.55, 8.75 12.95, 9.16 13.79 C9.58 14.62, 6.37 18.61, 6.11 19.65 C5.84 20.69, 6.72 19.96, 7.59 20.03 C8.46 20.09, 10.39 19.66, 11.33 20.03 C12.27 20.39, 14.11 21.66, 13.22 22.19 C12.33 22.72, 6.31 22.87, 5.99 23.18 C5.67 23.49, 10.08 23.79, 11.31 24.05 C12.54 24.31, 13.62 23.43, 13.39 24.75 C13.17 26.07, 9.94 31.25, 9.95 31.96 C9.97 32.68, 12.53 28.9, 13.48 29.04 C14.43 29.18, 16.67 31.42, 15.65 32.81 C14.63 34.19, 7.29 36.56, 7.33 37.36 C7.37 38.16, 14.31 37.57, 15.88 37.61 C17.46 37.65, 16.83 37.17, 16.79 37.59 C16.76 38, 15.66 39.26, 15.68 40.09 C15.69 40.93, 17.71 42.3, 16.89 42.61 C16.06 42.93, 12.91 44.65, 10.71 42 C8.5 39.34, 5.05 33.28, 3.65 26.68 C2.24 20.09, 2.48 7.68, 2.28 2.41 C2.09 -2.86, 1.96 -4.62, 2.48 -4.94 C2.99 -5.26, 4.53 -0.26, 5.37 0.49" stroke="none" stroke-width="0" fill="#ffec99" fill-rule="evenodd"></path><path fill="#f08c00" d="M -2.44,-0.32 Q -2.44,-0.32 -2.41,-0.92 -2.39,-1.52 -2.24,-2.60 -2.10,-3.68 -2.15,-4.98 -2.19,-6.27 -2.00,-7.38 -1.81,-8.49 -1.07,-9.60 -0.32,-10.70 0.82,-11.10 1.97,-11.49 3.68,-10.87 5.38,-10.24 5.87,-8.72 6.36,-7.19 6.21,-5.87 6.06,-4.56 5.69,-3.34 5.32,-2.11 4.84,-0.86 4.36,0.39 3.96,1.53 3.56,2.68 2.17,0.95 0.78,-0.76 1.26,-1.83 1.74,-2.89 2.82,-2.99 3.91,-3.09 5.15,-2.80 6.40,-2.51 7.43,-1.76 8.46,-1.01 9.09,0.16 9.72,1.33 9.72,2.53 9.73,3.74 9.18,4.93 8.62,6.12 7.90,6.90 7.18,7.69 7.11,7.96 7.04,8.23 6.98,8.69 6.92,9.14 6.75,9.57 6.58,10.00 6.32,10.38 6.05,10.75 5.71,11.05 5.36,11.36 4.95,11.57 4.54,11.77 4.09,11.88 3.65,11.99 3.19,11.98 2.73,11.98 2.28,11.86 1.84,11.75 1.43,11.53 1.02,11.31 0.68,11.00 0.34,10.70 0.08,10.32 -0.16,9.93 -0.32,9.50 -0.48,9.07 -0.53,8.61 -0.58,8.16 0.87,6.40 2.34,4.64 3.38,3.75 4.41,2.87 5.51,2.73 6.61,2.60 7.90,2.86 9.20,3.11 10.13,3.72 11.05,4.32 11.79,5.40 12.53,6.47 12.38,7.96 12.22,9.44 10.76,11.12 9.31,12.80 8.25,13.61 7.20,14.42 6.66,12.88 6.12,11.33 5.01,10.70 3.90,10.07 5.08,9.69 6.26,9.32 7.39,9.26 8.51,9.21 10.20,9.47 11.88,9.73 12.82,10.74 13.76,11.75 13.98,12.89 14.19,14.02 13.77,15.43 13.35,16.84 12.48,17.68 11.61,18.51 10.56,19.27 9.51,20.03 8.68,20.70 7.85,21.38 7.41,19.18 6.97,16.99 5.94,16.44 4.92,15.90 6.21,15.36 7.50,14.82 8.73,14.70 9.95,14.58 11.13,14.81 12.30,15.04 13.27,15.60 14.23,16.16 14.95,17.37 15.67,18.58 15.56,20.27 15.46,21.97 14.67,23.05 13.87,24.12 12.89,24.79 11.91,25.45 11.18,23.89 10.45,22.33 9.23,21.47 8.00,20.60 9.07,20.27 10.15,19.93 12.05,20.31 13.96,20.69 14.87,21.67 15.78,22.65 16.03,23.77 16.28,24.89 15.76,26.48 15.23,28.07 14.48,28.95 13.73,29.83 12.91,30.66 12.08,31.50 11.45,29.99 10.82,28.48 9.85,27.72 8.88,26.96 10.16,26.66 11.45,26.37 12.65,26.31 13.85,26.25 15.31,26.64 16.77,27.03 17.66,27.77 18.55,28.52 19.08,29.48 19.61,30.44 19.71,31.68 19.80,32.93 18.99,34.38 18.18,35.83 17.16,36.46 16.13,37.08 15.08,37.51 14.02,37.95 12.98,38.19 11.93,38.44 10.86,35.62 9.78,32.80 11.06,32.44 12.33,32.08 13.62,32.03 14.91,31.98 16.25,32.28 17.60,32.57 18.77,33.35 19.95,34.12 20.67,35.22 21.40,36.32 21.51,37.66 21.62,38.99 20.87,40.40 20.12,41.82 19.22,42.49 18.32,43.16 17.33,41.33 16.34,39.51 15.13,38.82 13.92,38.14 15.02,37.86 16.12,37.58 17.55,38.34 18.99,39.10 19.64,39.94 20.30,40.77 20.09,41.89 19.89,43.00 19.25,43.98 18.62,44.96 17.39,45.39 16.16,45.82 15.09,45.87 14.02,45.91 12.86,45.92 11.70,45.92 10.14,45.40 8.59,44.88 7.81,43.70 7.04,42.52 6.67,41.45 6.30,40.37 6.06,39.18 5.81,37.99 5.46,36.97 5.11,35.95 4.55,34.83 4.00,33.71 3.46,32.59 2.91,31.48 2.50,30.34 2.09,29.20 1.69,28.01 1.29,26.82 0.95,25.61 0.61,24.39 0.21,23.04 -0.18,21.69 -0.48,20.45 -0.77,19.21 -1.01,18.13 -1.25,17.04 -1.45,15.77 -1.65,14.51 -1.76,13.33 -1.88,12.15 -2.03,11.08 -2.18,10.00 -2.41,8.76 -2.65,7.53 -2.85,6.21 -3.04,4.89 -3.13,3.54 -3.22,2.19 -3.22,0.96 -3.22,-0.26 -3.22,-1.33 -3.22,-2.41 -3.06,-3.85 -2.91,-5.29 -2.38,-6.43 -1.85,-7.58 -0.89,-8.36 0.05,-9.15 1.65,-9.24 3.25,-9.34 4.50,-8.41 5.76,-7.47 6.25,-6.30 6.75,-5.13 8.26,-2.14 9.77,0.85 9.58,1.44 9.39,2.04 9.01,2.55 8.64,3.05 8.13,3.41 7.61,3.77 7.01,3.95 6.41,4.12 5.78,4.10 5.15,4.07 4.57,3.85 3.98,3.62 3.50,3.22 3.02,2.82 2.68,2.29 2.35,1.76 2.21,1.15 2.07,0.54 2.13,-0.08 2.19,-0.70 2.44,-1.28 2.70,-1.85 3.12,-2.31 3.55,-2.77 4.10,-3.07 4.65,-3.37 5.26,-3.48 5.88,-3.59 6.50,-3.50 7.12,-3.41 7.68,-3.12 8.24,-2.83 8.68,-2.39 9.11,-1.94 9.38,-1.37 9.66,-0.80 9.73,-0.18 9.81,0.43 9.68,1.04 9.56,1.66 9.24,2.20 8.92,2.74 8.45,3.16 7.98,3.57 7.40,3.81 6.82,4.05 6.19,4.09 5.57,4.13 4.96,3.97 4.36,3.81 3.83,3.47 3.31,3.12 2.92,2.63 2.53,2.14 2.33,1.54 2.12,0.95 2.11,0.33 2.10,-0.29 2.10,-0.29 2.10,-0.29 1.30,-0.37 0.51,-0.45 0.15,-1.54 -0.19,-2.62 1.07,-2.22 2.34,-1.82 3.44,-1.60 4.53,-1.38 4.53,-0.22 4.54,0.93 4.58,2.17 4.62,3.40 4.76,4.52 4.91,5.63 5.12,6.73 5.34,7.84 5.52,8.99 5.71,10.13 5.82,11.31 5.93,12.49 6.05,13.58 6.17,14.67 6.40,15.79 6.63,16.92 6.90,18.05 7.17,19.19 7.53,20.45 7.90,21.71 8.19,22.73 8.49,23.76 8.89,25.01 9.29,26.26 9.65,27.29 10.02,28.33 10.49,29.34 10.97,30.36 11.46,31.34 11.95,32.32 12.39,33.36 12.83,34.41 13.18,35.63 13.53,36.85 13.79,38.11 14.04,39.36 12.97,38.75 11.90,38.14 13.04,38.40 14.18,38.66 13.42,40.39 12.67,42.13 13.32,42.98 13.98,43.84 14.46,44.81 14.95,45.78 13.41,45.10 11.88,44.41 11.09,42.70 10.30,40.99 11.01,39.69 11.72,38.39 12.99,37.74 14.27,37.08 14.31,38.35 14.35,39.62 13.17,39.77 11.98,39.92 10.51,39.85 9.04,39.78 7.65,37.02 6.26,34.26 8.36,32.55 10.47,30.83 11.72,30.43 12.96,30.02 12.58,31.03 12.20,32.03 12.85,33.00 13.51,33.96 12.35,34.10 11.19,34.24 10.01,34.46 8.83,34.67 7.34,33.89 5.85,33.10 5.17,31.68 4.49,30.26 4.90,29.03 5.30,27.80 5.96,26.95 6.61,26.09 7.51,25.27 8.40,24.45 8.71,25.49 9.01,26.53 10.06,27.12 11.11,27.71 10.02,27.98 8.92,28.25 7.65,28.20 6.37,28.16 5.59,27.38 4.81,26.60 4.35,24.88 3.90,23.15 4.72,21.84 5.55,20.52 6.80,20.26 8.05,20.00 8.56,21.16 9.07,22.32 8.08,22.78 7.10,23.23 5.76,23.43 4.42,23.62 3.42,23.09 2.42,22.57 1.71,20.48 1.01,18.40 1.59,17.31 2.16,16.23 3.10,15.38 4.04,14.54 5.34,14.40 6.64,14.26 7.29,15.50 7.95,16.74 6.85,16.92 5.75,17.10 4.65,17.30 3.55,17.50 2.32,16.86 1.09,16.22 0.52,14.58 -0.03,12.94 0.33,11.94 0.71,10.93 1.56,9.89 2.41,8.85 3.76,8.68 5.11,8.51 5.84,9.43 6.56,10.35 5.47,11.03 4.39,11.71 5.71,9.97 7.04,8.23 6.98,8.69 6.92,9.14 6.75,9.57 6.58,10.00 6.32,10.38 6.05,10.75 5.71,11.05 5.36,11.36 4.95,11.56 4.54,11.77 4.09,11.88 3.65,11.99 3.19,11.98 2.73,11.98 2.28,11.86 1.84,11.75 1.43,11.53 1.03,11.31 0.68,11.00 0.34,10.70 0.09,10.32 -0.16,9.93 -0.32,9.50 -0.48,9.07 -0.53,8.61 -0.58,8.16 -0.51,7.29 -0.44,6.41 0.07,5.15 0.58,3.88 1.47,3.19 2.35,2.50 3.24,3.15 4.13,3.79 3.21,4.50 2.30,5.21 0.92,5.20 -0.45,5.20 -1.92,3.57 -3.39,1.95 -3.11,0.85 -2.84,-0.23 -2.41,-1.27 -1.99,-2.30 -1.52,-3.39 -1.05,-4.48 -0.21,-5.33 0.63,-6.19 2.19,-5.73 3.76,-5.28 3.63,-4.22 3.49,-3.16 3.09,-2.01 2.70,-0.85 2.57,-0.26 2.44,0.32 2.37,0.60 2.30,0.89 2.16,1.16 2.01,1.42 1.81,1.64 1.62,1.86 1.37,2.03 1.12,2.19 0.84,2.30 0.56,2.40 0.27,2.43 -0.02,2.47 -0.31,2.43 -0.61,2.39 -0.89,2.28 -1.16,2.17 -1.41,2.00 -1.65,1.83 -1.85,1.60 -2.04,1.38 -2.18,1.11 -2.31,0.85 -2.38,0.56 -2.45,0.27 -2.45,-0.02 -2.44,-0.32 -2.44,-0.32 L -2.44,-0.32 Z"></path></g><g transform="translate(79.84813881265325 21.212543738964087) rotate(348.88015124479483 0.000014941427053827283 0.000014941427053827283)" stroke="none"><path fill="#f08c00" d="M 1.57,-1.57 Q 1.57,-1.57 1.77,-1.27 1.98,-0.98 2.09,-0.64 2.20,-0.29 2.19,0.05 2.18,0.41 2.05,0.75 1.93,1.09 1.70,1.37 1.48,1.65 1.18,1.84 0.87,2.03 0.52,2.12 0.18,2.21 -0.17,2.18 -0.53,2.15 -0.86,2.01 -1.19,1.87 -1.46,1.63 -1.73,1.39 -1.90,1.07 -2.08,0.76 -2.15,0.41 -2.21,0.05 -2.17,-0.29 -2.12,-0.65 -1.96,-0.97 -1.80,-1.29 -1.54,-1.54 -1.29,-1.80 -0.97,-1.96 -0.65,-2.12 -0.29,-2.17 0.06,-2.21 0.41,-2.15 0.76,-2.08 1.07,-1.90 1.39,-1.73 1.63,-1.46 1.87,-1.19 2.01,-0.86 2.15,-0.53 2.18,-0.17 2.21,0.18 2.12,0.52 2.03,0.87 1.84,1.18 1.65,1.48 1.37,1.70 1.09,1.93 0.75,2.05 0.41,2.18 0.05,2.19 -0.30,2.20 -0.64,2.09 -0.98,1.98 -1.27,1.77 -1.57,1.56 -1.57,1.57 -1.57,1.57 -1.73,1.35 -1.90,1.14 -2.01,0.90 -2.12,0.66 -2.16,0.39 -2.21,0.13 -2.20,-0.13 -2.18,-0.40 -2.10,-0.65 -2.02,-0.91 -1.88,-1.14 -1.74,-1.36 -1.55,-1.55 -1.36,-1.74 -1.14,-1.88 -0.91,-2.02 -0.65,-2.10 -0.40,-2.18 -0.13,-2.20 0.13,-2.21 0.39,-2.16 0.66,-2.12 0.90,-2.01 1.14,-1.90 1.35,-1.73 1.57,-1.57 1.57,-1.57 L 1.57,-1.57 Z"></path></g><g transform="translate(87.06267103689694 30.909532888113063) rotate(348.88015124479483 3.187344558457781 16.36153788700318)" stroke="none"><path d="M0.94 0.03 C1.71 1.2, 2.22 2.75, 4.16 8.45 C6.09 14.16, 12.62 29.89, 12.54 34.25 C12.46 38.61, 5.14 36.2, 3.68 34.63 C2.23 33.05, 4.48 27.72, 3.83 24.79 C3.17 21.86, 0.96 21.85, -0.24 17.06 C-1.45 12.26, -2.9 -2.92, -3.4 -3.98 C-3.91 -5.05, -5.1 4.55, -3.3 10.67 C-1.49 16.79, 5.34 30.09, 7.44 32.74 C9.54 35.38, 10.78 31.73, 9.3 26.55 C7.82 21.37, 0.23 3.56, -1.43 1.65 C-3.1 -0.27, -2.07 10.45, -0.69 15.07 C0.7 19.68, 5.88 28.27, 6.89 29.34 C7.89 30.41, 6.25 24.2, 5.36 21.48 C4.47 18.76, 1.24 11.07, 1.55 13.02 C1.87 14.97, 7.97 33.07, 7.26 33.19 C6.56 33.31, -0.97 16.53, -2.68 13.74 C-4.39 10.95, -3.47 14.73, -2.99 16.43 C-2.52 18.14, -1.31 21.42, 0.15 23.96 C1.61 26.49, 5.85 33.31, 5.77 31.63 C5.69 29.95, 0.98 17.98, -0.33 13.88 C-1.64 9.79, -1.74 9.22, -2.08 7.06 C-2.43 4.9, -2.55 1.81, -2.38 0.9 C-2.2 -0.02, -1.23 0.13, -1.03 1.58 C-0.84 3.03, -0.32 10.22, -1.21 9.6 C-2.09 8.98, -5.78 -0.31, -6.33 -2.16" stroke="none" stroke-width="0" fill="#ffec99" fill-rule="evenodd"></path><path fill="#f08c00" d="M 2.41,-0.94 Q 2.41,-0.94 2.72,-0.28 3.02,0.37 3.58,1.32 4.14,2.26 4.69,3.21 5.25,4.17 5.82,5.41 6.39,6.64 6.73,7.70 7.08,8.76 7.38,10.12 7.68,11.48 8.03,12.74 8.39,14.01 8.83,15.29 9.28,16.57 9.77,17.53 10.27,18.50 10.76,19.47 11.24,20.43 11.66,21.48 12.09,22.52 12.50,23.67 12.90,24.82 13.21,25.95 13.52,27.09 13.91,28.25 14.31,29.41 14.68,30.53 15.06,31.65 15.26,32.75 15.46,33.85 14.90,35.86 14.34,37.86 13.36,38.56 12.39,39.26 10.94,39.36 9.48,39.45 8.35,39.47 7.22,39.50 5.26,38.91 3.30,38.32 2.26,37.10 1.22,35.88 0.82,33.74 0.42,31.61 0.27,29.82 0.13,28.03 -0.04,26.88 -0.21,25.73 -0.62,24.54 -1.03,23.36 -1.58,22.29 -2.14,21.22 -3.71,14.92 -5.29,8.62 -5.73,5.34 -6.16,2.06 -6.45,1.45 -6.73,0.83 -6.76,0.51 -6.78,0.19 -6.73,-0.12 -6.67,-0.43 -6.54,-0.73 -6.42,-1.02 -6.22,-1.28 -6.03,-1.53 -5.78,-1.73 -5.53,-1.93 -5.23,-2.07 -4.94,-2.20 -4.63,-2.27 -4.31,-2.33 -3.99,-2.31 -3.67,-2.30 -3.36,-2.21 -3.05,-2.11 -2.78,-1.95 -2.50,-1.79 -2.27,-1.56 -2.04,-1.34 -1.87,-1.07 -1.70,-0.79 -1.60,-0.49 -1.50,-0.18 -1.45,1.28 -1.39,2.75 -1.21,4.04 -1.02,5.33 -0.65,6.72 -0.27,8.11 0.31,9.65 0.90,11.20 1.50,12.34 2.10,13.49 2.67,14.42 3.24,15.36 4.26,16.99 5.29,18.62 6.09,19.99 6.89,21.35 7.48,22.42 8.07,23.49 8.74,24.72 9.41,25.95 10.24,27.52 11.07,29.09 11.40,29.57 11.74,30.06 11.88,30.41 12.03,30.77 12.09,31.15 12.15,31.54 12.12,31.92 12.08,32.31 11.96,32.68 11.83,33.04 11.62,33.37 11.41,33.69 11.13,33.96 10.85,34.23 10.51,34.42 10.18,34.61 9.80,34.71 9.43,34.82 9.04,34.83 8.65,34.84 8.28,34.76 7.90,34.68 7.55,34.51 7.20,34.34 6.90,34.10 6.60,33.85 6.37,33.54 6.14,33.23 5.94,32.09 5.75,30.95 5.34,29.19 4.93,27.42 4.59,26.34 4.25,25.26 3.88,24.18 3.51,23.10 2.82,21.23 2.12,19.37 1.37,17.74 0.61,16.11 -0.22,14.48 -1.06,12.86 -1.81,11.38 -2.56,9.89 -3.13,8.71 -3.70,7.52 -4.32,6.32 -4.95,5.11 -5.31,4.04 -5.66,2.97 -5.68,2.76 -5.69,2.55 -5.67,2.14 -5.65,1.73 -5.54,1.34 -5.42,0.94 -5.21,0.59 -5.00,0.24 -4.72,-0.05 -4.43,-0.34 -4.08,-0.56 -3.73,-0.78 -3.34,-0.90 -2.95,-1.03 -2.54,-1.06 -2.13,-1.09 -1.73,-1.02 -1.32,-0.95 -0.95,-0.79 -0.57,-0.62 -0.24,-0.37 0.07,-0.12 0.33,0.19 0.59,0.51 0.76,0.88 0.93,1.25 1.01,1.65 1.09,2.05 1.43,3.53 1.77,5.00 1.91,6.23 2.05,7.46 2.14,8.57 2.24,9.68 2.51,11.49 2.78,13.30 3.31,14.84 3.84,16.37 4.74,18.24 5.64,20.10 6.53,21.81 7.41,23.52 8.00,24.52 8.59,25.51 8.98,26.00 9.37,26.48 9.58,26.82 9.78,27.16 9.90,27.54 10.01,27.91 10.04,28.31 10.06,28.70 9.99,29.09 9.92,29.48 9.75,29.84 9.59,30.19 9.35,30.51 9.10,30.82 8.79,31.06 8.48,31.30 8.12,31.46 7.76,31.62 7.37,31.69 6.98,31.76 6.59,31.74 6.20,31.72 5.82,31.60 5.44,31.48 5.11,31.28 4.77,31.07 4.49,30.79 4.21,30.51 3.89,29.15 3.56,27.79 3.15,26.60 2.74,25.40 2.23,23.93 1.72,22.47 1.18,21.20 0.64,19.94 -0.14,18.94 -0.92,17.94 -1.53,16.96 -2.15,15.99 -2.35,15.74 -2.55,15.50 -2.74,15.11 -2.93,14.73 -3.02,14.31 -3.11,13.89 -3.10,13.46 -3.09,13.03 -2.98,12.62 -2.87,12.21 -2.66,11.83 -2.45,11.46 -2.16,11.14 -1.87,10.83 -1.51,10.59 -1.15,10.36 -0.74,10.22 -0.34,10.08 0.08,10.04 0.50,9.99 0.93,10.06 1.35,10.12 1.75,10.28 2.15,10.44 2.49,10.69 2.84,10.95 3.11,11.28 3.39,11.60 3.68,12.72 3.97,13.84 4.59,15.50 5.21,17.16 5.85,19.54 6.48,21.92 7.08,23.65 7.67,25.38 8.23,26.84 8.79,28.31 9.23,29.31 9.66,30.32 7.12,31.14 4.58,31.96 3.18,30.75 1.77,29.54 1.27,28.60 0.76,27.66 -0.07,25.94 -0.91,24.22 -1.39,23.23 -1.87,22.24 -2.53,21.06 -3.19,19.87 -3.78,18.95 -4.36,18.02 -4.49,17.88 -4.63,17.73 -4.86,17.38 -5.09,17.02 -5.23,16.62 -5.37,16.22 -5.41,15.80 -5.45,15.38 -5.39,14.96 -5.33,14.54 -5.17,14.15 -5.01,13.75 -4.76,13.41 -4.51,13.07 -4.18,12.80 -3.86,12.52 -3.48,12.33 -3.10,12.15 -2.69,12.06 -2.27,11.96 -1.85,11.98 -1.42,11.99 -1.01,12.10 -0.61,12.21 -0.23,12.42 0.13,12.62 0.44,12.91 0.75,13.20 1.16,14.45 1.58,15.71 2.05,17.18 2.53,18.64 3.02,19.92 3.51,21.19 4.25,22.34 4.98,23.50 5.64,24.42 6.29,25.35 7.00,26.22 7.70,27.10 5.49,28.17 3.29,29.25 2.34,28.50 1.40,27.75 0.78,25.97 0.15,24.18 -0.51,22.61 -1.18,21.05 -1.89,19.07 -2.60,17.09 -2.89,16.04 -3.19,14.99 -3.44,13.95 -3.69,12.91 -4.12,10.93 -4.54,8.95 -4.80,7.44 -5.05,5.94 -5.15,4.62 -5.25,3.29 -5.30,2.18 -5.35,1.07 -4.88,-0.02 -4.40,-1.12 -2.52,-1.65 -0.63,-2.19 0.36,-1.61 1.36,-1.03 2.01,1.58 2.66,4.20 2.73,5.49 2.80,6.77 2.81,7.29 2.81,7.81 2.79,8.21 2.78,8.61 2.67,9.00 2.55,9.38 2.35,9.73 2.15,10.07 1.88,10.36 1.60,10.65 1.26,10.86 0.92,11.07 0.54,11.20 0.16,11.33 -0.23,11.36 -0.62,11.39 -1.02,11.32 -1.41,11.26 -1.78,11.10 -2.15,10.95 -2.47,10.70 -2.79,10.46 -3.04,10.15 -3.29,9.84 -3.46,9.48 -3.63,9.12 -3.71,8.73 -3.79,8.34 -4.63,7.67 -5.47,7.01 -6.08,6.01 -6.70,5.00 -6.54,3.76 -6.38,2.51 -6.88,2.25 -7.38,1.99 -7.77,1.59 -8.16,1.19 -8.40,0.68 -8.64,0.17 -8.71,-0.37 -8.77,-0.93 -8.66,-1.48 -8.54,-2.03 -8.26,-2.51 -7.97,-2.99 -7.55,-3.36 -7.13,-3.73 -6.61,-3.94 -6.09,-4.16 -5.53,-4.19 -4.97,-4.23 -4.43,-4.08 -3.89,-3.94 -3.42,-3.63 -2.95,-3.32 -2.61,-2.88 -2.26,-2.43 -2.08,-1.90 -1.89,-1.37 -1.89,-0.81 -1.88,-0.25 -2.06,0.27 -2.23,0.80 -2.57,1.25 -2.90,1.70 -3.36,2.02 -3.82,2.34 -4.36,2.50 -4.90,2.65 -5.46,2.63 -6.02,2.60 -6.54,2.40 -7.07,2.20 -7.50,1.84 -7.93,1.48 -8.22,1.01 -8.52,0.53 -8.64,-0.01 -8.77,-0.56 -8.71,-1.11 -8.66,-1.67 -8.43,-2.18 -8.20,-2.69 -7.82,-3.11 -7.44,-3.52 -6.94,-3.78 -6.45,-4.05 -5.90,-4.15 -5.34,-4.24 -4.79,-4.16 -4.24,-4.07 -4.24,-4.07 -4.24,-4.07 -2.60,-1.58 -0.96,0.90 -0.45,2.00 0.06,3.09 0.89,4.31 1.73,5.53 2.27,6.67 2.81,7.81 2.79,8.21 2.78,8.61 2.67,9.00 2.55,9.38 2.35,9.73 2.15,10.07 1.88,10.36 1.60,10.65 1.26,10.86 0.92,11.07 0.54,11.20 0.16,11.33 -0.23,11.36 -0.62,11.39 -1.02,11.32 -1.41,11.26 -1.78,11.10 -2.15,10.95 -2.47,10.71 -2.79,10.46 -3.04,10.15 -3.29,9.84 -3.46,9.48 -3.63,9.12 -3.71,8.73 -3.79,8.34 -3.76,7.83 -3.73,7.32 -3.90,5.31 -4.07,3.31 -2.37,3.70 -0.68,4.09 0.39,3.44 1.46,2.79 1.46,3.95 1.46,5.10 1.63,6.34 1.81,7.58 2.24,9.42 2.68,11.26 3.21,13.07 3.75,14.89 4.41,16.55 5.06,18.21 5.86,19.92 6.65,21.63 7.39,23.44 8.12,25.25 8.78,27.07 9.44,28.90 9.05,30.54 8.67,32.17 7.17,32.97 5.67,33.77 3.82,32.60 1.98,31.44 1.25,30.49 0.52,29.54 -0.17,28.54 -0.87,27.55 -1.64,26.37 -2.41,25.20 -2.93,24.09 -3.45,22.98 -3.85,21.84 -4.24,20.70 -4.61,19.49 -4.98,18.28 -5.22,17.00 -5.46,15.71 -5.04,16.72 -4.63,17.73 -4.86,17.38 -5.09,17.02 -5.23,16.62 -5.37,16.22 -5.41,15.80 -5.45,15.38 -5.39,14.96 -5.33,14.54 -5.17,14.15 -5.01,13.75 -4.76,13.41 -4.51,13.07 -4.18,12.80 -3.86,12.52 -3.48,12.33 -3.10,12.15 -2.69,12.06 -2.27,11.97 -1.85,11.98 -1.42,11.99 -1.01,12.10 -0.61,12.21 -0.23,12.42 0.13,12.62 0.44,12.91 0.75,13.20 1.05,13.59 1.35,13.98 1.92,14.98 2.49,15.98 2.99,16.96 3.48,17.95 4.01,19.13 4.54,20.32 5.10,21.56 5.67,22.79 6.60,24.47 7.53,26.15 8.13,27.10 8.72,28.05 9.62,30.03 10.52,32.01 10.17,33.21 9.82,34.41 7.93,35.38 6.03,36.35 4.97,35.32 3.91,34.29 3.55,33.09 3.18,31.90 2.71,30.66 2.25,29.42 1.60,27.70 0.95,25.98 0.59,24.95 0.22,23.93 -0.30,22.54 -0.83,21.15 -1.41,19.47 -2.00,17.79 -2.27,16.64 -2.55,15.50 -2.74,15.11 -2.93,14.73 -3.02,14.31 -3.11,13.89 -3.10,13.46 -3.09,13.03 -2.98,12.62 -2.87,12.21 -2.66,11.83 -2.45,11.46 -2.16,11.14 -1.87,10.83 -1.51,10.59 -1.15,10.36 -0.74,10.22 -0.34,10.08 0.08,10.04 0.50,9.99 0.93,10.06 1.35,10.12 1.75,10.28 2.15,10.44 2.49,10.69 2.84,10.95 3.11,11.27 3.39,11.60 3.94,12.53 4.49,13.45 5.20,14.51 5.90,15.56 6.55,16.82 7.20,18.07 7.61,19.17 8.01,20.27 8.52,21.76 9.03,23.26 9.20,24.87 9.37,26.48 9.58,26.82 9.78,27.16 9.90,27.53 10.01,27.91 10.04,28.31 10.06,28.70 9.99,29.09 9.92,29.48 9.75,29.83 9.59,30.19 9.35,30.50 9.10,30.82 8.79,31.06 8.48,31.30 8.12,31.46 7.76,31.62 7.37,31.69 6.99,31.76 6.59,31.74 6.20,31.72 5.82,31.60 5.44,31.48 5.11,31.28 4.77,31.07 4.49,30.79 4.21,30.51 4.22,30.52 4.22,30.54 3.64,29.62 3.07,28.70 2.46,27.53 1.85,26.36 0.99,24.68 0.13,23.01 -0.43,21.96 -1.00,20.92 -1.55,19.79 -2.10,18.67 -2.80,16.58 -3.50,14.50 -3.83,12.43 -4.17,10.36 -4.45,8.31 -4.74,6.26 -5.22,4.40 -5.69,2.55 -5.67,2.14 -5.65,1.73 -5.54,1.34 -5.42,0.94 -5.21,0.59 -5.00,0.24 -4.72,-0.05 -4.43,-0.34 -4.08,-0.56 -3.73,-0.77 -3.34,-0.90 -2.95,-1.03 -2.54,-1.06 -2.13,-1.09 -1.73,-1.02 -1.32,-0.95 -0.95,-0.79 -0.57,-0.62 -0.25,-0.37 0.07,-0.12 0.33,0.18 0.59,0.50 0.76,0.88 0.93,1.25 1.01,1.65 1.09,2.05 1.17,2.39 1.25,2.72 1.72,3.81 2.19,4.91 2.66,6.03 3.14,7.15 3.82,8.58 4.51,10.01 5.35,11.69 6.19,13.36 7.06,15.25 7.92,17.13 8.64,19.05 9.37,20.97 9.80,22.09 10.22,23.20 10.68,24.43 11.13,25.66 11.43,27.86 11.74,30.06 11.88,30.41 12.03,30.77 12.09,31.15 12.15,31.54 12.12,31.92 12.08,32.31 11.96,32.68 11.83,33.04 11.62,33.37 11.41,33.69 11.13,33.96 10.85,34.23 10.51,34.42 10.18,34.61 9.80,34.71 9.43,34.82 9.04,34.83 8.66,34.84 8.28,34.76 7.90,34.68 7.55,34.51 7.20,34.34 6.90,34.10 6.60,33.85 6.37,33.54 6.14,33.23 6.44,33.46 6.73,33.70 6.09,32.81 5.44,31.93 4.66,30.28 3.88,28.63 3.34,27.31 2.80,26.00 2.36,24.95 1.92,23.90 1.30,22.55 0.68,21.20 -0.19,19.49 -1.06,17.78 -1.61,16.72 -2.17,15.65 -2.80,14.34 -3.44,13.04 -4.25,11.27 -5.07,9.51 -5.59,7.80 -6.12,6.09 -6.35,4.56 -6.58,3.02 -6.66,1.93 -6.73,0.83 -6.76,0.51 -6.78,0.19 -6.73,-0.11 -6.67,-0.43 -6.54,-0.73 -6.42,-1.02 -6.22,-1.28 -6.03,-1.53 -5.78,-1.73 -5.53,-1.93 -5.23,-2.07 -4.94,-2.20 -4.63,-2.27 -4.31,-2.33 -3.99,-2.31 -3.67,-2.30 -3.36,-2.21 -3.05,-2.11 -2.78,-1.95 -2.50,-1.79 -2.27,-1.56 -2.04,-1.34 -1.87,-1.07 -1.70,-0.79 -1.60,-0.49 -1.50,-0.18 -1.31,0.43 -1.11,1.06 -0.31,4.07 0.47,7.09 2.49,13.08 4.50,19.08 5.08,20.30 5.67,21.52 6.06,22.93 6.45,24.33 6.93,26.75 7.42,29.16 7.07,30.60 6.73,32.03 7.82,32.60 8.92,33.16 8.40,34.24 7.88,35.31 7.74,34.24 7.61,33.17 7.19,31.93 6.76,30.69 6.40,29.29 6.04,27.89 5.70,26.78 5.36,25.67 4.98,24.54 4.61,23.41 4.13,22.35 3.64,21.29 3.12,20.10 2.59,18.91 2.24,17.81 1.88,16.71 1.65,15.63 1.43,14.55 1.18,13.28 0.92,12.00 0.73,10.70 0.54,9.40 0.28,8.36 0.03,7.32 -0.44,6.14 -0.92,4.95 -1.44,3.64 -1.97,2.32 -2.19,1.63 -2.41,0.94 -2.49,0.63 -2.57,0.33 -2.57,0.02 -2.57,-0.29 -2.50,-0.59 -2.43,-0.89 -2.29,-1.17 -2.14,-1.45 -1.94,-1.69 -1.73,-1.92 -1.48,-2.10 -1.22,-2.28 -0.93,-2.40 -0.64,-2.51 -0.33,-2.55 -0.02,-2.59 0.28,-2.55 0.59,-2.52 0.89,-2.41 1.18,-2.30 1.44,-2.13 1.70,-1.95 1.91,-1.72 2.12,-1.49 2.27,-1.21 2.41,-0.94 2.41,-0.94 L 2.41,-0.94 Z"></path></g><g transform="translate(76.90118088312946 26.840122019809257) rotate(348.88015124479483 1.6487751067316765 7.419487980292587)" stroke="none"><path fill="#f08c00" d="M 2.57,-0.13 Q 2.57,-0.13 2.65,0.82 2.74,1.78 3.01,2.91 3.28,4.05 3.52,5.17 3.76,6.29 4.06,7.42 4.37,8.55 5.50,11.58 6.64,14.61 6.59,15.15 6.53,15.69 6.31,16.18 6.09,16.68 5.72,17.08 5.35,17.48 4.88,17.74 4.40,18.00 3.87,18.09 3.33,18.19 2.80,18.10 2.26,18.02 1.78,17.78 1.30,17.53 0.92,17.14 0.54,16.75 0.31,16.26 0.07,15.77 0.01,15.23 -0.05,14.69 0.05,14.16 0.16,13.63 0.44,13.16 0.71,12.70 1.12,12.34 1.53,11.98 2.03,11.78 2.53,11.57 3.07,11.53 3.61,11.50 4.14,11.64 4.66,11.77 5.11,12.07 5.57,12.37 5.90,12.80 6.23,13.23 6.41,13.74 6.59,14.25 6.60,14.79 6.61,15.34 6.44,15.85 6.27,16.37 5.95,16.80 5.63,17.24 5.18,17.55 4.74,17.86 4.22,18.01 3.70,18.16 3.15,18.14 2.61,18.12 2.11,17.92 1.60,17.73 1.18,17.38 0.76,17.04 0.48,16.57 0.19,16.11 0.07,15.58 -0.04,15.06 -0.04,15.06 -0.04,15.06 -0.34,14.18 -0.64,13.30 -1.04,12.30 -1.44,11.29 -1.73,10.19 -2.02,9.08 -2.12,7.84 -2.23,6.59 -2.31,5.49 -2.39,4.38 -2.46,3.22 -2.54,2.05 -2.55,1.09 -2.57,0.13 -2.54,-0.17 -2.52,-0.48 -2.43,-0.77 -2.33,-1.07 -2.17,-1.33 -2.01,-1.60 -1.79,-1.82 -1.57,-2.03 -1.30,-2.19 -1.03,-2.35 -0.74,-2.44 -0.44,-2.53 -0.13,-2.55 0.17,-2.56 0.48,-2.50 0.78,-2.45 1.06,-2.32 1.34,-2.19 1.59,-1.99 1.83,-1.80 2.02,-1.56 2.21,-1.31 2.33,-1.03 2.46,-0.74 2.51,-0.44 2.57,-0.13 2.57,-0.13 L 2.57,-0.13 Z"></path></g><g transform="translate(84.03036853623655 35.43495442278237) rotate(348.88015124479483 -3.0629784002950373 -9.986848770087619)" stroke="none"><path fill="#f08c00" d="M -2.59,0 Q -2.59,0 -2.63,-0.82 -2.67,-1.65 -2.81,-2.91 -2.96,-4.17 -3.23,-5.23 -3.51,-6.28 -3.82,-7.53 -4.13,-8.77 -4.43,-9.86 -4.72,-10.96 -5.10,-12.09 -5.47,-13.23 -5.89,-14.28 -6.31,-15.32 -6.74,-16.34 -7.18,-17.35 -6.15,-16.86 -5.13,-16.36 -3.85,-16.95 -2.58,-17.54 -3.42,-15.41 -4.27,-13.27 -4.82,-13.05 -5.37,-12.84 -5.96,-12.81 -6.55,-12.79 -7.11,-12.95 -7.68,-13.11 -8.17,-13.45 -8.65,-13.78 -9.00,-14.26 -9.36,-14.73 -9.54,-15.29 -9.72,-15.85 -9.72,-16.44 -9.71,-17.03 -9.52,-17.59 -9.33,-18.14 -8.96,-18.61 -8.60,-19.08 -8.11,-19.40 -7.62,-19.73 -7.05,-19.88 -6.48,-20.04 -5.89,-20.00 -5.30,-19.96 -4.76,-19.74 -4.21,-19.51 -3.77,-19.13 -3.32,-18.74 -3.02,-18.23 -2.72,-17.73 -2.60,-17.15 -2.48,-16.57 -2.55,-15.99 -2.62,-15.40 -2.87,-14.87 -3.12,-14.33 -3.53,-13.91 -3.94,-13.49 -4.47,-13.21 -4.99,-12.94 -5.57,-12.85 -6.15,-12.76 -6.74,-12.86 -7.32,-12.96 -7.84,-13.24 -8.35,-13.53 -8.76,-13.96 -9.16,-14.39 -9.40,-14.93 -9.64,-15.47 -9.70,-16.05 -9.76,-16.64 -9.63,-17.21 -9.49,-17.79 -9.19,-18.29 -8.88,-18.79 -8.42,-19.17 -7.97,-19.55 -7.97,-19.55 -7.97,-19.55 -8.25,-19.90 -8.53,-20.25 -7.86,-21.30 -7.19,-22.34 -5.91,-22.97 -4.62,-23.59 -3.60,-23.23 -2.58,-22.87 -1.81,-22.04 -1.05,-21.21 -0.59,-20.01 -0.13,-18.80 0.23,-17.74 0.60,-16.68 0.96,-15.42 1.31,-14.16 1.57,-13.01 1.83,-11.86 2.03,-10.61 2.22,-9.36 2.37,-8.12 2.51,-6.88 2.63,-5.81 2.75,-4.74 2.71,-3.19 2.67,-1.65 2.63,-0.82 2.59,0 2.55,0.30 2.51,0.61 2.40,0.91 2.29,1.20 2.11,1.46 1.93,1.71 1.70,1.92 1.47,2.13 1.19,2.27 0.91,2.42 0.61,2.49 0.31,2.57 -0.00,2.57 -0.31,2.57 -0.61,2.49 -0.91,2.42 -1.19,2.27 -1.47,2.13 -1.70,1.92 -1.93,1.71 -2.11,1.46 -2.29,1.20 -2.40,0.91 -2.51,0.61 -2.55,0.30 -2.59,-0.00 -2.59,-0.00 L -2.59,0 Z"></path></g><g transform="translate(77.61521841135934 18.916846164752826) rotate(348.88015124479483 -0.9752276956919417 5.45302506360062)" stroke="none"><path d="M1.17 -0.45 C0.96 1.15, -0.09 10.04, -0.61 10.14 C-1.13 10.23, -1.78 0.52, -1.94 0.11 C-2.1 -0.3, -1.72 6.66, -1.55 7.67" stroke="none" stroke-width="0" fill="#ffec99" fill-rule="evenodd"></path><path fill="#f08c00" d="M 2.60,0 Q 2.60,0 2.61,1.25 2.62,2.51 2.76,4.05 2.89,5.60 3.17,6.99 3.46,8.37 3.63,9.48 3.81,10.59 3.82,10.72 3.83,10.86 3.79,11.23 3.75,11.60 3.62,11.95 3.50,12.31 3.29,12.62 3.08,12.93 2.80,13.18 2.52,13.43 2.19,13.61 1.86,13.79 1.50,13.89 1.14,13.98 0.76,13.98 0.39,13.99 0.02,13.90 -0.33,13.82 -0.67,13.65 -1.00,13.48 -1.29,13.23 -1.57,12.99 -1.79,12.68 -2.00,12.38 -2.14,12.03 -2.28,11.68 -2.33,11.31 -2.38,10.94 -2.96,9.51 -3.55,8.09 -4.05,6.49 -4.55,4.88 -5.03,3.67 -5.51,2.45 -5.61,2.27 -5.70,2.09 -5.81,1.70 -5.91,1.31 -5.93,0.91 -5.94,0.51 -5.85,0.12 -5.77,-0.26 -5.59,-0.62 -5.41,-0.98 -5.16,-1.28 -4.90,-1.59 -4.58,-1.83 -4.25,-2.06 -3.88,-2.22 -3.51,-2.37 -3.12,-2.43 -2.72,-2.49 -2.32,-2.45 -1.92,-2.41 -1.54,-2.28 -1.17,-2.15 -0.83,-1.93 -0.49,-1.71 -0.22,-1.42 0.04,-1.13 0.24,-0.78 0.43,-0.43 0.33,0.98 0.22,2.39 1.01,3.54 1.80,4.69 1.98,5.22 2.16,5.74 2.16,6.29 2.17,6.85 1.99,7.37 1.82,7.90 1.49,8.34 1.16,8.78 0.70,9.09 0.24,9.41 -0.28,9.56 -0.81,9.71 -1.36,9.68 -1.91,9.66 -2.43,9.45 -2.94,9.25 -3.37,8.90 -3.79,8.54 -4.08,8.07 -4.37,7.60 -4.49,7.06 -4.61,6.52 -4.56,5.97 -4.50,5.42 -4.27,4.92 -4.04,4.41 -3.66,4.01 -3.29,3.61 -2.80,3.34 -2.31,3.08 -1.77,2.99 -1.22,2.90 -0.68,2.98 -0.13,3.07 0.35,3.33 0.84,3.58 1.22,3.98 1.61,4.38 1.84,4.88 2.08,5.38 2.14,5.93 2.20,6.48 2.09,7.02 1.97,7.56 1.69,8.03 1.41,8.51 0.99,8.87 0.57,9.23 0.06,9.44 -0.45,9.65 -1.00,9.68 -1.55,9.71 -2.08,9.57 -2.62,9.42 -3.08,9.12 -3.54,8.81 -3.87,8.37 -4.21,7.93 -4.21,7.93 -4.21,7.93 -5.12,4.82 -6.02,1.71 -5.78,0.52 -5.54,-0.65 -5.62,0.71 -5.70,2.09 -5.81,1.70 -5.91,1.31 -5.93,0.91 -5.94,0.51 -5.85,0.12 -5.77,-0.26 -5.59,-0.62 -5.41,-0.98 -5.16,-1.28 -4.90,-1.59 -4.58,-1.83 -4.25,-2.06 -3.88,-2.22 -3.51,-2.37 -3.12,-2.43 -2.72,-2.49 -2.32,-2.45 -1.92,-2.41 -1.54,-2.28 -1.17,-2.15 -0.83,-1.93 -0.49,-1.71 -0.22,-1.42 0.04,-1.13 0.24,-0.78 0.43,-0.43 0.79,0.59 1.14,1.62 1.61,3.10 2.07,4.57 2.55,6.22 3.03,7.87 3.43,9.36 3.83,10.86 3.79,11.23 3.75,11.60 3.62,11.95 3.50,12.31 3.29,12.62 3.08,12.93 2.80,13.18 2.52,13.43 2.19,13.61 1.86,13.79 1.50,13.89 1.14,13.98 0.76,13.98 0.39,13.99 0.02,13.90 -0.33,13.82 -0.67,13.65 -1.00,13.48 -1.29,13.23 -1.57,12.99 -1.79,12.68 -2.00,12.38 -2.14,12.03 -2.28,11.68 -2.33,11.31 -2.38,10.94 -2.36,10.77 -2.35,10.59 -2.40,9.50 -2.44,8.41 -2.54,7.21 -2.63,6.00 -2.63,4.26 -2.62,2.51 -2.61,1.25 -2.60,0 -2.56,-0.31 -2.52,-0.62 -2.41,-0.91 -2.30,-1.21 -2.12,-1.46 -1.94,-1.72 -1.71,-1.93 -1.47,-2.14 -1.20,-2.28 -0.92,-2.43 -0.61,-2.51 -0.31,-2.58 0.00,-2.58 0.31,-2.58 0.61,-2.51 0.92,-2.43 1.20,-2.28 1.47,-2.14 1.71,-1.93 1.94,-1.72 2.12,-1.46 2.30,-1.21 2.41,-0.91 2.52,-0.62 2.56,-0.31 2.60,0.00 2.60,0.00 L 2.60,0 Z"></path></g><g transform="translate(95.92577751094566 67.48134260587364) rotate(348.88015124479483 3.572140839901877 -0.9869255026478356)" stroke="none"><path d="M0.27 -1.33 C0.8 -1.59, 1.25 -3.12, 1.92 -2.9 C2.58 -2.68, 3.94 -0.04, 4.25 -0.03 C4.56 -0.03, 3.27 -2.86, 3.78 -2.88 C4.29 -2.9, 6.71 0.17, 7.29 -0.16 C7.86 -0.49, 7.28 -5.03, 7.22 -4.85 C7.16 -4.67, 7.26 -0.18, 6.92 0.91" stroke="none" stroke-width="0" fill="#ffec99" fill-rule="evenodd"></path><path fill="#1e1e1e" d="M 1.92,-1.23 Q 1.92,-1.23 1.28,-1.50 0.63,-1.77 -0.50,-1.60 -1.65,-1.42 -1.41,-2.53 -1.18,-3.63 -0.17,-4.21 0.83,-4.79 2.04,-4.49 3.25,-4.19 4.04,-3.24 4.83,-2.29 3.15,-1.92 1.48,-1.56 1.41,-2.88 1.35,-4.19 2.31,-5.35 3.27,-6.50 4.81,-6.49 6.35,-6.47 7.26,-5.48 8.18,-4.48 6.90,-4.47 5.63,-4.47 4.61,-3.68 3.59,-2.89 3.90,-4.02 4.22,-5.15 5.32,-6.02 6.42,-6.90 8.18,-6.35 9.94,-5.79 10.49,-4.66 11.04,-3.52 10.97,-2.33 10.90,-1.13 10.53,0.21 10.15,1.56 10.05,2.14 9.96,2.72 9.68,3.24 9.41,3.76 8.98,4.16 8.55,4.57 8.02,4.81 7.49,5.06 6.90,5.12 6.32,5.19 5.75,5.06 5.17,4.93 4.67,4.63 4.16,4.33 3.78,3.88 3.40,3.43 3.19,2.89 2.97,2.34 2.94,1.75 2.90,1.17 3.06,0.60 3.22,0.03 3.55,-0.44 3.88,-0.93 4.35,-1.28 4.82,-1.64 5.37,-1.83 5.93,-2.02 6.52,-2.02 7.10,-2.02 7.66,-1.83 8.22,-1.64 8.69,-1.28 9.15,-0.93 9.48,-0.44 9.81,0.04 9.97,0.60 10.13,1.17 10.10,1.76 10.06,2.34 9.85,2.89 9.63,3.43 9.25,3.88 8.87,4.33 8.36,4.63 7.86,4.94 7.29,5.06 6.71,5.19 6.13,5.12 5.54,5.06 5.01,4.81 4.48,4.57 4.05,4.16 3.62,3.76 3.35,3.24 3.07,2.72 2.98,2.14 2.88,1.56 2.88,1.56 2.88,1.56 3.39,-0.80 3.91,-3.16 4.44,-2.15 4.98,-1.13 6.67,-0.59 8.37,-0.05 9.32,-0.60 10.28,-1.16 9.76,-0.05 9.24,1.04 7.52,1.62 5.80,2.19 4.74,1.75 3.69,1.30 3.13,0.07 2.56,-1.15 3.61,-0.69 4.66,-0.23 5.77,-0.65 6.88,-1.08 7.34,-2.12 7.81,-3.16 7.57,-2.11 7.33,-1.07 7.04,-0.04 6.74,0.99 5.52,2.12 4.29,3.25 3.06,3.13 1.83,3.02 1.20,1.72 0.57,0.42 1.67,0.08 2.76,-0.25 2.24,0.76 1.71,1.77 0.59,1.85 -0.53,1.94 -1.23,1.58 -1.92,1.23 -2.04,0.98 -2.16,0.73 -2.22,0.46 -2.28,0.19 -2.27,-0.08 -2.26,-0.35 -2.18,-0.62 -2.11,-0.88 -1.97,-1.12 -1.83,-1.36 -1.64,-1.56 -1.45,-1.76 -1.22,-1.91 -0.99,-2.06 -0.72,-2.15 -0.46,-2.24 -0.19,-2.26 0.08,-2.28 0.35,-2.24 0.62,-2.20 0.88,-2.09 1.13,-1.98 1.35,-1.82 1.57,-1.65 1.75,-1.44 1.92,-1.23 1.92,-1.23 L 1.92,-1.23 Z"></path></g><g transform="translate(96.13158760321727 67.2729452436921) rotate(348.88015124479483 4.732686424737281 2.747753286536067)" stroke="none"><path fill="#1e1e1e" d="M 1.58,-2.01 Q 1.58,-2.01 2.17,-1.61 2.76,-1.20 4.04,-0.17 5.32,0.85 6.30,1.63 7.29,2.41 8.39,3.35 9.49,4.30 10.35,5.22 11.21,6.14 9.77,5.78 8.32,5.43 7.25,6.42 6.18,7.40 6.08,6.23 5.98,5.05 5.75,3.98 5.53,2.91 5.40,1.70 5.27,0.49 5.23,-0.71 5.20,-1.93 5.11,-2.52 5.03,-3.10 5.13,-3.68 5.24,-4.25 5.53,-4.77 5.81,-5.28 6.24,-5.68 6.68,-6.07 7.22,-6.31 7.75,-6.55 8.34,-6.60 8.93,-6.65 9.50,-6.51 10.07,-6.38 10.57,-6.06 11.06,-5.75 11.44,-5.30 11.81,-4.84 12.01,-4.29 12.22,-3.74 12.24,-3.16 12.26,-2.57 12.09,-2.00 11.93,-1.44 11.59,-0.96 11.25,-0.48 10.77,-0.13 10.30,0.20 9.74,0.38 9.18,0.56 8.59,0.54 8.00,0.53 7.45,0.34 6.90,0.14 6.44,-0.22 5.98,-0.58 5.66,-1.07 5.34,-1.57 5.19,-2.14 5.04,-2.71 5.09,-3.29 5.13,-3.88 5.36,-4.42 5.58,-4.96 5.97,-5.40 6.36,-5.84 6.87,-6.13 7.38,-6.43 7.96,-6.54 8.53,-6.66 9.12,-6.58 9.70,-6.51 10.23,-6.25 10.76,-6.00 11.17,-5.58 11.59,-5.17 11.86,-4.65 12.12,-4.12 12.12,-4.12 12.12,-4.12 12.36,-1.27 12.59,1.57 12.72,2.72 12.85,3.86 12.86,5.17 12.88,6.48 12.78,7.54 12.69,8.60 12.25,9.61 11.82,10.61 10.05,11.16 8.28,11.71 7.23,11.00 6.18,10.29 5.45,9.27 4.73,8.25 4.00,7.45 3.27,6.66 2.46,5.82 1.65,4.98 0.57,3.97 -0.51,2.97 -1.04,2.49 -1.58,2.01 -1.80,1.80 -2.01,1.58 -2.17,1.31 -2.33,1.05 -2.43,0.75 -2.52,0.46 -2.54,0.15 -2.56,-0.15 -2.50,-0.45 -2.44,-0.76 -2.32,-1.04 -2.19,-1.32 -2.00,-1.57 -1.81,-1.81 -1.57,-2.00 -1.32,-2.19 -1.04,-2.32 -0.76,-2.44 -0.45,-2.50 -0.15,-2.56 0.15,-2.54 0.46,-2.52 0.75,-2.43 1.05,-2.33 1.31,-2.17 1.58,-2.01 1.58,-2.01 L 1.58,-2.01 Z"></path></g><g transform="translate(98.13300890927772 67.82695130020272) rotate(348.88015124479483 3.570293817750951 2.018795210968335)" stroke="none"><path d="M-0.86 -1.04 C0.75 -0.22, 7.63 6.02, 8.39 5.89 C9.15 5.75, 4.36 -1.62, 3.73 -1.84 C3.1 -2.06, 4.51 3.71, 4.62 4.56 C4.73 5.42, 5.16 4.33, 4.38 3.27 C3.6 2.22, 0.54 -1.1, -0.06 -1.75 C-0.67 -2.41, 0.71 -1.13, 0.74 -0.68" stroke="none" stroke-width="0" fill="#ffec99" fill-rule="evenodd"></path><path fill="#1e1e1e" d="M 1.78,-1.72 Q 1.78,-1.72 2.23,-1.32 2.69,-0.92 3.55,-0.23 4.41,0.45 5.41,0.95 6.40,1.46 5.38,2.51 4.35,3.55 3.30,2.98 2.25,2.41 1.59,1.14 0.93,-0.13 1.97,1.00 3.01,2.14 4.43,1.94 5.85,1.74 6.64,0.88 7.43,0.03 6.14,-0.00 4.84,-0.03 3.56,0.35 2.28,0.73 1.68,1.75 1.08,2.77 2.28,1.17 3.48,-0.42 2.69,1.11 1.90,2.65 2.51,4.23 3.12,5.82 2.20,5.24 1.29,4.66 0.22,3.84 -0.84,3.03 -1.70,2.88 -2.56,2.72 -2.85,2.37 -3.14,2.03 -3.34,1.62 -3.54,1.21 -3.63,0.77 -3.72,0.33 -3.71,-0.11 -3.70,-0.56 -3.58,-1.00 -3.45,-1.43 -3.23,-1.82 -3.01,-2.22 -2.70,-2.54 -2.39,-2.87 -2.01,-3.12 -1.63,-3.36 -1.21,-3.51 -0.78,-3.66 -0.33,-3.70 0.11,-3.74 0.56,-3.67 1.00,-3.60 1.42,-3.43 1.84,-3.26 2.20,-2.99 2.56,-2.72 3.00,-0.61 3.43,1.49 3.10,2.00 2.77,2.51 2.30,2.88 1.82,3.26 1.25,3.47 0.68,3.68 0.08,3.69 -0.52,3.70 -1.09,3.52 -1.67,3.34 -2.16,2.99 -2.65,2.63 -3.01,2.14 -3.36,1.64 -3.53,1.06 -3.71,0.48 -3.69,-0.11 -3.67,-0.72 -3.46,-1.28 -3.25,-1.85 -2.87,-2.32 -2.48,-2.79 -1.97,-3.12 -1.46,-3.44 -0.87,-3.58 -0.28,-3.73 0.31,-3.68 0.91,-3.62 1.47,-3.38 2.03,-3.14 2.47,-2.73 2.92,-2.33 3.22,-1.80 3.52,-1.27 3.63,-0.68 3.74,-0.08 3.65,0.51 3.57,1.11 3.30,1.65 3.03,2.19 2.60,2.62 2.17,3.05 1.62,3.31 1.08,3.58 0.48,3.66 -0.11,3.74 -0.71,3.62 -1.30,3.50 -1.83,3.20 -2.35,2.90 -2.76,2.45 -3.16,2.00 -3.40,1.44 -3.63,0.88 -3.68,0.28 -3.73,-0.32 -3.14,1.20 -2.56,2.72 -2.85,2.37 -3.14,2.03 -3.34,1.62 -3.54,1.22 -3.63,0.77 -3.72,0.33 -3.71,-0.11 -3.70,-0.56 -3.58,-0.99 -3.45,-1.43 -3.23,-1.82 -3.01,-2.22 -2.70,-2.54 -2.39,-2.87 -2.01,-3.12 -1.63,-3.36 -1.21,-3.51 -0.78,-3.66 -0.33,-3.70 0.11,-3.74 0.56,-3.67 1.00,-3.60 1.42,-3.43 1.84,-3.26 2.20,-2.99 2.56,-2.72 4.16,-2.00 5.75,-1.28 6.66,-0.66 7.57,-0.04 8.25,1.62 8.93,3.28 7.54,4.84 6.15,6.39 7.14,5.50 8.12,4.61 7.50,5.50 6.87,6.40 5.14,6.74 3.41,7.08 2.25,6.18 1.09,5.28 0.68,4.17 0.26,3.06 0.25,1.72 0.24,0.38 0.62,-1.16 0.99,-2.71 2.72,-3.65 4.45,-4.58 5.52,-4.14 6.59,-3.69 7.25,-2.60 7.91,-1.50 8.55,-0.40 9.19,0.69 9.73,1.87 10.26,3.06 10.32,4.16 10.37,5.27 9.33,6.54 8.28,7.80 7.15,8.06 6.01,8.32 5.03,7.85 4.06,7.38 3.11,6.63 2.16,5.87 1.34,5.18 0.52,4.50 -0.24,3.57 -1.02,2.65 -1.40,2.19 -1.78,1.72 -1.96,1.48 -2.14,1.24 -2.26,0.97 -2.38,0.69 -2.43,0.40 -2.48,0.10 -2.45,-0.19 -2.43,-0.49 -2.33,-0.77 -2.24,-1.05 -2.08,-1.31 -1.92,-1.56 -1.71,-1.77 -1.49,-1.98 -1.23,-2.13 -0.97,-2.28 -0.69,-2.36 -0.40,-2.44 -0.10,-2.46 0.19,-2.47 0.48,-2.41 0.78,-2.35 1.05,-2.22 1.32,-2.10 1.55,-1.91 1.78,-1.72 1.78,-1.72 L 1.78,-1.72 Z"></path></g><g transform="translate(96.50240688580533 62.23250458673459) rotate(348.88015124479483 0.020317243660244344 0.020317243660230133)" stroke="none"><path fill="#f08c00" d="M 2.12,-0.66 Q 2.12,-0.66 2.15,-0.13 2.18,0.40 1.96,0.88 1.74,1.36 1.32,1.69 0.91,2.02 0.38,2.12 -0.13,2.21 -0.64,2.05 -1.14,1.90 -1.52,1.52 -1.90,1.14 -2.05,0.64 -2.21,0.13 -2.12,-0.38 -2.02,-0.91 -1.69,-1.32 -1.36,-1.74 -0.88,-1.96 -0.39,-2.18 0.13,-2.15 0.66,-2.11 1.11,-1.84 1.57,-1.56 1.84,-1.11 L 2.12,-0.66 Z"></path></g><g transform="translate(96.73163194058822 62.393092119318055) rotate(348.88015124479483 0.000014941427053827283 0.000014941427053827283)" stroke="none"><path fill="#f08c00" d="M 1.57,-1.57 Q 1.57,-1.57 1.77,-1.27 1.98,-0.98 2.09,-0.64 2.20,-0.29 2.19,0.05 2.18,0.41 2.05,0.75 1.93,1.09 1.70,1.37 1.48,1.65 1.18,1.84 0.87,2.03 0.52,2.12 0.18,2.21 -0.17,2.18 -0.53,2.15 -0.86,2.01 -1.19,1.87 -1.46,1.63 -1.73,1.39 -1.90,1.07 -2.08,0.76 -2.15,0.41 -2.21,0.05 -2.17,-0.29 -2.12,-0.65 -1.96,-0.97 -1.80,-1.29 -1.54,-1.54 -1.29,-1.80 -0.97,-1.96 -0.65,-2.12 -0.29,-2.17 0.06,-2.21 0.41,-2.15 0.76,-2.08 1.07,-1.90 1.39,-1.73 1.63,-1.46 1.87,-1.19 2.01,-0.86 2.15,-0.53 2.18,-0.17 2.21,0.18 2.12,0.52 2.03,0.87 1.84,1.18 1.65,1.48 1.37,1.70 1.09,1.93 0.75,2.05 0.41,2.18 0.05,2.19 -0.30,2.20 -0.64,2.09 -0.98,1.98 -1.27,1.77 -1.57,1.56 -1.57,1.57 -1.57,1.57 -1.73,1.35 -1.90,1.14 -2.01,0.90 -2.12,0.66 -2.16,0.39 -2.21,0.13 -2.20,-0.13 -2.18,-0.40 -2.10,-0.65 -2.02,-0.91 -1.88,-1.14 -1.74,-1.36 -1.55,-1.55 -1.36,-1.74 -1.14,-1.88 -0.91,-2.02 -0.65,-2.10 -0.40,-2.18 -0.13,-2.20 0.13,-2.21 0.39,-2.16 0.66,-2.12 0.90,-2.01 1.14,-1.90 1.35,-1.73 1.57,-1.57 1.57,-1.57 L 1.57,-1.57 Z"></path></g><g transform="translate(92.22347199724035 64.06007996765914) rotate(348.88015124479483 -6.308196319482008 -23.98912369630071)" stroke="none"><path fill="#f08c00" d="M 0.99,2.11 Q 0.99,2.11 0.72,2.28 0.45,2.44 -0.14,2.68 -0.74,2.92 -1.04,2.94 -1.34,2.95 -1.64,2.89 -1.93,2.83 -2.20,2.70 -2.47,2.57 -2.71,2.38 -2.94,2.19 -3.12,1.95 -3.30,1.71 -3.42,1.43 -3.54,1.15 -3.59,0.86 -3.63,0.56 -3.61,0.26 -3.59,-0.03 -3.49,-0.31 -3.40,-0.60 -3.23,-0.85 -3.07,-1.11 -2.86,-1.32 -2.64,-1.52 -2.38,-1.68 -2.12,-1.83 -1.83,-1.91 -1.54,-1.99 -0.47,-2.11 0.60,-2.23 1.80,-2.77 3.01,-3.31 3.48,-3.36 3.94,-3.41 4.31,-3.37 4.67,-3.32 5.02,-3.19 5.36,-3.06 5.66,-2.85 5.97,-2.65 6.21,-2.37 6.46,-2.10 6.63,-1.77 6.80,-1.45 6.89,-1.09 6.98,-0.73 6.98,-0.36 6.98,-0.00 6.89,0.35 6.80,0.71 6.63,1.04 6.46,1.36 6.22,1.64 5.98,1.91 5.67,2.12 5.37,2.33 5.03,2.46 4.68,2.59 4.32,2.64 3.95,2.68 2.86,2.76 1.77,2.83 2.35,1.69 2.94,0.56 2.78,-0.71 2.63,-1.99 3.50,-1.05 4.38,-0.10 4.29,0.95 4.19,2.02 3.15,3.23 2.10,4.45 0.66,4.57 -0.77,4.69 -1.83,3.82 -2.90,2.95 -3.34,1.86 -3.78,0.76 -4.27,-0.19 -4.76,-1.14 -5.36,-2.12 -5.96,-3.10 -6.44,-4.12 -6.91,-5.15 -7.43,-6.24 -7.95,-7.34 -8.37,-8.40 -8.78,-9.46 -9.28,-10.48 -9.78,-11.51 -10.37,-12.92 -10.97,-14.34 -11.42,-15.65 -11.86,-16.96 -12.13,-18.01 -12.40,-19.06 -12.64,-20.17 -12.87,-21.27 -13.09,-22.42 -13.31,-23.56 -13.35,-24.67 -13.40,-25.78 -13.54,-27.19 -13.67,-28.59 -13.69,-29.66 -13.72,-30.73 -13.77,-32.16 -13.83,-33.59 -13.84,-34.93 -13.85,-36.27 -13.89,-37.36 -13.93,-38.44 -13.95,-39.53 -13.98,-40.63 -13.98,-41.76 -13.99,-42.89 -13.37,-44.63 -12.75,-46.37 -10.68,-46.46 -8.61,-46.55 -7.42,-45.02 -6.23,-43.50 -6.23,-42.16 -6.23,-40.83 -6.24,-39.34 -6.24,-37.84 -5.96,-36.46 -5.68,-35.09 -5.16,-33.91 -4.64,-32.73 -6.76,-32.66 -8.88,-32.58 -9.54,-33.57 -10.19,-34.56 -10.53,-35.77 -10.87,-36.99 -9.48,-37.36 -8.10,-37.74 -7.08,-38.24 -6.07,-38.74 -5.61,-37.71 -5.16,-36.67 -4.78,-35.53 -4.41,-34.38 -4.12,-33.43 -3.83,-32.48 -3.81,-32.03 -3.78,-31.58 -3.87,-31.14 -3.95,-30.70 -4.14,-30.29 -4.32,-29.89 -4.60,-29.54 -4.88,-29.19 -5.23,-28.91 -5.59,-28.64 -6.00,-28.46 -6.41,-28.28 -6.85,-28.20 -7.29,-28.12 -7.74,-28.15 -8.18,-28.18 -8.61,-28.32 -9.04,-28.46 -9.42,-28.69 -9.80,-28.92 -10.12,-29.24 -10.43,-29.56 -10.66,-29.95 -10.89,-30.33 -11.02,-30.76 -11.15,-31.19 -11.43,-32.28 -11.70,-33.37 -12.03,-34.63 -12.37,-35.88 -12.46,-36.27 -12.55,-36.67 -12.57,-37.12 -12.60,-37.57 -12.52,-38.02 -12.43,-38.46 -12.25,-38.87 -12.06,-39.29 -11.78,-39.64 -11.50,-40.00 -11.14,-40.28 -10.79,-40.56 -10.37,-40.74 -9.96,-40.92 -9.51,-41.01 -9.07,-41.09 -8.62,-41.06 -8.17,-41.03 -7.73,-40.89 -7.30,-40.76 -6.91,-40.52 -6.53,-40.29 -6.21,-39.97 -5.89,-39.65 -5.66,-39.26 -5.42,-38.87 -5.29,-38.44 -5.16,-38.01 -5.12,-36.94 -5.09,-35.86 -4.82,-34.60 -4.55,-33.34 -4.16,-31.93 -3.77,-30.53 -3.39,-29.19 -3.01,-27.84 -2.67,-26.54 -2.32,-25.24 -2.03,-24.20 -1.75,-23.15 -1.37,-22.15 -0.99,-21.15 -0.63,-20.01 -0.27,-18.88 -0.73,-16.84 -1.19,-14.79 -2.03,-14.15 -2.88,-13.51 -4.02,-13.51 -5.16,-13.51 -6.18,-14.03 -7.19,-14.55 -7.96,-16.12 -8.72,-17.69 -8.97,-19.23 -9.21,-20.78 -9.36,-22.28 -9.51,-23.78 -9.65,-25.06 -9.79,-26.34 -9.94,-27.20 -10.09,-28.05 -10.07,-28.50 -10.05,-28.95 -9.93,-29.38 -9.80,-29.82 -9.58,-30.20 -9.35,-30.59 -9.04,-30.92 -8.73,-31.24 -8.35,-31.48 -7.97,-31.72 -7.54,-31.86 -7.11,-32.00 -6.66,-32.04 -6.22,-32.07 -5.77,-32.00 -5.33,-31.93 -4.92,-31.75 -4.50,-31.57 -4.14,-31.30 -3.79,-31.03 -3.50,-30.68 -3.22,-30.34 -3.03,-29.93 -2.83,-29.52 -2.74,-29.08 -2.66,-28.64 -2.65,-27.47 -2.64,-26.30 -2.65,-24.82 -2.65,-23.34 -2.65,-22.15 -2.64,-20.95 -6.01,-20.30 -9.38,-19.65 -9.56,-21.20 -9.73,-22.75 -9.67,-23.95 -9.61,-25.15 -9.61,-26.24 -9.60,-27.34 -9.15,-28.80 -8.70,-30.26 -7.57,-31.05 -6.43,-31.84 -4.65,-31.39 -2.86,-30.93 -2.18,-29.85 -1.51,-28.76 -1.31,-27.65 -1.12,-26.54 -0.97,-25.45 -0.81,-24.36 0.08,-23.75 0.98,-23.14 1.67,-22.01 2.35,-20.88 2.80,-19.74 3.25,-18.60 3.71,-17.39 4.16,-16.18 4.29,-15.07 4.42,-13.96 4.47,-12.81 4.52,-11.67 4.61,-10.39 4.70,-9.12 4.71,-7.97 4.73,-6.81 4.59,-6.93 4.45,-7.05 4.61,-6.60 4.77,-6.16 4.83,-5.69 4.88,-5.22 4.81,-4.76 4.75,-4.29 4.58,-3.85 4.41,-3.41 4.14,-3.03 3.86,-2.64 3.51,-2.33 3.15,-2.02 2.73,-1.81 2.31,-1.60 1.85,-1.49 1.39,-1.38 0.92,-1.39 0.45,-1.39 -0.00,-1.51 -0.45,-1.63 -0.87,-1.85 -1.28,-2.08 -1.63,-2.39 -1.98,-2.71 -2.25,-3.10 -2.51,-3.49 -2.66,-4.85 -2.82,-6.21 -3.19,-7.76 -3.56,-9.31 -3.84,-10.63 -4.12,-11.95 -4.60,-13.07 -5.09,-14.20 -5.61,-15.20 -6.13,-16.20 -6.63,-17.22 -7.14,-18.25 -7.76,-19.19 -8.39,-20.14 -9.05,-21.12 -9.71,-22.10 -10.33,-23.03 -10.94,-23.96 -11.66,-25.13 -12.38,-26.30 -12.95,-27.46 -13.53,-28.62 -13.86,-29.68 -14.20,-30.73 -14.67,-31.89 -15.14,-33.06 -15.59,-34.03 -16.04,-35.01 -16.43,-36.11 -16.82,-37.20 -17.18,-38.34 -17.54,-39.47 -17.91,-40.59 -18.27,-41.72 -18.57,-42.89 -18.87,-44.07 -19.07,-45.06 -19.27,-46.04 -19.32,-46.51 -19.37,-46.98 -19.31,-47.44 -19.25,-47.91 -19.07,-48.35 -18.90,-48.78 -18.63,-49.17 -18.36,-49.55 -18.00,-49.86 -17.64,-50.17 -17.23,-50.38 -16.81,-50.59 -16.35,-50.70 -15.89,-50.81 -15.42,-50.80 -14.95,-50.79 -14.49,-50.67 -14.04,-50.56 -13.63,-50.33 -13.21,-50.11 -12.86,-49.79 -12.52,-49.48 -12.25,-49.08 -11.99,-48.69 -11.83,-48.25 -11.67,-47.81 -11.67,-46.65 -11.66,-45.49 -11.67,-44.43 -11.68,-43.36 -11.29,-42.36 -10.91,-41.35 -10.45,-40.39 -9.99,-39.43 -9.49,-37.99 -8.98,-36.55 -8.75,-35.42 -8.53,-34.28 -8.35,-33.10 -8.17,-31.92 -8.06,-31.22 -7.95,-30.51 -7.93,-30.04 -7.90,-29.57 -7.99,-29.10 -8.08,-28.63 -8.27,-28.20 -8.47,-27.77 -8.77,-27.40 -9.06,-27.03 -9.44,-26.74 -9.81,-26.45 -10.25,-26.25 -10.68,-26.06 -11.15,-25.98 -11.61,-25.90 -12.09,-25.93 -12.56,-25.96 -13.01,-26.10 -13.47,-26.25 -13.87,-26.49 -14.27,-26.74 -14.61,-27.08 -14.94,-27.42 -15.19,-27.82 -15.43,-28.23 -15.57,-28.69 -15.71,-29.14 -15.22,-30.30 -14.74,-31.45 -15.59,-32.32 -16.43,-33.18 -16.71,-34.30 -16.99,-35.42 -17.46,-36.48 -17.94,-37.55 -18.39,-38.66 -18.85,-39.78 -19.28,-40.91 -19.72,-42.05 -19.91,-43.10 -20.10,-44.16 -20.31,-45.26 -20.51,-46.37 -20.28,-47.71 -20.05,-49.05 -19.30,-49.88 -18.55,-50.70 -17.55,-51.22 -16.54,-51.74 -15.41,-51.99 -14.29,-52.23 -13.11,-52.34 -11.93,-52.44 -10.85,-52.61 -9.78,-52.77 -10.40,-50.85 -11.02,-48.93 -10.48,-47.71 -9.93,-46.49 -8.92,-45.95 -7.90,-45.42 -9.04,-46.96 -10.18,-48.50 -10.07,-48.86 -9.96,-49.22 -9.64,-48.86 -9.32,-48.51 -9.10,-48.09 -8.87,-47.67 -8.76,-47.20 -8.64,-46.74 -8.64,-46.26 -8.64,-45.79 -8.75,-45.32 -8.86,-44.86 -9.08,-44.44 -9.30,-44.01 -9.61,-43.66 -9.93,-43.30 -10.32,-43.02 -10.71,-42.75 -11.16,-42.58 -11.60,-42.41 -12.07,-42.35 -12.55,-42.29 -13.02,-42.34 -13.49,-42.40 -13.94,-42.57 -14.39,-42.73 -14.78,-43.00 -15.17,-43.27 -15.69,-43.99 -16.21,-44.71 -16.36,-45.33 -16.51,-45.96 -16.45,-46.59 -16.40,-47.23 -16.14,-47.82 -15.88,-48.40 -15.45,-48.87 -15.02,-49.35 -14.46,-49.66 -13.90,-49.97 -13.27,-50.08 -12.64,-50.20 -12.01,-50.11 -11.37,-50.02 -10.80,-49.73 -10.23,-49.44 -9.78,-48.98 -9.33,-48.53 -9.05,-47.95 -8.78,-47.37 -8.69,-46.74 -8.61,-46.10 -8.74,-45.48 -8.86,-44.85 -9.18,-44.30 -9.50,-43.74 -9.98,-43.32 -10.46,-42.89 -11.05,-42.65 -11.64,-42.40 -12.28,-42.35 -12.92,-42.30 -13.54,-42.46 -14.16,-42.62 -14.70,-42.97 -15.23,-43.32 -15.63,-43.82 -16.03,-44.33 -16.24,-44.93 -16.46,-45.53 -16.47,-46.17 -16.48,-46.81 -16.29,-47.42 -16.09,-48.03 -15.72,-48.55 -15.34,-49.06 -14.82,-49.43 -14.29,-49.80 -13.68,-49.99 -13.07,-50.17 -12.43,-50.15 -11.79,-50.12 -11.19,-49.90 -10.59,-49.67 -10.09,-49.27 -9.60,-48.86 -9.78,-49.04 -9.96,-49.22 -9.64,-48.86 -9.32,-48.51 -9.10,-48.09 -8.87,-47.67 -8.76,-47.20 -8.64,-46.74 -8.64,-46.26 -8.64,-45.79 -8.75,-45.32 -8.86,-44.86 -9.08,-44.44 -9.30,-44.01 -9.61,-43.66 -9.93,-43.30 -10.32,-43.02 -10.71,-42.75 -11.16,-42.58 -11.60,-42.41 -12.07,-42.35 -12.55,-42.29 -13.02,-42.34 -13.49,-42.40 -13.94,-42.57 -14.39,-42.73 -14.78,-43.00 -15.17,-43.27 -15.23,-42.87 -15.29,-42.47 -15.92,-43.43 -16.55,-44.39 -16.64,-45.51 -16.74,-46.63 -16.21,-47.80 -15.68,-48.98 -14.84,-49.91 -14.00,-50.84 -12.85,-51.57 -11.71,-52.29 -10.65,-52.71 -9.59,-53.12 -8.40,-53.21 -7.22,-53.30 -6.25,-52.76 -5.29,-52.23 -4.74,-50.99 -4.18,-49.76 -4.77,-47.91 -5.35,-46.05 -6.37,-45.64 -7.39,-45.22 -8.51,-44.99 -9.62,-44.76 -10.73,-44.66 -11.83,-44.56 -13.01,-44.36 -14.18,-44.15 -13.38,-45.34 -12.57,-46.54 -12.35,-45.26 -12.12,-43.99 -11.72,-42.96 -11.32,-41.94 -10.80,-40.95 -10.27,-39.96 -9.86,-38.74 -9.45,-37.52 -9.17,-36.35 -8.88,-35.19 -8.60,-34.12 -8.31,-33.05 -8.10,-31.93 -7.89,-30.81 -8.39,-29.51 -8.88,-28.21 -8.42,-29.37 -7.95,-30.52 -7.93,-30.04 -7.90,-29.57 -7.99,-29.10 -8.08,-28.64 -8.27,-28.20 -8.47,-27.77 -8.77,-27.40 -9.06,-27.03 -9.44,-26.74 -9.81,-26.45 -10.24,-26.25 -10.68,-26.06 -11.15,-25.98 -11.61,-25.90 -12.09,-25.93 -12.56,-25.96 -13.01,-26.10 -13.46,-26.25 -13.87,-26.49 -14.27,-26.74 -14.61,-27.08 -14.94,-27.42 -15.18,-27.82 -15.43,-28.23 -15.57,-28.69 -15.71,-29.14 -15.78,-29.66 -15.86,-30.17 -16.04,-31.34 -16.22,-32.50 -16.39,-33.62 -16.56,-34.75 -17.01,-35.85 -17.46,-36.96 -18.01,-38.12 -18.57,-39.28 -18.89,-40.31 -19.21,-41.33 -19.35,-42.57 -19.48,-43.81 -19.38,-44.93 -19.27,-46.04 -19.32,-46.51 -19.37,-46.98 -19.31,-47.44 -19.25,-47.91 -19.07,-48.35 -18.90,-48.78 -18.63,-49.17 -18.36,-49.55 -18.00,-49.86 -17.64,-50.17 -17.23,-50.38 -16.81,-50.59 -16.35,-50.70 -15.89,-50.81 -15.42,-50.80 -14.95,-50.79 -14.49,-50.67 -14.04,-50.56 -13.63,-50.33 -13.21,-50.11 -12.86,-49.79 -12.52,-49.48 -12.25,-49.09 -11.99,-48.69 -11.83,-48.25 -11.67,-47.81 -11.73,-47.99 -11.78,-48.17 -11.57,-47.08 -11.35,-46.00 -11.07,-44.86 -10.78,-43.73 -10.43,-42.60 -10.08,-41.47 -9.69,-40.22 -9.30,-38.97 -8.90,-37.97 -8.50,-36.97 -8.00,-35.96 -7.49,-34.95 -7.14,-33.79 -6.79,-32.63 -6.40,-31.63 -6.02,-30.63 -5.34,-29.49 -4.67,-28.36 -3.94,-27.29 -3.21,-26.21 -2.46,-25.13 -1.70,-24.05 -1.08,-23.07 -0.46,-22.09 0.04,-21.04 0.54,-20.00 1.12,-18.87 1.69,-17.74 2.22,-16.60 2.74,-15.46 3.13,-14.18 3.53,-12.89 3.86,-11.42 4.19,-9.96 4.44,-8.81 4.69,-7.66 4.74,-6.05 4.79,-4.44 4.62,-5.74 4.45,-7.05 4.61,-6.60 4.77,-6.16 4.83,-5.69 4.88,-5.22 4.81,-4.76 4.75,-4.29 4.58,-3.85 4.41,-3.41 4.14,-3.03 3.86,-2.64 3.51,-2.33 3.15,-2.02 2.73,-1.81 2.31,-1.60 1.85,-1.49 1.39,-1.38 0.92,-1.39 0.45,-1.39 -0.00,-1.51 -0.45,-1.63 -0.87,-1.85 -1.28,-2.08 -1.63,-2.39 -1.98,-2.71 -2.25,-3.10 -2.51,-3.49 -2.52,-3.51 -2.54,-3.53 -2.80,-4.64 -3.06,-5.75 -3.06,-6.87 -3.06,-7.99 -3.12,-9.09 -3.18,-10.19 -3.27,-11.39 -3.36,-12.60 -3.51,-13.81 -3.66,-15.02 -4.04,-16.04 -4.41,-17.05 -4.93,-17.99 -5.45,-18.94 -6.39,-19.81 -7.33,-20.67 -7.84,-21.91 -8.35,-23.15 -8.02,-24.21 -7.68,-25.28 -5.95,-25.01 -4.22,-24.75 -3.19,-26.03 -2.16,-27.31 -2.17,-26.14 -2.18,-24.97 -2.21,-23.72 -2.24,-22.47 -2.26,-21.34 -2.27,-20.20 -2.59,-19.10 -2.91,-17.99 -5.32,-16.93 -7.73,-15.87 -8.76,-16.87 -9.79,-17.87 -9.94,-19.08 -10.09,-20.29 -10.10,-21.43 -10.10,-22.57 -10.11,-23.93 -10.11,-25.28 -10.10,-26.67 -10.09,-28.05 -10.07,-28.50 -10.05,-28.95 -9.93,-29.38 -9.80,-29.82 -9.58,-30.20 -9.35,-30.59 -9.04,-30.92 -8.73,-31.24 -8.35,-31.48 -7.97,-31.72 -7.54,-31.86 -7.11,-32.00 -6.67,-32.04 -6.22,-32.07 -5.77,-32.00 -5.33,-31.93 -4.92,-31.75 -4.50,-31.57 -4.14,-31.30 -3.79,-31.03 -3.50,-30.68 -3.22,-30.34 -3.03,-29.93 -2.83,-29.52 -2.74,-29.08 -2.66,-28.64 -2.58,-28.24 -2.51,-27.84 -2.37,-26.72 -2.24,-25.60 -2.11,-24.44 -1.99,-23.29 -1.98,-21.66 -1.96,-20.03 -3.29,-20.47 -4.62,-20.90 -5.67,-20.21 -6.73,-19.53 -7.23,-18.56 -7.74,-17.58 -8.11,-18.64 -8.48,-19.70 -8.86,-20.91 -9.23,-22.12 -9.49,-23.16 -9.75,-24.21 -10.10,-25.42 -10.46,-26.64 -10.86,-28.04 -11.26,-29.44 -11.65,-30.75 -12.03,-32.05 -12.28,-33.10 -12.54,-34.14 -12.54,-35.40 -12.55,-36.67 -12.57,-37.12 -12.60,-37.57 -12.52,-38.02 -12.43,-38.46 -12.25,-38.87 -12.06,-39.29 -11.78,-39.64 -11.50,-40.00 -11.14,-40.28 -10.79,-40.56 -10.37,-40.74 -9.96,-40.92 -9.51,-41.01 -9.07,-41.09 -8.62,-41.06 -8.17,-41.03 -7.73,-40.89 -7.30,-40.76 -6.91,-40.52 -6.53,-40.29 -6.21,-39.97 -5.89,-39.65 -5.66,-39.26 -5.42,-38.87 -5.29,-38.44 -5.16,-38.01 -5.01,-37.39 -4.86,-36.77 -4.60,-35.74 -4.33,-34.71 -4.08,-33.59 -3.83,-32.48 -3.81,-32.03 -3.78,-31.58 -3.87,-31.14 -3.95,-30.70 -4.14,-30.30 -4.32,-29.89 -4.60,-29.54 -4.88,-29.19 -5.23,-28.91 -5.59,-28.64 -6.00,-28.46 -6.41,-28.28 -6.85,-28.20 -7.29,-28.12 -7.74,-28.15 -8.18,-28.18 -8.61,-28.32 -9.04,-28.46 -9.42,-28.69 -9.80,-28.92 -10.12,-29.24 -10.43,-29.56 -10.66,-29.95 -10.89,-30.33 -11.02,-30.76 -11.15,-31.19 -11.32,-31.71 -11.49,-32.23 -11.85,-33.33 -12.22,-34.43 -12.46,-35.96 -12.70,-37.49 -12.75,-39.28 -12.80,-41.07 -12.38,-42.05 -11.96,-43.03 -10.90,-43.59 -9.83,-44.14 -8.66,-44.24 -7.49,-44.33 -6.50,-43.66 -5.52,-43.00 -4.88,-41.78 -4.23,-40.57 -3.81,-39.46 -3.38,-38.36 -3.10,-37.08 -2.81,-35.81 -2.77,-34.61 -2.72,-33.40 -2.74,-32.17 -2.75,-30.94 -2.98,-29.68 -3.22,-28.42 -3.95,-27.57 -4.68,-26.72 -6.60,-26.45 -8.52,-26.18 -9.69,-27.29 -10.85,-28.39 -11.32,-29.42 -11.79,-30.44 -12.29,-31.56 -12.78,-32.67 -13.15,-33.98 -13.53,-35.29 -13.66,-36.49 -13.79,-37.70 -13.81,-39.26 -13.84,-40.82 -13.85,-42.03 -13.86,-43.24 -12.70,-42.05 -11.54,-40.86 -9.51,-40.93 -7.48,-41.01 -6.93,-42.26 -6.37,-43.51 -6.38,-42.40 -6.38,-41.28 -6.37,-40.15 -6.36,-39.02 -6.32,-37.65 -6.27,-36.28 -6.27,-35.05 -6.26,-33.82 -6.21,-32.70 -6.15,-31.58 -6.13,-30.39 -6.10,-29.20 -6.00,-28.11 -5.90,-27.03 -5.85,-25.94 -5.80,-24.86 -5.64,-23.77 -5.47,-22.68 -5.21,-21.49 -4.96,-20.31 -4.60,-19.08 -4.25,-17.86 -3.77,-16.66 -3.28,-15.46 -2.82,-14.47 -2.36,-13.47 -1.91,-12.44 -1.45,-11.41 -1.01,-10.32 -0.56,-9.23 -0.10,-8.03 0.36,-6.83 0.94,-5.80 1.52,-4.77 1.91,-3.76 2.30,-2.76 2.71,-1.65 3.11,-0.54 2.20,-1.23 1.30,-1.91 0.12,-1.65 -1.04,-1.39 -1.57,0.29 -2.11,1.98 -1.29,2.93 -0.46,3.88 -1.64,2.83 -2.82,1.79 -3.05,0.34 -3.29,-1.10 -2.62,-1.94 -1.96,-2.78 -0.09,-3.16 1.77,-3.55 2.86,-3.48 3.94,-3.41 4.31,-3.37 4.67,-3.32 5.02,-3.19 5.36,-3.06 5.66,-2.85 5.97,-2.65 6.21,-2.37 6.46,-2.10 6.63,-1.77 6.80,-1.45 6.89,-1.09 6.98,-0.73 6.98,-0.36 6.98,-0.00 6.89,0.35 6.80,0.71 6.63,1.04 6.46,1.36 6.22,1.64 5.98,1.91 5.67,2.12 5.37,2.33 5.03,2.46 4.68,2.59 4.32,2.64 3.95,2.68 3.93,2.77 3.90,2.85 2.66,3.05 1.42,3.26 0.33,3.09 -0.74,2.92 -1.04,2.94 -1.34,2.95 -1.64,2.89 -1.93,2.83 -2.20,2.70 -2.47,2.57 -2.71,2.38 -2.94,2.19 -3.12,1.95 -3.30,1.71 -3.42,1.43 -3.54,1.15 -3.59,0.86 -3.63,0.56 -3.61,0.26 -3.59,-0.03 -3.49,-0.31 -3.40,-0.60 -3.23,-0.85 -3.07,-1.11 -2.86,-1.32 -2.64,-1.52 -2.38,-1.67 -2.12,-1.83 -1.83,-1.91 -1.54,-1.99 -1.56,-1.95 -1.59,-1.91 -1.29,-2.01 -0.99,-2.11 -0.72,-2.20 -0.45,-2.29 -0.17,-2.31 0.10,-2.33 0.38,-2.28 0.65,-2.24 0.91,-2.12 1.17,-2.01 1.40,-1.84 1.62,-1.67 1.80,-1.45 1.97,-1.24 2.09,-0.98 2.21,-0.73 2.27,-0.45 2.32,-0.17 2.31,0.10 2.30,0.38 2.22,0.65 2.14,0.92 2.00,1.16 1.86,1.41 1.66,1.61 1.46,1.81 1.23,1.96 0.99,2.11 0.99,2.11 L 0.99,2.11 Z"></path></g><g transform="translate(75.35501996400922 19.460368675972234) rotate(348.88015124479483 0.000014941427053827283 0.000014941427053827283)" stroke="none"><path fill="#f08c00" d="M 1.57,-1.57 Q 1.57,-1.57 1.77,-1.27 1.98,-0.98 2.09,-0.64 2.20,-0.29 2.19,0.05 2.18,0.41 2.05,0.75 1.93,1.09 1.70,1.37 1.48,1.65 1.18,1.84 0.87,2.03 0.52,2.12 0.18,2.21 -0.17,2.18 -0.53,2.15 -0.86,2.01 -1.19,1.87 -1.46,1.63 -1.73,1.39 -1.90,1.07 -2.08,0.76 -2.15,0.41 -2.21,0.05 -2.17,-0.29 -2.12,-0.65 -1.96,-0.97 -1.80,-1.29 -1.54,-1.54 -1.29,-1.80 -0.97,-1.96 -0.65,-2.12 -0.29,-2.17 0.06,-2.21 0.41,-2.15 0.76,-2.08 1.07,-1.90 1.39,-1.73 1.63,-1.46 1.87,-1.19 2.01,-0.86 2.15,-0.53 2.18,-0.17 2.21,0.18 2.12,0.52 2.03,0.87 1.84,1.18 1.65,1.48 1.37,1.70 1.09,1.93 0.75,2.05 0.41,2.18 0.05,2.19 -0.30,2.20 -0.64,2.09 -0.98,1.98 -1.27,1.77 -1.57,1.56 -1.57,1.57 -1.57,1.57 -1.73,1.35 -1.90,1.14 -2.01,0.90 -2.12,0.66 -2.16,0.39 -2.21,0.13 -2.20,-0.13 -2.18,-0.40 -2.10,-0.65 -2.02,-0.91 -1.88,-1.14 -1.74,-1.36 -1.55,-1.55 -1.36,-1.74 -1.14,-1.88 -0.91,-2.02 -0.65,-2.10 -0.40,-2.18 -0.13,-2.20 0.13,-2.21 0.39,-2.16 0.66,-2.12 0.90,-2.01 1.14,-1.90 1.35,-1.73 1.57,-1.57 1.57,-1.57 L 1.57,-1.57 Z"></path></g><g transform="translate(80.60408237707702 22.791558954669767) rotate(348.88015124479483 -0.83916373057329 -0.11574672145837894)" stroke="none"><path d="M-0.37 0.42 C-1.03 0.59, -3.18 0.28, -2.92 0.27 C-2.67 0.27, 0.47 0.63, 1.17 0.37" stroke="none" stroke-width="0" fill="#ffec99" fill-rule="evenodd"></path><path fill="#f08c00" d="M 2.12,-0.66 Q 2.12,-0.66 2.15,-0.13 2.18,0.40 1.96,0.88 1.74,1.36 1.32,1.69 0.91,2.02 0.38,2.12 -0.13,2.21 -0.64,2.05 -1.14,1.90 -1.52,1.52 -1.90,1.14 -2.05,0.64 -2.21,0.13 -2.12,-0.38 -2.02,-0.91 -1.69,-1.32 -1.36,-1.74 -0.88,-1.96 -0.39,-2.18 0.13,-2.15 0.66,-2.11 1.11,-1.84 1.57,-1.56 1.84,-1.11 L 2.12,-0.66 Z"></path></g><g transform="translate(69.7155904194189 17.973813699642506) rotate(348.88015124479483 3.23659848248262 -3.6035402164677066)" stroke="none"><path d="M0.69 0.52 C0.75 -0.58, -2.04 -4.79, -0.69 -6.16 C0.67 -7.53, 7.23 -8.53, 8.81 -7.7 C10.39 -6.86, 9.85 -2.25, 8.78 -1.15 C7.72 -0.05, 3.56 -0.64, 2.43 -1.1 C1.29 -1.57, 2.37 -3.01, 1.97 -3.93 C1.57 -4.85, -0.83 -6.38, 0.04 -6.62 C0.91 -6.87, 6.08 -5.76, 7.18 -5.38 C8.27 -5.01, 7.54 -4.98, 6.6 -4.38 C5.66 -3.79, 2.23 -1.78, 1.56 -1.81 C0.9 -1.85, 2.2 -3.96, 2.62 -4.59" stroke="none" stroke-width="0" fill="#ffec99" fill-rule="evenodd"></path><path fill="#e03131" d="M -2.47,0.45 Q -2.47,0.45 -2.68,-0.41 -2.89,-1.29 -3.24,-2.37 -3.60,-3.45 -4.04,-4.62 -4.48,-5.78 -4.17,-7.19 -3.85,-8.60 -2.92,-9.28 -1.99,-9.96 -0.87,-10.12 0.25,-10.28 1.35,-10.21 2.46,-10.13 3.61,-10.25 4.76,-10.37 5.89,-10.55 7.02,-10.73 8.10,-10.35 9.19,-9.98 10.16,-8.69 11.14,-7.40 11.18,-6.18 11.22,-4.97 11.34,-3.80 11.45,-2.64 10.62,-3.67 9.78,-4.71 10.36,-2.53 10.94,-0.35 9.80,0.87 8.66,2.11 7.39,2.31 6.11,2.52 4.91,2.59 3.70,2.65 1.16,1.93 -1.38,1.20 -2.04,0.21 -2.71,-0.78 -2.58,-1.89 -2.46,-3.00 -1.15,-2.92 0.15,-2.84 1.27,-3.64 2.39,-4.43 2.53,-5.89 2.68,-7.34 1.86,-8.52 1.04,-9.70 2.19,-9.61 3.34,-9.52 4.43,-9.53 5.53,-9.53 7.16,-8.80 8.78,-8.06 9.40,-7.16 10.02,-6.25 10.07,-5.12 10.11,-3.98 9.79,-2.75 9.47,-1.51 8.34,-0.48 7.21,0.53 6.06,0.81 4.90,1.09 4.96,0.15 5.01,-0.79 4.55,-0.67 4.09,-0.55 3.62,-0.55 3.14,-0.55 2.68,-0.66 2.23,-0.77 1.81,-0.99 1.39,-1.21 1.03,-1.52 0.67,-1.83 0.40,-2.22 0.13,-2.61 -0.03,-3.05 -0.20,-3.49 -0.26,-3.96 -0.32,-4.43 -0.26,-4.90 -0.21,-5.37 -0.04,-5.81 0.11,-6.25 0.38,-6.64 0.65,-7.03 1.00,-7.35 1.35,-7.67 1.77,-7.89 2.19,-8.11 1.12,-7.12 0.05,-6.12 0.41,-6.65 0.77,-7.17 1.28,-7.55 1.79,-7.93 2.39,-8.13 2.99,-8.32 3.63,-8.32 4.26,-8.31 4.86,-8.11 5.46,-7.90 5.97,-7.51 6.47,-7.12 6.82,-6.59 7.17,-6.07 7.34,-5.45 7.50,-4.84 7.46,-4.21 7.42,-3.57 7.18,-2.99 6.94,-2.40 6.53,-1.92 6.11,-1.44 5.57,-1.11 5.02,-0.79 4.40,-0.66 3.78,-0.53 3.15,-0.60 2.52,-0.68 1.94,-0.95 1.37,-1.22 0.91,-1.66 0.46,-2.10 0.16,-2.66 -0.12,-3.22 -0.22,-3.85 -0.32,-4.48 -0.21,-5.11 -0.10,-5.73 0.19,-6.29 0.49,-6.85 0.96,-7.28 1.42,-7.71 2.00,-7.97 2.58,-8.24 3.21,-8.30 3.84,-8.36 4.46,-8.22 5.08,-8.08 5.62,-7.75 6.16,-7.42 6.57,-6.93 6.98,-6.44 7.21,-5.85 7.44,-5.26 7.47,-4.63 7.49,-3.99 6.25,-2.39 5.01,-0.79 4.55,-0.67 4.09,-0.56 3.62,-0.55 3.15,-0.55 2.69,-0.66 2.23,-0.77 1.81,-0.99 1.39,-1.21 1.03,-1.52 0.67,-1.83 0.40,-2.22 0.13,-2.61 -0.03,-3.05 -0.20,-3.49 -0.26,-3.96 -0.32,-4.43 -0.26,-4.90 -0.21,-5.37 -0.04,-5.81 0.11,-6.25 0.38,-6.64 0.65,-7.03 1.00,-7.35 1.35,-7.67 1.77,-7.89 2.19,-8.11 1.77,-7.17 1.36,-6.23 2.81,-6.47 4.26,-6.70 3.27,-5.96 2.29,-5.23 2.93,-4.20 3.56,-3.17 4.75,-2.45 5.94,-1.74 4.86,-1.74 3.77,-1.75 2.68,-1.80 1.60,-1.85 0.47,-2.03 -0.65,-2.20 -1.84,-2.71 -3.03,-3.21 -3.54,-4.20 -4.05,-5.20 -3.91,-6.70 -3.76,-8.21 -2.62,-9.03 -1.48,-9.85 -0.15,-9.87 1.18,-9.89 2.36,-8.96 3.55,-8.03 4.17,-7.02 4.79,-6.00 4.97,-4.64 5.15,-3.28 5.01,-2.09 4.86,-0.90 4.22,-1.85 3.57,-2.81 1.95,-3.67 0.33,-4.54 1.39,-4.67 2.45,-4.80 3.62,-4.81 4.80,-4.82 5.92,-4.95 7.04,-5.09 6.06,-3.89 5.08,-2.70 5.63,-0.58 6.19,1.53 5.22,0.29 4.25,-0.95 4.18,-2.13 4.12,-3.32 4.27,-4.45 4.41,-5.57 5.79,-4.64 7.16,-3.72 6.08,-3.60 5.01,-3.49 3.90,-3.54 2.80,-3.60 1.84,-4.20 0.89,-4.80 1.13,-5.97 1.37,-7.14 1.60,-6.00 1.83,-4.86 2.03,-3.54 2.24,-2.23 2.35,-1.34 2.47,-0.45 2.49,-0.15 2.51,0.14 2.46,0.44 2.40,0.74 2.28,1.02 2.15,1.30 1.97,1.54 1.78,1.78 1.54,1.96 1.30,2.15 1.02,2.28 0.75,2.40 0.45,2.46 0.15,2.51 -0.14,2.49 -0.45,2.47 -0.74,2.38 -1.03,2.29 -1.29,2.14 -1.55,1.98 -1.76,1.77 -1.98,1.55 -2.14,1.29 -2.29,1.03 -2.38,0.74 -2.47,0.45 -2.47,0.45 L -2.47,0.45 Z"></path></g><g transform="translate(70.48318901825635 17.797980787549193) rotate(348.88015124479483 4.340502054689466 -0.6513831452285785)" stroke="none"><path fill="#1e1e1e" d="M -0.05,-2.50 Q -0.05,-2.50 0.72,-2.57 1.49,-2.63 2.58,-2.93 3.67,-3.23 6.11,-3.75 8.54,-4.28 9.02,-4.22 9.50,-4.15 9.93,-3.94 10.37,-3.73 10.71,-3.39 11.06,-3.05 11.27,-2.62 11.49,-2.19 11.56,-1.72 11.63,-1.24 11.54,-0.76 11.45,-0.29 11.22,0.12 10.98,0.54 10.63,0.87 10.27,1.19 9.83,1.39 9.39,1.58 8.91,1.62 8.43,1.67 7.96,1.55 7.49,1.44 7.08,1.18 6.67,0.93 6.37,0.55 6.06,0.18 5.89,-0.26 5.72,-0.72 5.71,-1.20 5.69,-1.68 5.83,-2.14 5.97,-2.60 6.24,-3.00 6.52,-3.39 6.91,-3.68 7.30,-3.96 7.76,-4.10 8.22,-4.25 8.71,-4.24 9.19,-4.23 9.64,-4.07 10.10,-3.90 10.47,-3.60 10.85,-3.30 11.11,-2.90 11.38,-2.49 11.50,-2.03 11.62,-1.56 11.58,-1.08 11.54,-0.60 11.36,-0.15 11.17,0.28 10.85,0.64 10.53,1.00 10.11,1.24 9.69,1.48 9.22,1.58 8.75,1.67 8.75,1.67 8.75,1.67 7.57,1.86 6.39,2.06 5.29,2.26 4.19,2.45 2.90,2.51 1.60,2.57 0.83,2.53 0.05,2.50 -0.24,2.47 -0.54,2.44 -0.83,2.34 -1.11,2.24 -1.37,2.07 -1.62,1.91 -1.82,1.68 -2.03,1.46 -2.17,1.20 -2.32,0.93 -2.40,0.64 -2.48,0.35 -2.48,0.05 -2.49,-0.25 -2.42,-0.54 -2.36,-0.84 -2.22,-1.11 -2.09,-1.38 -1.89,-1.61 -1.70,-1.84 -1.45,-2.01 -1.21,-2.19 -0.93,-2.30 -0.65,-2.42 -0.35,-2.46 -0.05,-2.50 -0.05,-2.50 L -0.05,-2.50 Z"></path></g></svg>