<svg version="1.1" xmlns="http://www.w3.org/2000/svg" viewBox="0 0 75.46685494059415 85.72109767971926" width="75.46685494059415" height="85.72109767971926">
  <!-- svg-source:excalidraw -->
  
  <defs>
    <style class="style-fonts">
      @font-face {
        font-family: "Virgil";
        src: url("https://excalidraw.com/Virgil.woff2");
      }
      @font-face {
        font-family: "Cascadia";
        src: url("https://excalidraw.com/Cascadia.woff2");
      }
      @font-face {
        font-family: "Assistant";
        src: url("https://excalidraw.com/Assistant-Regular.woff2");
      }
    </style>
    
  </defs>
  <g transform="translate(65.46685494059415 10.246802426174554) rotate(0 -27.733427470297073 32.61374641368508)" stroke="none"><path fill="#1e1e1e" d="M -0.04,1.56 Q -0.04,1.56 -2.55,1.45 -5.06,1.35 -8.21,1.29 -11.36,1.24 -15.07,1.21 -18.78,1.18 -22.50,1.16 -26.22,1.14 -29.51,1.13 -32.80,1.12 -35.54,1.38 -38.27,1.65 -40.65,2.40 -43.04,3.16 -45.06,4.33 -47.07,5.50 -48.56,7.05 -50.04,8.59 -51.05,10.42 -52.05,12.26 -52.63,14.25 -53.20,16.23 -53.47,18.73 -53.73,21.23 -53.52,24.43 -53.32,27.63 -52.21,31.17 -51.09,34.72 -48.90,38.46 -46.70,42.20 -43.48,45.94 -40.25,49.68 -36.69,52.72 -33.14,55.76 -29.43,57.77 -25.73,59.78 -21.54,61.03 -17.35,62.28 -12.66,62.72 -7.98,63.16 -4.43,63.50 -0.88,63.84 -0.67,63.89 -0.47,63.95 -0.29,64.06 -0.11,64.18 0.01,64.35 0.14,64.52 0.21,64.72 0.28,64.92 0.28,65.13 0.29,65.34 0.22,65.55 0.16,65.75 0.03,65.92 -0.09,66.09 -0.26,66.21 -0.44,66.33 -0.64,66.39 -0.84,66.45 -1.06,66.44 -1.27,66.43 -1.47,66.36 -1.67,66.28 -1.83,66.15 -1.99,66.01 -2.10,65.83 -2.22,65.65 -2.26,65.44 -2.31,65.23 -2.29,65.02 -2.27,64.81 -2.19,64.62 -2.10,64.42 -1.95,64.27 -1.81,64.11 -1.62,64.01 -1.44,63.91 -1.23,63.87 -1.02,63.83 -0.81,63.87 -0.60,63.90 -0.41,63.99 -0.22,64.09 -0.07,64.24 0.07,64.40 0.16,64.59 0.25,64.78 0.27,64.99 0.30,65.20 0.26,65.41 0.21,65.62 0.11,65.80 0.00,65.98 -0.15,66.12 -0.31,66.26 -0.51,66.35 -0.70,66.43 -0.92,66.44 -1.13,66.45 -1.13,66.45 -1.13,66.45 -4.68,66.11 -8.23,65.77 -13.16,65.29 -18.10,64.80 -22.54,63.45 -26.98,62.09 -30.91,59.93 -34.84,57.77 -38.54,54.58 -42.25,51.40 -45.61,47.46 -48.97,43.53 -51.29,39.52 -53.60,35.51 -54.77,31.66 -55.94,27.81 -56.15,24.38 -56.35,20.95 -56.04,18.22 -55.74,15.49 -55.05,13.23 -54.37,10.98 -53.16,8.86 -51.95,6.75 -50.19,4.98 -48.42,3.21 -46.14,1.91 -43.86,0.61 -41.20,-0.21 -38.54,-1.03 -35.67,-1.32 -32.80,-1.60 -29.51,-1.61 -26.22,-1.62 -22.49,-1.62 -18.77,-1.63 -15.05,-1.64 -11.33,-1.64 -8.15,-1.64 -4.97,-1.63 -2.46,-1.59 0.04,-1.56 0.23,-1.53 0.41,-1.50 0.59,-1.43 0.76,-1.36 0.91,-1.25 1.06,-1.13 1.18,-0.99 1.31,-0.85 1.39,-0.68 1.47,-0.51 1.51,-0.32 1.55,-0.14 1.55,0.04 1.54,0.23 1.49,0.41 1.44,0.59 1.35,0.75 1.25,0.92 1.13,1.06 1.00,1.19 0.84,1.30 0.68,1.40 0.50,1.46 0.33,1.52 0.14,1.54 -0.04,1.56 -0.04,1.56 L -0.04,1.56 Z"></path></g><g transform="translate(25.44107437308486 23.546268649550825) rotate(0 3.19847982953695 -2.607348212005803)" stroke="none"><path d="M1.21 -1.28 C2 -1.59, 3.46 -1.32, 4.18 -1.98 C4.9 -2.65, 5.92 -4.69, 5.54 -5.29 C5.17 -5.9, 2.42 -6.29, 1.92 -5.61 C1.42 -4.93, 2.03 -2.05, 2.56 -1.19 C3.09 -0.33, 5.38 -0.5, 5.08 -0.45 C4.78 -0.4, 1.7 -0.82, 0.74 -0.88" stroke="none" stroke-width="0" fill="#ffc9c9" fill-rule="evenodd"></path><path fill="#1e1e1e" d="M -0.51,-2.54 Q -0.51,-2.54 0.49,-2.78 1.50,-3.01 2.51,-3.65 3.52,-4.28 4.43,-3.23 5.34,-2.18 4.43,-2.78 3.52,-3.39 4.01,-3.51 4.51,-3.63 4.93,-3.70 5.36,-3.77 5.79,-3.74 6.22,-3.71 6.62,-3.57 7.03,-3.44 7.40,-3.21 7.76,-2.99 8.06,-2.68 8.36,-2.37 8.58,-2.00 8.80,-1.63 8.92,-1.21 9.04,-0.80 9.06,-0.37 9.08,0.05 9.00,0.47 8.92,0.89 8.74,1.28 8.55,1.67 8.28,2.01 8.01,2.34 7.67,2.60 7.33,2.86 6.94,3.03 6.54,3.20 3.33,3.13 0.11,3.06 -0.37,3.00 -0.86,2.94 -1.31,2.72 -1.76,2.51 -2.11,2.16 -2.47,1.81 -2.69,1.37 -2.92,0.93 -2.99,0.44 -3.06,-0.04 -2.97,-0.53 -2.88,-1.02 -2.65,-1.46 -2.41,-1.89 -2.04,-2.22 -1.67,-2.56 -1.22,-2.76 -0.77,-2.96 -0.27,-3.01 0.21,-3.05 0.69,-2.94 1.18,-2.82 1.60,-2.56 2.02,-2.30 2.33,-1.92 2.65,-1.53 2.82,-1.07 3.00,-0.61 3.02,-0.11 3.04,0.38 2.90,0.85 2.76,1.33 2.47,1.73 2.19,2.14 1.79,2.43 1.39,2.73 0.91,2.88 0.44,3.03 -0.04,3.02 -0.54,3.01 -1.01,2.85 -1.47,2.68 -1.86,2.37 -2.26,2.07 -2.53,1.65 -2.80,1.24 -2.92,0.76 -3.05,0.28 -3.01,-0.21 -2.98,-0.70 -2.79,-1.16 -2.60,-1.62 -2.27,-1.99 -1.94,-2.36 -1.51,-2.61 -1.08,-2.86 -0.60,-2.96 -0.11,-3.06 -0.11,-3.06 -0.11,-3.06 2.19,-3.34 4.51,-3.63 4.93,-3.70 5.36,-3.77 5.79,-3.74 6.22,-3.71 6.62,-3.57 7.03,-3.44 7.40,-3.21 7.76,-2.99 8.06,-2.68 8.36,-2.37 8.58,-2.00 8.80,-1.63 8.92,-1.21 9.04,-0.80 9.06,-0.37 9.08,0.05 9.00,0.47 8.92,0.89 8.74,1.28 8.55,1.67 8.28,2.01 8.01,2.34 7.67,2.60 7.33,2.86 6.94,3.03 6.54,3.20 6.47,3.27 6.39,3.34 5.18,3.48 3.97,3.63 2.81,3.48 1.64,3.34 0.86,2.61 0.08,1.89 -0.43,0.28 -0.96,-1.32 -0.81,-2.60 -0.67,-3.89 -0.21,-5.24 0.25,-6.60 1.79,-7.57 3.33,-8.53 4.49,-8.52 5.64,-8.50 7.00,-7.87 8.35,-7.23 8.91,-5.78 9.48,-4.34 9.19,-3.13 8.91,-1.93 8.16,-0.92 7.41,0.07 6.37,0.75 5.34,1.42 3.94,1.81 2.55,2.20 1.53,2.37 0.51,2.54 0.20,2.57 -0.11,2.59 -0.42,2.54 -0.73,2.49 -1.01,2.37 -1.30,2.24 -1.55,2.05 -1.80,1.87 -2.00,1.62 -2.20,1.38 -2.33,1.09 -2.46,0.81 -2.53,0.50 -2.59,0.20 -2.57,-0.11 -2.56,-0.42 -2.47,-0.72 -2.38,-1.02 -2.23,-1.29 -2.07,-1.56 -1.85,-1.79 -1.63,-2.01 -1.37,-2.18 -1.10,-2.35 -0.81,-2.45 -0.51,-2.54 -0.51,-2.54 L -0.51,-2.54 Z"></path></g><g transform="translate(31.145394965152548 49.09828112720788) rotate(0 -0.18709216177745702 2.8760444017927114)" stroke="none"><path d="M0.56 -1.32 C-0.03 -1.27, -1.91 -0.3, -2.53 0.29 C-3.15 0.89, -3.46 1.12, -3.16 2.26 C-2.85 3.4, -1.4 6.42, -0.71 7.15 C-0.03 7.87, 0.41 6.98, 0.96 6.61 C1.51 6.24, 2.09 5.65, 2.6 4.93 C3.1 4.2, 4.42 2.91, 4.01 2.26 C3.6 1.61, 0.6 1.3, 0.13 1.03" stroke="none" stroke-width="0" fill="#ffc9c9" fill-rule="evenodd"></path><path fill="#1e1e1e" d="M -0.20,2.53 Q -0.20,2.53 -1.17,2.49 -2.14,2.45 -0.96,2.69 0.21,2.93 -0.21,3.10 -0.63,3.26 -1.14,3.08 -1.64,2.89 -2.06,2.55 -2.48,2.21 -2.77,1.76 -3.06,1.30 -3.19,0.78 -3.32,0.26 -3.27,-0.27 -3.23,-0.81 -3.01,-1.30 -2.80,-1.80 -2.44,-2.20 -2.08,-2.60 -1.61,-2.86 -1.14,-3.12 -0.61,-3.22 -0.08,-3.32 0.45,-3.25 0.98,-3.18 1.46,-2.94 1.95,-2.70 2.33,-2.31 2.71,-1.93 2.94,-1.45 3.18,-0.96 3.25,-0.43 3.32,0.09 3.22,0.62 3.12,1.15 2.85,1.62 2.59,2.09 2.18,2.45 1.78,2.81 1.29,3.02 0.79,3.23 0.25,3.27 -0.27,3.31 -0.80,3.18 -1.32,3.05 -1.77,2.76 -2.23,2.47 -2.56,2.05 -2.90,1.63 -3.08,1.12 -3.27,0.61 -3.28,0.08 -3.29,-0.45 -3.13,-0.97 -2.98,-1.48 -2.66,-1.92 -2.34,-2.36 -1.91,-2.67 -1.47,-2.98 -0.95,-3.14 -0.44,-3.30 0.09,-3.28 0.63,-3.26 0.63,-3.26 0.63,-3.26 2.68,-2.87 4.73,-2.48 5.77,-1.05 6.82,0.37 6.82,1.84 6.83,3.32 6.56,4.36 6.28,5.40 5.50,6.45 4.72,7.50 3.54,8.26 2.36,9.03 0.56,9.08 -1.24,9.13 -2.59,8.46 -3.94,7.79 -4.56,6.92 -5.18,6.05 -5.81,4.74 -6.45,3.42 -6.54,1.99 -6.63,0.57 -6.00,-0.63 -5.37,-1.84 -3.55,-2.30 -1.72,-2.76 -0.76,-2.65 0.20,-2.53 0.50,-2.47 0.80,-2.41 1.08,-2.28 1.35,-2.15 1.59,-1.95 1.83,-1.76 2.01,-1.51 2.20,-1.27 2.32,-0.99 2.44,-0.70 2.49,-0.40 2.54,-0.10 2.51,0.20 2.49,0.50 2.39,0.79 2.29,1.08 2.13,1.34 1.97,1.60 1.75,1.82 1.52,2.03 1.26,2.18 0.99,2.34 0.70,2.42 0.40,2.51 0.10,2.52 -0.20,2.53 -0.20,2.53 L -0.20,2.53 Z"></path></g><g transform="translate(59.643113819732264 26.850236612855895) rotate(0 -2.026168305207591 8.472886517945682)" stroke="none"><path fill="#1e1e1e" d="M 2.66,0 Q 2.66,0 2.69,1.03 2.71,2.06 2.79,3.23 2.86,4.40 2.91,5.48 2.97,6.56 2.97,7.78 2.97,9.00 2.70,10.29 2.43,11.59 1.95,13.01 1.48,14.43 -0.23,17.01 -1.95,19.60 -2.42,19.86 -2.89,20.13 -3.41,20.23 -3.94,20.34 -4.47,20.27 -5.01,20.20 -5.49,19.96 -5.97,19.72 -6.35,19.35 -6.74,18.97 -6.98,18.49 -7.22,18.01 -7.29,17.48 -7.37,16.94 -7.27,16.41 -7.17,15.89 -6.91,15.42 -6.65,14.95 -6.25,14.59 -5.85,14.23 -5.36,14.01 -4.86,13.80 -4.33,13.75 -3.79,13.70 -3.27,13.83 -2.75,13.96 -2.30,14.25 -1.84,14.53 -1.50,14.95 -1.16,15.37 -0.98,15.87 -0.79,16.37 -0.77,16.91 -0.75,17.45 -0.91,17.96 -1.06,18.48 -1.38,18.92 -1.69,19.35 -2.12,19.67 -2.56,19.99 -3.07,20.15 -3.58,20.31 -4.12,20.29 -4.66,20.28 -5.16,20.10 -5.67,19.92 -6.09,19.58 -6.51,19.25 -6.80,18.80 -7.09,18.34 -7.22,17.82 -7.36,17.30 -7.32,16.77 -7.27,16.23 -7.06,15.74 -6.85,15.24 -6.50,14.84 -6.14,14.44 -6.14,14.44 -6.14,14.44 -5.18,12.85 -4.22,11.26 -3.78,10.15 -3.35,9.04 -3.16,7.80 -2.97,6.56 -2.91,5.48 -2.86,4.40 -2.79,3.23 -2.71,2.06 -2.69,1.03 -2.66,0 -2.62,-0.31 -2.58,-0.63 -2.47,-0.93 -2.36,-1.23 -2.17,-1.50 -1.99,-1.76 -1.75,-1.98 -1.51,-2.19 -1.23,-2.34 -0.94,-2.49 -0.63,-2.57 -0.32,-2.64 0.00,-2.64 0.32,-2.64 0.63,-2.57 0.94,-2.49 1.23,-2.34 1.51,-2.19 1.75,-1.98 1.99,-1.76 2.17,-1.50 2.36,-1.23 2.47,-0.93 2.58,-0.63 2.62,-0.31 2.66,0.00 2.66,0.00 L 2.66,0 Z"></path></g><g transform="translate(31.240931388187903 20.41745079514385) rotate(0 0.00005000000000165983 0.00004999999998744897)" stroke="none"><path fill="#1e1e1e" d="M 1.57,-1.57 Q 1.57,-1.57 1.77,-1.27 1.98,-0.98 2.09,-0.64 2.20,-0.29 2.19,0.05 2.18,0.41 2.05,0.75 1.93,1.09 1.70,1.37 1.48,1.65 1.18,1.84 0.87,2.04 0.52,2.12 0.18,2.21 -0.17,2.18 -0.53,2.15 -0.86,2.01 -1.19,1.87 -1.46,1.63 -1.73,1.39 -1.90,1.07 -2.08,0.76 -2.15,0.41 -2.21,0.05 -2.17,-0.29 -2.12,-0.65 -1.96,-0.97 -1.80,-1.29 -1.54,-1.54 -1.29,-1.80 -0.97,-1.96 -0.65,-2.12 -0.29,-2.17 0.06,-2.21 0.41,-2.15 0.76,-2.08 1.07,-1.90 1.39,-1.73 1.63,-1.46 1.87,-1.19 2.01,-0.86 2.15,-0.53 2.18,-0.17 2.21,0.18 2.12,0.52 2.03,0.87 1.84,1.18 1.65,1.48 1.37,1.70 1.09,1.93 0.75,2.05 0.41,2.18 0.05,2.19 -0.30,2.20 -0.64,2.09 -0.98,1.98 -1.27,1.77 -1.57,1.56 -1.57,1.57 -1.57,1.57 -1.73,1.35 -1.90,1.14 -2.01,0.90 -2.12,0.66 -2.16,0.39 -2.21,0.13 -2.20,-0.13 -2.18,-0.40 -2.10,-0.65 -2.02,-0.91 -1.88,-1.14 -1.74,-1.36 -1.55,-1.55 -1.36,-1.74 -1.14,-1.88 -0.91,-2.02 -0.65,-2.10 -0.40,-2.18 -0.13,-2.20 0.13,-2.21 0.39,-2.16 0.66,-2.12 0.90,-2.01 1.14,-1.90 1.35,-1.73 1.57,-1.57 1.57,-1.57 L 1.57,-1.57 Z"></path></g></svg>