<svg version="1.1" xmlns="http://www.w3.org/2000/svg" viewBox="0 0 96.03505068324154 113.00868850918482" width="96.03505068324154" height="113.00868850918482">
  <!-- svg-source:excalidraw -->
  
  <defs>
    <style class="style-fonts">
      @font-face {
        font-family: "Virgil";
        src: url("https://excalidraw.com/Virgil.woff2");
      }
      @font-face {
        font-family: "Cascadia";
        src: url("https://excalidraw.com/Cascadia.woff2");
      }
      @font-face {
        font-family: "Assistant";
        src: url("https://excalidraw.com/Assistant-Regular.woff2");
      }
    </style>
    
  </defs>
  <g transform="translate(10 102.83751908457987) rotate(0 38.01752534162077 -46.333174829987456)" stroke="none"><path fill="#1e1e1e" d="M -1.56,0 Q -1.56,0 -1.52,-2.17 -1.49,-4.35 -1.46,-7.43 -1.44,-10.52 -1.42,-14.19 -1.40,-17.86 -1.39,-21.99 -1.38,-26.12 -1.37,-30.41 -1.36,-34.71 -1.35,-39.15 -1.34,-43.59 -1.34,-47.67 -1.33,-51.75 -1.14,-55.39 -0.95,-59.04 -0.46,-62.46 0.02,-65.87 0.71,-68.71 1.41,-71.54 2.20,-73.91 2.98,-76.27 3.89,-78.39 4.80,-80.52 5.81,-82.39 6.81,-84.26 7.85,-85.82 8.90,-87.38 10.15,-88.65 11.40,-89.93 13.03,-90.86 14.66,-91.80 16.75,-92.41 18.85,-93.01 21.15,-93.37 23.46,-93.73 25.69,-93.89 27.92,-94.05 29.87,-94.15 31.82,-94.26 33.37,-94.37 34.93,-94.49 36.20,-94.45 37.46,-94.42 38.69,-93.91 39.92,-93.41 41.03,-92.23 42.14,-91.06 43.07,-89.47 44.01,-87.89 44.94,-85.89 45.86,-83.90 47.11,-81.30 48.36,-78.69 49.94,-75.56 51.52,-72.43 53.33,-69.01 55.14,-65.59 57.07,-61.76 58.99,-57.93 60.82,-53.90 62.65,-49.87 64.31,-46.00 65.97,-42.12 67.52,-38.30 69.08,-34.47 70.41,-30.81 71.74,-27.15 72.72,-23.81 73.71,-20.47 74.44,-17.53 75.18,-14.59 75.72,-12.05 76.26,-9.50 76.59,-7.47 76.93,-5.44 77.29,-2.70 77.65,0.03 77.63,0.29 77.61,0.55 77.50,0.79 77.40,1.04 77.22,1.23 77.05,1.43 76.82,1.56 76.59,1.69 76.34,1.74 76.08,1.79 75.82,1.75 75.56,1.72 75.32,1.60 75.09,1.49 74.90,1.30 74.72,1.12 74.60,0.88 74.48,0.65 74.44,0.39 74.41,0.13 74.46,-0.12 74.51,-0.38 74.63,-0.61 74.76,-0.84 74.96,-1.01 75.15,-1.19 75.39,-1.29 75.63,-1.40 75.90,-1.42 76.16,-1.44 76.41,-1.38 76.67,-1.32 76.89,-1.18 77.11,-1.03 77.27,-0.83 77.44,-0.63 77.53,-0.38 77.62,-0.13 77.63,0.12 77.64,0.38 77.56,0.63 77.49,0.88 77.33,1.10 77.18,1.31 76.97,1.46 76.76,1.62 76.50,1.69 76.25,1.77 75.99,1.77 75.73,1.76 75.48,1.67 75.24,1.58 75.03,1.42 74.83,1.25 74.68,1.03 74.54,0.81 74.48,0.56 74.41,0.30 74.41,0.30 74.41,0.30 74.31,-2.35 74.21,-5.02 73.93,-6.98 73.65,-8.95 73.12,-11.44 72.58,-13.94 71.85,-16.82 71.12,-19.70 70.15,-22.96 69.18,-26.22 67.85,-29.82 66.52,-33.43 64.95,-37.22 63.39,-41.01 61.71,-44.84 60.03,-48.66 58.18,-52.62 56.34,-56.57 54.37,-60.33 52.41,-64.10 50.51,-67.50 48.61,-70.90 46.91,-73.99 45.21,-77.07 43.83,-79.58 42.44,-82.09 41.37,-83.89 40.30,-85.68 39.07,-87.77 37.83,-89.86 36.42,-90.47 35.00,-91.08 33.48,-91.12 31.95,-91.17 30.07,-91.11 28.18,-91.05 26.09,-90.84 24.00,-90.62 21.90,-90.21 19.79,-89.80 18.02,-89.26 16.25,-88.73 14.91,-88.12 13.58,-87.52 12.43,-86.58 11.28,-85.64 10.23,-84.30 9.17,-82.96 8.20,-81.22 7.22,-79.47 6.35,-77.46 5.49,-75.44 4.73,-73.17 3.98,-70.91 3.31,-68.20 2.64,-65.50 2.17,-62.20 1.70,-58.90 1.52,-55.32 1.34,-51.75 1.34,-47.67 1.34,-43.59 1.35,-39.15 1.36,-34.71 1.37,-30.41 1.38,-26.12 1.39,-21.99 1.40,-17.86 1.42,-14.19 1.44,-10.52 1.46,-7.43 1.49,-4.35 1.52,-2.17 1.56,0 1.53,0.18 1.51,0.37 1.45,0.54 1.38,0.72 1.27,0.88 1.16,1.03 1.02,1.16 0.88,1.28 0.72,1.37 0.55,1.46 0.37,1.50 0.18,1.55 -0.00,1.55 -0.18,1.55 -0.37,1.50 -0.55,1.46 -0.72,1.37 -0.88,1.28 -1.02,1.16 -1.16,1.03 -1.27,0.88 -1.38,0.72 -1.45,0.54 -1.51,0.37 -1.53,0.18 -1.56,-0.00 -1.56,-0.00 L -1.56,0 Z"></path></g><g transform="translate(20.1666676846761 42.56995888646054) rotate(0 3.9747132666989557 -6.3730755533150045)" stroke="none"><path d="M-1.04 -0.5 C-0.56 -2.48, 1.03 -9.81, 1.57 -11.88 C2.12 -13.95, 1.24 -14.71, 2.24 -12.92 C3.24 -11.12, 7.83 -3.45, 7.57 -1.11 C7.32 1.24, 1.76 0.8, 0.71 1.15" stroke="none" stroke-width="0" fill="#b2f2bb" fill-rule="evenodd"></path><path fill="#1e1e1e" d="M -2.59,0 Q -2.59,0 -2.59,-1.31 -2.60,-2.63 -2.62,-3.80 -2.64,-4.96 -2.66,-7.01 -2.68,-9.05 -2.34,-10.94 -2.00,-12.82 -1.34,-13.68 -0.69,-14.53 0.22,-15.07 1.14,-15.60 2.62,-15.31 4.11,-15.01 4.91,-13.77 5.72,-12.53 6.26,-11.37 6.80,-10.21 7.43,-8.97 8.05,-7.73 8.70,-6.59 9.35,-5.45 9.94,-4.61 10.53,-3.77 10.72,-3.41 10.91,-3.04 11.01,-2.63 11.11,-2.23 11.10,-1.81 11.10,-1.39 11.00,-0.99 10.90,-0.59 10.70,-0.22 10.51,0.14 10.23,0.45 9.95,0.76 9.61,0.99 9.26,1.23 8.87,1.37 8.48,1.52 8.07,1.57 7.66,1.61 7.24,1.56 6.83,1.51 6.44,1.36 6.05,1.21 5.71,0.97 5.37,0.73 5.10,0.42 4.82,0.11 2.75,1.49 0.68,2.87 0.20,2.90 -0.26,2.94 -0.73,2.82 -1.19,2.70 -1.59,2.44 -1.99,2.18 -2.29,1.80 -2.58,1.43 -2.74,0.98 -2.90,0.52 -2.91,0.05 -2.92,-0.42 -2.77,-0.88 -2.63,-1.33 -2.35,-1.72 -2.07,-2.10 -1.67,-2.38 -1.28,-2.66 -0.82,-2.79 -0.37,-2.93 0.10,-2.91 0.58,-2.89 1.03,-2.72 1.47,-2.55 1.84,-2.25 2.21,-1.95 2.47,-1.54 2.72,-1.14 2.83,-0.67 2.94,-0.21 2.90,0.26 2.86,0.74 2.66,1.17 2.47,1.61 2.15,1.96 1.82,2.32 1.41,2.55 0.99,2.78 0.52,2.86 0.05,2.95 -0.42,2.88 -0.89,2.81 -1.32,2.60 -1.74,2.38 -2.08,2.04 -2.41,1.70 -2.62,1.27 -2.83,0.84 -2.89,0.36 -2.95,-0.10 -2.85,-0.57 -2.76,-1.04 -2.52,-1.45 -2.28,-1.87 -1.92,-2.18 -1.56,-2.50 -1.12,-2.69 -0.68,-2.87 -0.68,-2.87 -0.68,-2.87 4.92,-3.32 10.53,-3.78 10.72,-3.41 10.91,-3.04 11.01,-2.63 11.11,-2.23 11.10,-1.81 11.10,-1.39 11.00,-0.99 10.90,-0.59 10.70,-0.22 10.51,0.14 10.23,0.45 9.95,0.76 9.61,0.99 9.26,1.23 8.87,1.37 8.48,1.52 8.07,1.57 7.66,1.61 7.24,1.56 6.83,1.51 6.44,1.36 6.05,1.21 5.71,0.97 5.37,0.73 5.10,0.42 4.82,0.11 4.15,-0.97 3.47,-2.06 2.96,-3.00 2.46,-3.95 1.89,-5.27 1.32,-6.58 0.74,-8.02 0.16,-9.45 -0.13,-10.73 -0.43,-12.02 0.28,-11.21 1.01,-10.40 1.91,-9.63 2.82,-8.86 2.73,-6.91 2.64,-4.96 2.62,-3.80 2.60,-2.63 2.59,-1.31 2.59,0 2.55,0.31 2.51,0.62 2.40,0.91 2.29,1.20 2.11,1.46 1.93,1.71 1.70,1.92 1.47,2.13 1.19,2.27 0.91,2.42 0.61,2.49 0.31,2.57 -0.00,2.57 -0.31,2.57 -0.61,2.49 -0.91,2.42 -1.19,2.27 -1.47,2.13 -1.70,1.92 -1.93,1.71 -2.11,1.46 -2.29,1.20 -2.40,0.91 -2.51,0.61 -2.55,0.30 -2.59,-0.00 -2.59,-0.00 L -2.59,0 Z"></path></g><g transform="translate(38.01207537081672 42.67743736237526) rotate(0 5.121150343122906 -6.954255460113245)" stroke="none"><path fill="#1e1e1e" d="M -2.38,0 Q -2.38,0 -2.26,-2.06 -2.13,-4.13 -2.15,-5.70 -2.16,-7.27 -2.21,-8.49 -2.26,-9.71 -2.37,-10.97 -2.48,-12.24 -2.17,-13.32 -1.85,-14.40 -0.87,-15.15 0.11,-15.89 1.27,-16.30 2.44,-16.71 3.91,-16.07 5.38,-15.43 6.27,-14.16 7.16,-12.89 8.21,-11.30 9.26,-9.71 10.33,-8.10 11.40,-6.49 12.37,-3.74 13.34,-0.98 13.32,-0.48 13.29,0.02 13.11,0.49 12.92,0.96 12.59,1.35 12.27,1.73 11.83,1.99 11.40,2.26 10.91,2.37 10.41,2.48 9.91,2.42 9.41,2.37 8.95,2.16 8.49,1.95 8.12,1.60 7.75,1.25 7.51,0.81 7.28,0.36 7.19,-0.13 7.11,-0.63 7.19,-1.13 7.27,-1.63 7.51,-2.07 7.74,-2.52 8.11,-2.87 8.48,-3.22 8.94,-3.43 9.39,-3.65 9.90,-3.70 10.40,-3.76 10.89,-3.65 11.39,-3.54 11.82,-3.28 12.26,-3.02 12.58,-2.64 12.91,-2.25 13.10,-1.78 13.29,-1.32 13.32,-0.81 13.35,-0.31 13.21,0.17 13.08,0.66 12.80,1.08 12.51,1.50 12.11,1.81 11.71,2.11 11.23,2.28 10.75,2.44 10.24,2.44 9.74,2.44 9.26,2.28 8.78,2.12 8.38,1.81 7.97,1.51 7.69,1.09 7.40,0.67 7.27,0.19 7.13,-0.29 7.13,-0.29 7.13,-0.29 6.71,-1.72 6.28,-3.14 5.24,-4.75 4.20,-6.36 3.06,-8.11 1.93,-9.86 2.21,-11.05 2.48,-12.24 2.37,-10.97 2.26,-9.71 2.21,-8.49 2.16,-7.27 2.15,-5.70 2.13,-4.13 2.26,-2.06 2.38,0 2.35,0.28 2.31,0.57 2.21,0.83 2.11,1.10 1.94,1.34 1.78,1.58 1.57,1.77 1.35,1.96 1.10,2.09 0.84,2.23 0.56,2.29 0.28,2.36 -0.00,2.36 -0.28,2.36 -0.56,2.29 -0.84,2.23 -1.10,2.09 -1.35,1.96 -1.57,1.77 -1.78,1.58 -1.94,1.34 -2.11,1.10 -2.21,0.83 -2.31,0.57 -2.35,0.28 -2.38,-0.00 -2.38,-0.00 L -2.38,0 Z"></path></g><g transform="translate(25.970505384072283 78.95739401004107) rotate(0 11.26931723387554 3.202460513830033)" stroke="none"><path fill="#1e1e1e" d="M 0.96,-1.68 Q 0.96,-1.68 3.07,-0.38 5.19,0.91 7.05,1.90 8.91,2.89 10.51,3.39 12.11,3.89 13.48,4.06 14.85,4.24 17.03,4.41 19.21,4.58 20.92,4.63 22.62,4.67 22.90,4.74 23.18,4.80 23.43,4.94 23.68,5.09 23.86,5.31 24.05,5.53 24.16,5.79 24.27,6.06 24.28,6.35 24.30,6.63 24.22,6.91 24.15,7.19 23.99,7.42 23.83,7.66 23.60,7.84 23.37,8.01 23.10,8.11 22.83,8.20 22.54,8.20 22.25,8.20 21.98,8.11 21.71,8.02 21.48,7.85 21.25,7.67 21.09,7.44 20.93,7.20 20.85,6.92 20.77,6.65 20.78,6.36 20.80,6.07 20.90,5.81 21.01,5.54 21.19,5.32 21.38,5.10 21.62,4.95 21.87,4.80 22.15,4.74 22.43,4.68 22.72,4.71 23.00,4.74 23.26,4.85 23.52,4.97 23.73,5.17 23.94,5.37 24.08,5.62 24.21,5.87 24.26,6.16 24.31,6.44 24.26,6.72 24.22,7.01 24.08,7.26 23.95,7.52 23.74,7.71 23.54,7.91 23.28,8.03 23.02,8.16 22.73,8.19 22.44,8.22 22.44,8.22 22.45,8.22 20.74,8.10 19.04,7.97 16.62,7.92 14.19,7.86 12.61,7.49 11.04,7.13 9.24,6.49 7.45,5.85 5.44,4.92 3.44,3.99 1.24,2.84 -0.96,1.68 -1.14,1.54 -1.33,1.40 -1.48,1.22 -1.63,1.04 -1.73,0.83 -1.83,0.62 -1.88,0.39 -1.93,0.16 -1.92,-0.06 -1.91,-0.29 -1.85,-0.52 -1.79,-0.74 -1.67,-0.95 -1.56,-1.15 -1.39,-1.32 -1.23,-1.49 -1.04,-1.62 -0.84,-1.74 -0.62,-1.82 -0.40,-1.90 -0.16,-1.92 0.06,-1.94 0.29,-1.90 0.52,-1.86 0.74,-1.77 0.96,-1.68 0.96,-1.68 L 0.96,-1.68 Z"></path></g></svg>