<svg version="1.1" xmlns="http://www.w3.org/2000/svg" viewBox="0 0 94.76216977950833 87.69271639433458" width="94.76216977950833" height="87.69271639433458">
  <!-- svg-source:excalidraw -->
  
  <defs>
    <style class="style-fonts">
      @font-face {
        font-family: "Virgil";
        src: url("https://excalidraw.com/Virgil.woff2");
      }
      @font-face {
        font-family: "Cascadia";
        src: url("https://excalidraw.com/Cascadia.woff2");
      }
      @font-face {
        font-family: "Assistant";
        src: url("https://excalidraw.com/Assistant-Regular.woff2");
      }
    </style>
    
  </defs>
  <g stroke-linecap="round"><g transform="translate(10.266650550672807 76.52755415213062) rotate(0 37.06273956140359 -32.170383243354394)"><path d="M0.78 1.17 C5.01 -8.88, 13.91 -48.89, 26.19 -59.97 C38.48 -71.05, 66.54 -64.55, 74.5 -65.33 M-0.27 0.73 C3.69 -9.21, 12.64 -47.97, 25 -58.85 C37.37 -69.73, 65.75 -63.73, 73.92 -64.54" stroke="#1e1e1e" stroke-width="1" fill="none"></path></g><g transform="translate(10.266650550672807 76.52755415213062) rotate(0 37.06273956140359 -32.170383243354394)"><path d="M51.18 -57.27 C61.49 -60.85, 66.62 -62.16, 73.92 -64.54 M51.18 -57.27 C56.56 -58.65, 61.19 -60.8, 73.92 -64.54" stroke="#1e1e1e" stroke-width="1" fill="none"></path></g><g transform="translate(10.266650550672807 76.52755415213062) rotate(0 37.06273956140359 -32.170383243354394)"><path d="M51.82 -73.59 C61.94 -71.15, 66.83 -66.44, 73.92 -64.54 M51.82 -73.59 C57.04 -71.43, 61.53 -70.04, 73.92 -64.54" stroke="#1e1e1e" stroke-width="1" fill="none"></path></g></g><mask></mask></svg>