<svg version="1.1" xmlns="http://www.w3.org/2000/svg" viewBox="0 0 186.38918135635424 154.71837283963941" width="186.38918135635424" height="154.71837283963941">
  <!-- svg-source:excalidraw -->
  
  <defs>
    <style class="style-fonts">
      @font-face {
        font-family: "Virgil";
        src: url("https://excalidraw.com/Virgil.woff2");
      }
      @font-face {
        font-family: "Cascadia";
        src: url("https://excalidraw.com/Cascadia.woff2");
      }
      @font-face {
        font-family: "Assistant";
        src: url("https://excalidraw.com/Assistant-Regular.woff2");
      }
    </style>
    
  </defs>
  <g transform="translate(11.438083811128422 10) rotate(0 43.36502586910041 31.184579606361837)" stroke="none"><path fill="#1e1e1e" d="M 0,-1.56 Q 0,-1.56 2.33,-1.52 4.67,-1.49 6.94,-1.46 9.20,-1.44 11.65,-1.42 14.09,-1.40 16.62,-1.39 19.14,-1.38 21.68,-1.37 24.21,-1.36 26.82,-1.35 29.43,-1.34 32.07,-1.28 34.72,-1.22 37.39,-0.98 40.07,-0.75 42.69,-0.35 45.31,0.04 47.84,0.51 50.38,0.97 52.73,1.47 55.09,1.96 57.17,2.44 59.26,2.93 61.14,3.35 63.03,3.78 64.74,4.17 66.45,4.56 68.01,4.93 69.56,5.30 70.98,5.68 72.39,6.06 73.76,6.53 75.13,6.99 76.38,7.50 77.64,8.00 78.75,8.49 79.85,8.99 80.85,9.55 81.85,10.11 82.74,10.71 83.63,11.31 85.21,12.74 86.79,14.17 87.46,15.07 88.12,15.98 88.81,17.48 89.50,18.99 89.89,20.11 90.29,21.22 90.50,22.32 90.71,23.43 90.86,25.30 91.01,27.18 91.07,28.80 91.13,30.43 91.16,31.78 91.19,33.13 90.73,34.91 90.27,36.68 89.41,38.21 88.56,39.73 87.81,40.53 87.07,41.33 85.39,42.59 83.70,43.86 82.65,44.38 81.60,44.90 80.49,45.34 79.39,45.78 78.40,46.23 77.41,46.69 76.26,47.25 75.11,47.82 73.76,48.48 72.40,49.14 70.97,49.83 69.54,50.52 67.97,51.22 66.39,51.92 64.70,52.63 63.01,53.33 61.10,54.02 59.18,54.71 57.14,55.37 55.10,56.03 52.94,56.66 50.78,57.30 48.74,57.86 46.71,58.41 44.96,58.94 43.21,59.47 41.64,59.97 40.07,60.48 38.74,60.93 37.41,61.37 36.34,61.73 35.27,62.08 33.37,62.60 31.47,63.13 29.66,63.49 27.86,63.86 25.91,64.22 23.97,64.57 21.12,64.54 18.27,64.51 16.76,64.57 15.24,64.63 13.95,64.77 12.65,64.91 11.49,65.04 10.32,65.17 9.15,65.28 7.98,65.38 6.86,65.46 5.75,65.53 4.67,65.58 3.58,65.64 2.44,65.53 1.30,65.41 -1.75,63.30 -4.81,61.19 -4.76,60.65 -4.71,60.10 -4.48,59.60 -4.26,59.10 -3.88,58.70 -3.51,58.30 -3.03,58.04 -2.55,57.78 -2.01,57.68 -1.47,57.59 -0.93,57.67 -0.38,57.75 0.09,58.01 0.58,58.26 0.96,58.65 1.34,59.05 1.58,59.54 1.81,60.04 1.88,60.58 1.94,61.13 1.83,61.66 1.72,62.20 1.44,62.67 1.16,63.14 0.75,63.50 0.33,63.86 -0.16,64.07 -0.67,64.28 -1.22,64.31 -1.77,64.35 -2.30,64.21 -2.83,64.07 -3.28,63.76 -3.74,63.46 -4.08,63.03 -4.41,62.59 -4.59,62.07 -4.77,61.56 -4.78,61.01 -4.78,60.46 -4.61,59.94 -4.44,59.42 -4.12,58.98 -3.79,58.54 -3.34,58.23 -2.89,57.91 -2.36,57.76 -1.83,57.61 -1.28,57.63 -0.74,57.66 -0.23,57.86 0.28,58.05 0.70,58.41 1.12,58.76 1.41,59.22 1.69,59.69 1.82,60.22 1.94,60.76 1.94,60.76 1.94,60.76 1.59,59.73 1.24,58.71 2.41,58.90 3.58,59.09 4.67,59.14 5.75,59.20 6.86,59.27 7.98,59.34 9.15,59.45 10.32,59.56 11.43,59.67 12.54,59.79 13.80,59.85 15.06,59.92 16.55,59.86 18.04,59.81 20.64,59.50 23.24,59.20 25.15,58.98 27.06,58.77 28.86,58.60 30.66,58.44 32.44,58.21 34.22,57.98 35.28,57.79 36.34,57.60 37.69,57.28 39.03,56.97 40.63,56.54 42.23,56.11 43.97,55.62 45.72,55.13 47.66,54.48 49.60,53.84 51.63,53.05 53.66,52.26 55.55,51.41 57.43,50.56 59.16,49.72 60.89,48.87 62.47,48.03 64.05,47.18 65.48,46.39 66.92,45.60 68.28,44.80 69.64,44.01 70.94,43.24 72.24,42.47 73.47,41.76 74.70,41.05 76.74,40.10 78.78,39.15 80.10,38.43 81.41,37.70 82.66,36.49 83.92,35.28 84.49,34.10 85.06,32.93 85.12,31.69 85.18,30.46 85.22,28.90 85.25,27.34 85.24,25.78 85.23,24.23 84.95,22.71 84.68,21.20 83.77,19.42 82.86,17.64 81.77,16.43 80.68,15.21 79.25,14.07 77.82,12.94 76.87,12.37 75.91,11.81 74.80,11.24 73.68,10.66 72.47,10.11 71.25,9.56 69.94,9.05 68.63,8.54 67.14,8.04 65.66,7.53 64.00,7.02 62.35,6.51 60.50,6.00 58.66,5.50 56.60,5.02 54.54,4.55 52.22,4.06 49.90,3.58 47.40,3.12 44.91,2.66 42.37,2.28 39.84,1.90 37.25,1.67 34.66,1.45 32.04,1.40 29.43,1.34 26.82,1.35 24.21,1.36 21.68,1.37 19.14,1.38 16.62,1.39 14.09,1.40 11.65,1.42 9.20,1.44 6.94,1.46 4.67,1.49 2.33,1.52 0,1.56 -0.18,1.53 -0.37,1.51 -0.54,1.45 -0.72,1.38 -0.88,1.27 -1.03,1.16 -1.16,1.02 -1.28,0.88 -1.37,0.72 -1.46,0.55 -1.50,0.37 -1.55,0.18 -1.55,-0.00 -1.55,-0.18 -1.50,-0.37 -1.46,-0.55 -1.37,-0.72 -1.28,-0.88 -1.16,-1.02 -1.03,-1.16 -0.88,-1.27 -0.72,-1.38 -0.54,-1.45 -0.37,-1.51 -0.18,-1.53 0.00,-1.56 0.00,-1.56 L 0,-1.56 Z"></path></g><g transform="translate(97.66130371904603 65.94104819449888) rotate(0 -14.300486723556844 4.151488365936785)" stroke="none"><path fill="#1e1e1e" d="M -13.37,2.19 Q -13.37,2.19 -13.78,2.47 -14.19,2.75 -13.85,3.86 -13.50,4.97 -14.60,5.24 -15.70,5.50 -15.53,4.40 -15.35,3.30 -15.34,3.40 -15.32,3.50 -15.86,3.29 -16.40,3.08 -16.85,2.71 -17.29,2.34 -17.60,1.85 -17.90,1.35 -18.03,0.79 -18.16,0.23 -18.10,-0.34 -18.05,-0.92 -17.81,-1.44 -17.57,-1.97 -17.18,-2.40 -16.79,-2.82 -16.28,-3.10 -15.77,-3.37 -15.20,-3.47 -14.63,-3.57 -14.06,-3.48 -13.48,-3.40 -12.97,-3.13 -12.45,-2.87 -12.05,-2.45 -11.65,-2.03 -11.40,-1.51 -11.15,-0.99 -11.08,-0.41 -11.02,0.15 -11.13,0.72 -11.25,1.28 -11.55,1.78 -11.84,2.28 -12.28,2.66 -12.71,3.04 -13.25,3.26 -13.79,3.48 -14.36,3.52 -14.94,3.56 -15.50,3.41 -16.06,3.26 -16.54,2.94 -17.02,2.62 -17.38,2.16 -17.73,1.70 -17.92,1.16 -18.11,0.61 -18.12,0.03 -18.13,-0.54 -17.95,-1.09 -17.77,-1.64 -17.42,-2.10 -17.08,-2.57 -16.60,-2.90 -16.13,-3.23 -15.57,-3.39 -15.01,-3.55 -14.44,-3.52 -13.86,-3.50 -13.86,-3.50 -13.86,-3.50 -11.54,-1.69 -9.22,0.10 -8.76,1.69 -8.31,3.27 -8.48,4.35 -8.65,5.44 -9.00,6.55 -9.35,7.67 -9.89,8.67 -10.42,9.67 -11.31,10.42 -12.19,11.16 -13.54,11.36 -14.88,11.56 -15.94,11.21 -17.01,10.85 -17.74,10.05 -18.47,9.26 -18.91,8.13 -19.35,7.01 -19.53,5.95 -19.70,4.88 -19.60,3.62 -19.50,2.35 -19.00,1.10 -18.50,-0.15 -17.62,-0.96 -16.74,-1.78 -16.27,-1.98 -15.81,-2.19 -15.53,-2.31 -15.25,-2.42 -14.95,-2.46 -14.65,-2.51 -14.35,-2.48 -14.04,-2.45 -13.76,-2.35 -13.47,-2.25 -13.22,-2.08 -12.97,-1.91 -12.76,-1.69 -12.56,-1.47 -12.41,-1.20 -12.26,-0.94 -12.18,-0.65 -12.10,-0.35 -12.10,-0.05 -12.09,0.24 -12.16,0.54 -12.22,0.83 -12.36,1.10 -12.49,1.38 -12.69,1.61 -12.88,1.84 -13.13,2.02 -13.37,2.19 -13.37,2.19 L -13.37,2.19 Z"></path></g><g transform="translate(138.90010825134925 76.18894056778407) rotate(0 -42.42965330426898 6.2777097027341995)" stroke="none"><path fill="#1e1e1e" d="M -40.92,2.45 Q -40.92,2.45 -41.69,2.50 -42.45,2.54 -42.89,3.70 -43.33,4.86 -43.33,5.96 -43.34,7.05 -43.17,8.13 -43.00,9.22 -42.72,8.18 -42.44,7.14 -42.17,6.10 -41.90,5.06 -42.08,3.89 -42.27,2.72 -41.54,3.17 -40.81,3.62 -41.41,3.54 -42.01,3.46 -42.55,3.19 -43.10,2.92 -43.53,2.50 -43.96,2.07 -44.23,1.53 -44.50,0.98 -44.59,0.38 -44.67,-0.21 -44.56,-0.81 -44.45,-1.40 -44.15,-1.93 -43.85,-2.46 -43.40,-2.87 -42.95,-3.27 -42.39,-3.52 -41.84,-3.76 -41.23,-3.81 -40.63,-3.86 -40.04,-3.72 -39.45,-3.57 -38.94,-3.25 -38.42,-2.92 -38.04,-2.45 -37.66,-1.98 -37.45,-1.41 -37.24,-0.84 -37.22,-0.23 -37.20,0.37 -37.38,0.95 -37.55,1.53 -37.91,2.02 -38.26,2.52 -38.75,2.87 -39.24,3.23 -39.82,3.41 -40.40,3.59 -41.01,3.57 -41.62,3.56 -42.19,3.35 -42.76,3.14 -43.23,2.76 -43.71,2.38 -44.03,1.87 -44.36,1.36 -44.51,0.77 -44.66,0.19 -44.61,-0.41 -44.56,-1.01 -44.33,-1.57 -44.09,-2.13 -43.68,-2.58 -43.28,-3.04 -42.75,-3.34 -42.22,-3.64 -41.63,-3.75 -41.03,-3.87 -41.03,-3.87 -41.03,-3.87 -37.92,-1.06 -34.80,1.74 -34.65,2.99 -34.50,4.24 -34.60,5.47 -34.70,6.69 -35.04,7.90 -35.39,9.12 -35.96,10.42 -36.53,11.72 -37.41,12.88 -38.29,14.03 -39.43,14.84 -40.57,15.65 -42.14,15.95 -43.71,16.24 -44.89,15.94 -46.08,15.64 -47.04,14.92 -47.99,14.19 -48.63,13.12 -49.27,12.04 -49.59,10.82 -49.92,9.60 -49.93,8.53 -49.94,7.45 -49.86,6.31 -49.77,5.17 -49.55,3.94 -49.33,2.72 -48.84,1.53 -48.34,0.35 -47.67,-0.51 -46.99,-1.37 -45.88,-1.99 -44.78,-2.62 -43.61,-2.71 -42.45,-2.79 -41.69,-2.75 -40.92,-2.70 -40.61,-2.67 -40.30,-2.63 -40.01,-2.52 -39.72,-2.41 -39.46,-2.23 -39.21,-2.05 -39.00,-1.82 -38.79,-1.59 -38.65,-1.31 -38.50,-1.04 -38.43,-0.73 -38.36,-0.43 -38.36,-0.12 -38.36,0.18 -38.43,0.48 -38.50,0.79 -38.65,1.06 -38.79,1.34 -39.00,1.57 -39.21,1.80 -39.46,1.98 -39.72,2.16 -40.01,2.27 -40.30,2.38 -40.61,2.42 -40.92,2.45 -40.92,2.45 L -40.92,2.45 Z"></path></g><g transform="translate(166.81706475678004 91.95429489837875) rotate(0 -57.35234820971806 4.938519907270745)" stroke="none"><path fill="#1e1e1e" d="M -54.30,-0.98 Q -54.30,-0.98 -55.90,-0.93 -57.51,-0.88 -58.47,-0.29 -59.44,0.29 -60.33,1.57 -61.23,2.85 -61.45,4.12 -61.67,5.38 -61.61,6.54 -61.55,7.69 -60.62,8.98 -59.69,10.27 -58.50,10.84 -57.32,11.40 -56.05,10.40 -54.77,9.41 -54.29,8.33 -53.81,7.26 -53.53,6.20 -53.26,5.14 -53.26,3.69 -53.27,2.24 -53.34,0.87 -53.42,-0.49 -53.71,-1.69 -54.01,-2.90 -54.28,-1.48 -54.56,-0.06 -54.97,-0.12 -55.39,-0.18 -55.77,-0.34 -56.16,-0.50 -56.49,-0.75 -56.83,-0.99 -57.10,-1.31 -57.36,-1.63 -57.55,-2.01 -57.73,-2.38 -57.82,-2.79 -57.91,-3.20 -57.89,-3.62 -57.88,-4.03 -57.77,-4.44 -57.66,-4.84 -57.45,-5.20 -57.25,-5.57 -56.96,-5.87 -56.68,-6.17 -56.33,-6.40 -55.98,-6.63 -55.58,-6.76 -55.19,-6.90 -54.77,-6.94 -54.36,-6.98 -52.70,-4.96 -51.05,-2.94 -51.23,-2.41 -51.41,-1.88 -51.75,-1.43 -52.09,-0.99 -52.56,-0.68 -53.02,-0.37 -53.56,-0.22 -54.10,-0.07 -54.66,-0.11 -55.22,-0.14 -55.74,-0.35 -56.26,-0.56 -56.69,-0.93 -57.11,-1.29 -57.40,-1.77 -57.68,-2.25 -57.80,-2.80 -57.92,-3.35 -57.85,-3.91 -57.79,-4.46 -57.55,-4.97 -57.31,-5.48 -56.92,-5.88 -56.54,-6.28 -56.04,-6.54 -55.54,-6.80 -54.99,-6.89 -54.44,-6.98 -53.89,-6.88 -53.33,-6.79 -52.84,-6.52 -52.35,-6.26 -51.96,-5.85 -51.58,-5.44 -51.35,-4.93 -51.12,-4.42 -51.06,-3.86 -51.00,-3.31 -51.13,-2.76 -51.25,-2.22 -51.54,-1.74 -51.83,-1.26 -52.26,-0.90 -52.69,-0.54 -53.21,-0.34 -53.74,-0.13 -54.29,-0.10 -54.85,-0.08 -55.39,-0.23 -55.93,-0.38 -56.39,-0.70 -56.85,-1.02 -57.19,-1.47 -57.53,-1.91 -57.70,-2.45 -57.88,-2.98 -56.22,-1.52 -54.56,-0.06 -54.97,-0.12 -55.38,-0.18 -55.77,-0.34 -56.16,-0.50 -56.49,-0.75 -56.83,-0.99 -57.10,-1.31 -57.36,-1.63 -57.55,-2.01 -57.73,-2.38 -57.82,-2.79 -57.91,-3.20 -57.89,-3.62 -57.88,-4.03 -57.77,-4.44 -57.66,-4.84 -57.45,-5.20 -57.25,-5.56 -56.96,-5.87 -56.68,-6.17 -56.33,-6.40 -55.98,-6.63 -55.58,-6.76 -55.19,-6.90 -54.77,-6.94 -54.36,-6.98 -53.48,-7.66 -52.60,-8.35 -51.27,-8.07 -49.93,-7.80 -48.92,-6.75 -47.91,-5.71 -47.54,-4.42 -47.18,-3.13 -47.05,-1.97 -46.92,-0.81 -46.92,0.26 -46.93,1.34 -47.02,2.87 -47.11,4.39 -47.32,5.55 -47.53,6.71 -47.98,7.78 -48.44,8.86 -49.12,10.03 -49.80,11.20 -50.85,12.27 -51.89,13.34 -52.97,14.01 -54.04,14.67 -56.11,15.20 -58.18,15.74 -60.86,14.75 -63.54,13.77 -65.58,10.71 -67.61,7.65 -67.52,6.51 -67.42,5.38 -67.11,4.02 -66.81,2.66 -66.17,1.37 -65.54,0.08 -64.79,-0.91 -64.05,-1.92 -62.89,-2.92 -61.72,-3.92 -59.86,-4.83 -58.00,-5.73 -56.31,-5.89 -54.62,-6.05 -54.32,-6.03 -54.01,-6.02 -53.72,-5.93 -53.42,-5.84 -53.16,-5.68 -52.90,-5.52 -52.68,-5.31 -52.46,-5.09 -52.30,-4.83 -52.15,-4.57 -52.05,-4.28 -51.96,-3.98 -51.94,-3.68 -51.92,-3.37 -51.98,-3.07 -52.03,-2.77 -52.15,-2.49 -52.28,-2.21 -52.47,-1.97 -52.65,-1.73 -52.90,-1.54 -53.14,-1.35 -53.41,-1.22 -53.69,-1.09 -53.99,-1.04 -54.30,-0.98 -54.30,-0.98 L -54.30,-0.98 Z"></path></g><g transform="translate(57.889427085773946 20.12839543768996) rotate(0 3.1872717132030175 4.586209976464147)" stroke="none"><path fill="#1e1e1e" d="M 0,-2.41 Q 0,-2.41 0.52,-2.46 1.04,-2.51 2.58,-2.37 4.12,-2.22 4.98,-1.26 5.83,-0.29 6.78,0.63 7.73,1.55 8.40,2.70 9.07,3.85 9.33,5.13 9.59,6.40 9.61,7.53 9.63,8.67 8.99,9.99 8.34,11.32 7.28,11.88 6.23,12.44 4.92,12.53 3.62,12.62 1.99,12.62 0.36,12.63 -0.19,12.54 -0.74,12.45 -1.23,12.19 -1.73,11.92 -2.11,11.52 -2.50,11.11 -2.73,10.60 -2.97,10.09 -3.03,9.54 -3.09,8.98 -2.97,8.43 -2.85,7.89 -2.56,7.41 -2.27,6.93 -1.84,6.56 -1.42,6.20 -0.90,5.99 -0.38,5.79 0.17,5.76 0.73,5.72 1.27,5.87 1.81,6.02 2.28,6.34 2.74,6.65 3.08,7.10 3.42,7.55 3.60,8.08 3.77,8.61 3.77,9.17 3.77,9.73 3.60,10.26 3.42,10.79 3.08,11.24 2.74,11.68 2.27,12.00 1.81,12.31 1.27,12.46 0.73,12.61 0.17,12.58 -0.38,12.55 -0.90,12.34 -1.42,12.13 -1.85,11.77 -2.27,11.41 -2.56,10.93 -2.85,10.45 -2.97,9.90 -3.09,9.35 -3.03,8.80 -2.97,8.24 -2.73,7.73 -2.50,7.22 -2.11,6.82 -1.73,6.41 -1.23,6.15 -0.74,5.89 -0.18,5.80 0.36,5.70 0.36,5.70 0.36,5.70 2.57,5.76 4.79,5.82 3.94,6.48 3.09,7.13 2.78,5.94 2.47,4.75 1.76,3.63 1.04,2.51 0.52,2.46 0,2.41 -0.28,2.38 -0.57,2.34 -0.85,2.24 -1.12,2.14 -1.36,1.97 -1.60,1.80 -1.79,1.59 -1.98,1.37 -2.12,1.11 -2.26,0.85 -2.33,0.57 -2.40,0.29 -2.40,-0.00 -2.40,-0.29 -2.33,-0.57 -2.26,-0.85 -2.12,-1.11 -1.98,-1.37 -1.79,-1.59 -1.60,-1.81 -1.36,-1.97 -1.12,-2.14 -0.85,-2.24 -0.57,-2.34 -0.28,-2.38 0.00,-2.41 0.00,-2.41 L 0,-2.41 Z"></path></g><g transform="translate(62.57865166188901 40.79312412768792) rotate(0 2.653656087010802 5.226960786293603)" stroke="none"><path fill="#1e1e1e" d="M 0.43,-2.55 Q 0.43,-2.55 1.43,-2.41 2.43,-2.28 3.77,-1.90 5.12,-1.53 6.37,-0.58 7.62,0.37 8.46,1.35 9.30,2.33 9.92,3.34 10.53,4.34 10.77,5.55 11.01,6.75 11.07,7.93 11.13,9.11 10.72,10.36 10.32,11.60 9.20,12.50 8.09,13.40 6.99,13.64 5.89,13.89 4.77,13.93 3.66,13.98 2.32,13.75 0.99,13.52 -0.73,13.36 -2.45,13.21 -3.03,13.11 -3.60,13.01 -4.12,12.74 -4.63,12.47 -5.03,12.04 -5.44,11.62 -5.68,11.09 -5.92,10.56 -5.98,9.98 -6.05,9.40 -5.92,8.83 -5.79,8.26 -5.49,7.76 -5.19,7.26 -4.74,6.88 -4.30,6.51 -3.76,6.29 -3.21,6.08 -2.63,6.05 -2.05,6.02 -1.49,6.17 -0.93,6.33 -0.44,6.66 0.03,6.99 0.38,7.45 0.73,7.92 0.92,8.47 1.10,9.02 1.10,9.61 1.10,10.19 0.91,10.74 0.73,11.30 0.37,11.76 0.02,12.22 -0.46,12.55 -0.94,12.88 -1.50,13.03 -2.06,13.19 -2.65,13.15 -3.23,13.12 -3.77,12.90 -4.31,12.69 -4.76,12.31 -5.20,11.93 -5.50,11.43 -5.80,10.93 -5.92,10.36 -6.05,9.79 -5.98,9.21 -5.92,8.63 -5.67,8.10 -5.43,7.57 -5.02,7.15 -4.62,6.72 -4.11,6.45 -3.59,6.18 -3.01,6.09 -2.44,5.99 -2.44,5.99 -2.44,5.99 0.28,6.31 3.00,6.63 3.71,7.58 4.41,8.54 4.45,7.46 4.50,6.37 3.86,5.38 3.21,4.40 2.37,3.68 1.53,2.95 0.54,2.75 -0.43,2.55 -0.73,2.46 -1.03,2.37 -1.30,2.21 -1.57,2.05 -1.79,1.84 -2.02,1.62 -2.18,1.35 -2.35,1.09 -2.44,0.79 -2.54,0.49 -2.56,0.18 -2.58,-0.12 -2.53,-0.43 -2.48,-0.74 -2.35,-1.02 -2.23,-1.31 -2.04,-1.56 -1.85,-1.81 -1.61,-2.00 -1.36,-2.20 -1.08,-2.33 -0.79,-2.46 -0.49,-2.52 -0.18,-2.58 0.12,-2.56 0.43,-2.55 0.43,-2.55 L 0.43,-2.55 Z"></path></g><g transform="translate(25.27088425226964 23.15290408344441) rotate(0 0.9085887689221863 9.907944194436709)" stroke="none"><path fill="#1e1e1e" d="M 1.48,2.13 Q 1.48,2.13 0.71,2.71 -0.06,3.29 -0.71,4.19 -1.37,5.09 -1.87,6.37 -2.38,7.65 -2.54,8.78 -2.70,9.90 -2.65,11.06 -2.59,12.22 -1.56,12.80 -0.53,13.38 0.52,13.95 1.59,14.52 2.63,14.80 3.67,15.08 6.11,15.66 8.55,16.23 9.10,16.44 9.66,16.65 10.11,17.02 10.57,17.40 10.88,17.90 11.20,18.40 11.33,18.97 11.47,19.55 11.42,20.14 11.36,20.73 11.12,21.27 10.89,21.81 10.49,22.24 10.09,22.68 9.57,22.96 9.05,23.25 8.47,23.36 7.89,23.46 7.31,23.38 6.72,23.29 6.20,23.02 5.67,22.76 5.26,22.33 4.84,21.91 4.59,21.38 4.33,20.85 4.25,20.26 4.18,19.68 4.30,19.10 4.41,18.52 4.71,18.01 5.00,17.50 5.45,17.11 5.89,16.72 6.44,16.49 6.98,16.26 7.57,16.22 8.16,16.17 8.73,16.32 9.30,16.47 9.80,16.79 10.29,17.12 10.66,17.58 11.02,18.04 11.22,18.60 11.42,19.16 11.43,19.75 11.44,20.34 11.26,20.90 11.08,21.46 10.73,21.94 10.38,22.42 9.90,22.76 9.42,23.10 8.85,23.27 8.29,23.43 7.70,23.41 7.11,23.39 7.11,23.39 7.11,23.39 4.65,22.80 2.19,22.21 1.06,21.92 -0.06,21.62 -1.13,21.13 -2.21,20.65 -3.19,20.07 -4.18,19.49 -5.14,18.84 -6.09,18.20 -7.06,17.32 -8.02,16.44 -8.61,15.31 -9.19,14.17 -9.30,13.00 -9.41,11.83 -9.36,10.67 -9.30,9.51 -9.12,8.30 -8.94,7.09 -8.44,5.97 -7.93,4.86 -7.32,3.87 -6.71,2.88 -6.07,1.91 -5.43,0.95 -4.27,-0.06 -3.11,-1.08 -2.30,-1.61 -1.48,-2.13 -1.20,-2.28 -0.93,-2.42 -0.62,-2.50 -0.32,-2.58 -0.00,-2.58 0.30,-2.58 0.60,-2.50 0.91,-2.43 1.19,-2.29 1.46,-2.14 1.70,-1.93 1.94,-1.73 2.11,-1.47 2.29,-1.21 2.41,-0.92 2.52,-0.63 2.56,-0.32 2.60,-0.00 2.56,0.30 2.52,0.61 2.41,0.90 2.30,1.20 2.13,1.45 1.95,1.71 1.71,1.92 1.48,2.13 1.48,2.13 L 1.48,2.13 Z"></path></g><g transform="translate(167.0354557080401 109.4132092472363) rotate(0 -21.64336738668277 4.89319348342417)" stroke="none"><path fill="#1e1e1e" d="M -35.44,-13.86 Q -35.44,-13.86 -35.60,-14.92 -35.77,-15.98 -36.60,-17.24 -37.44,-18.50 -38.61,-19.03 -39.79,-19.55 -40.42,-17.83 -41.05,-16.12 -41.21,-14.20 -41.37,-12.28 -41.41,-11.18 -41.45,-10.08 -41.47,-8.99 -41.50,-7.90 -41.51,-5.91 -41.52,-3.93 -41.29,-2.81 -41.05,-1.70 -41.12,-1.78 -41.18,-1.87 -40.86,-1.63 -40.54,-1.39 -40.29,-1.08 -40.03,-0.77 -39.86,-0.41 -39.68,-0.05 -39.60,0.33 -39.52,0.72 -39.53,1.13 -39.55,1.53 -39.66,1.91 -39.77,2.30 -39.97,2.65 -40.17,3.00 -40.44,3.29 -40.72,3.58 -41.06,3.79 -41.40,4.01 -41.78,4.14 -42.16,4.27 -42.56,4.30 -42.96,4.33 -43.35,4.27 -43.75,4.21 -44.12,4.05 -44.49,3.90 -43.18,3.91 -41.87,3.92 -43.32,3.89 -44.77,3.86 -45.85,5.06 -46.94,6.26 -47.66,7.32 -48.38,8.37 -48.70,9.54 -49.02,10.71 -49.03,12.08 -49.04,13.44 -48.30,15.11 -47.56,16.77 -46.79,17.92 -46.03,19.08 -45.18,19.74 -44.33,20.41 -43.12,20.43 -41.91,20.44 -41.89,20.02 -41.87,19.60 -41.72,19.19 -41.57,18.77 -41.32,18.41 -41.08,18.04 -40.76,17.75 -40.43,17.45 -40.05,17.24 -39.66,17.03 -39.24,16.92 -38.81,16.81 -38.38,16.80 -37.94,16.79 -37.51,16.89 -37.08,16.99 -36.69,17.19 -36.30,17.38 -35.97,17.67 -35.63,17.96 -35.38,18.31 -35.12,18.67 -34.96,19.08 -34.80,19.48 -34.74,19.92 -34.68,20.35 -34.72,20.79 -34.77,21.23 -34.91,22.50 -35.05,23.77 -35.09,24.91 -35.12,26.05 -35.04,27.16 -34.97,28.26 -34.44,29.22 -33.92,30.19 -32.78,30.81 -31.64,31.44 -30.40,31.51 -29.16,31.58 -28.05,31.13 -26.93,30.68 -26.12,29.72 -25.30,28.76 -24.80,27.59 -24.29,26.42 -23.93,24.76 -23.58,23.09 -22.34,21.99 -21.11,20.89 -19.60,21.16 -18.09,21.43 -17.21,22.57 -16.33,23.71 -15.81,24.85 -15.28,25.99 -14.40,26.77 -13.51,27.55 -12.53,27.95 -11.54,28.36 -10.38,28.56 -9.21,28.76 -7.98,28.82 -6.75,28.88 -5.73,26.89 -4.70,24.90 -4.06,23.50 -3.41,22.11 -3.09,20.94 -2.78,19.78 -2.84,18.72 -2.90,17.65 -3.52,16.34 -4.14,15.03 -4.73,12.94 -5.32,10.84 -4.82,9.71 -4.32,8.57 -3.00,8.04 -1.67,7.51 -0.09,7.49 1.48,7.48 2.73,7.17 3.97,6.86 4.56,5.90 5.14,4.95 5.39,3.70 5.64,2.46 5.67,0.96 5.70,-0.52 5.50,-1.78 5.29,-3.04 4.63,-3.89 3.98,-4.73 2.82,-5.02 1.67,-5.30 0.51,-5.37 -0.63,-5.43 0.36,-5.89 1.37,-6.34 1.89,-7.25 2.40,-8.16 2.33,-7.71 2.26,-7.27 2.09,-6.85 1.92,-6.44 1.65,-6.07 1.38,-5.71 1.03,-5.43 0.69,-5.14 0.28,-4.94 -0.12,-4.75 -0.56,-4.66 -1.00,-4.56 -1.45,-4.58 -1.90,-4.59 -2.33,-4.72 -2.76,-4.84 -3.15,-5.06 -3.55,-5.29 -3.87,-5.60 -4.20,-5.91 -4.44,-6.28 -4.68,-6.66 -4.83,-7.09 -4.97,-7.52 -5.01,-7.97 -5.05,-8.41 -4.95,-9.47 -4.86,-10.53 -4.80,-11.60 -4.75,-12.66 -4.77,-13.87 -4.78,-15.09 -5.21,-16.13 -5.64,-17.17 -6.74,-17.49 -7.85,-17.81 -7.94,-17.18 -8.03,-16.56 -8.09,-16.09 -8.14,-15.63 -8.31,-15.19 -8.48,-14.76 -8.74,-14.37 -9.00,-13.99 -9.35,-13.68 -9.70,-13.37 -10.12,-13.16 -10.53,-12.94 -10.98,-12.83 -11.43,-12.72 -11.90,-12.72 -12.37,-12.72 -12.82,-12.83 -13.27,-12.94 -13.68,-13.16 -14.10,-13.37 -14.45,-13.68 -14.79,-13.99 -15.06,-14.37 -15.32,-14.76 -15.49,-15.19 -15.65,-15.63 -15.71,-16.09 -15.77,-16.56 -16.08,-17.75 -16.39,-18.93 -16.95,-19.86 -17.52,-20.79 -18.52,-21.21 -19.52,-21.64 -20.80,-21.66 -22.09,-21.68 -23.17,-21.01 -24.26,-20.34 -25.03,-19.49 -25.81,-18.64 -26.15,-17.57 -26.49,-16.50 -29.26,-13.53 -32.04,-10.56 -32.64,-10.53 -33.24,-10.51 -33.82,-10.68 -34.40,-10.85 -34.90,-11.20 -35.39,-11.54 -35.75,-12.03 -36.11,-12.52 -36.29,-13.09 -36.48,-13.67 -36.47,-14.27 -36.46,-14.87 -36.26,-15.44 -36.05,-16.01 -35.68,-16.49 -35.31,-16.96 -34.80,-17.29 -34.30,-17.62 -33.71,-17.78 -33.13,-17.93 -32.53,-17.89 -31.92,-17.85 -31.37,-17.61 -30.81,-17.38 -30.36,-16.98 -29.90,-16.59 -29.60,-16.06 -29.30,-15.54 -29.17,-14.95 -29.05,-14.36 -29.13,-13.76 -29.20,-13.16 -29.47,-12.62 -29.73,-12.07 -30.15,-11.64 -30.57,-11.21 -31.11,-10.93 -31.65,-10.66 -32.24,-10.57 -32.84,-10.48 -33.44,-10.59 -34.03,-10.70 -34.56,-10.99 -35.09,-11.28 -35.50,-11.72 -35.90,-12.17 -36.15,-12.72 -36.39,-13.27 -36.45,-13.87 -36.51,-14.47 -36.37,-15.06 -36.23,-15.65 -35.91,-16.16 -35.59,-16.67 -35.12,-17.06 -34.66,-17.44 -34.09,-17.66 -33.53,-17.87 -33.53,-17.87 -33.53,-17.87 -33.87,-16.67 -34.21,-15.48 -34.13,-16.67 -34.05,-17.86 -33.76,-18.99 -33.46,-20.12 -32.95,-21.32 -32.44,-22.52 -31.61,-23.63 -30.79,-24.75 -29.90,-25.57 -29.00,-26.38 -27.93,-27.08 -26.85,-27.77 -25.77,-28.37 -24.69,-28.96 -23.11,-29.15 -21.54,-29.35 -20.45,-29.33 -19.35,-29.31 -17.85,-29.06 -16.34,-28.82 -15.26,-28.36 -14.18,-27.90 -13.05,-26.99 -11.92,-26.07 -11.09,-24.95 -10.26,-23.83 -9.68,-22.67 -9.10,-21.52 -8.70,-20.22 -8.30,-18.92 -8.16,-17.74 -8.03,-16.56 -8.09,-16.09 -8.14,-15.63 -8.31,-15.19 -8.47,-14.76 -8.74,-14.37 -9.00,-13.99 -9.35,-13.68 -9.70,-13.37 -10.12,-13.16 -10.53,-12.94 -10.98,-12.83 -11.43,-12.72 -11.90,-12.72 -12.37,-12.72 -12.82,-12.83 -13.27,-12.94 -13.68,-13.16 -14.10,-13.37 -14.45,-13.68 -14.79,-13.99 -15.06,-14.37 -15.32,-14.76 -15.49,-15.19 -15.65,-15.63 -15.71,-16.09 -15.77,-16.56 -15.76,-16.93 -15.76,-17.30 -15.75,-18.49 -15.74,-19.69 -15.52,-20.81 -15.30,-21.94 -14.52,-22.97 -13.73,-24.00 -12.74,-24.56 -11.74,-25.13 -10.51,-25.29 -9.29,-25.46 -8.12,-25.44 -6.96,-25.42 -5.84,-25.27 -4.71,-25.11 -3.58,-24.70 -2.46,-24.29 -1.47,-23.53 -0.48,-22.77 0.23,-21.84 0.94,-20.90 1.51,-19.67 2.07,-18.44 2.40,-17.02 2.73,-15.61 2.75,-14.44 2.78,-13.27 2.74,-12.10 2.71,-10.93 2.56,-9.54 2.40,-8.16 2.33,-7.71 2.26,-7.27 2.09,-6.85 1.92,-6.44 1.65,-6.07 1.38,-5.71 1.03,-5.43 0.69,-5.14 0.28,-4.94 -0.12,-4.75 -0.56,-4.66 -1.00,-4.56 -1.45,-4.58 -1.90,-4.59 -2.33,-4.72 -2.76,-4.84 -3.15,-5.06 -3.55,-5.29 -3.87,-5.60 -4.20,-5.91 -4.44,-6.28 -4.68,-6.66 -4.83,-7.09 -4.97,-7.52 -5.01,-7.96 -5.05,-8.41 -4.95,-9.13 -4.84,-9.84 -4.27,-10.79 -3.70,-11.73 -1.83,-12.28 0.02,-12.83 1.45,-12.71 2.88,-12.59 4.44,-12.20 6.01,-11.80 7.19,-11.22 8.37,-10.64 9.21,-9.90 10.05,-9.16 10.89,-7.82 11.73,-6.49 12.16,-5.34 12.58,-4.19 12.78,-2.86 12.98,-1.52 12.98,-0.42 12.97,0.66 12.93,1.93 12.89,3.19 12.65,4.68 12.41,6.17 11.98,7.44 11.55,8.70 10.92,9.76 10.30,10.81 9.35,11.73 8.40,12.64 7.25,13.29 6.11,13.93 4.41,14.34 2.72,14.75 1.39,14.27 0.07,13.78 0.58,11.78 1.10,9.78 1.69,10.85 2.28,11.92 2.73,12.89 3.18,13.86 3.63,15.20 4.08,16.54 4.14,18.21 4.21,19.89 4.02,21.06 3.83,22.24 3.41,23.47 2.99,24.70 2.23,26.45 1.48,28.20 0.65,29.93 -0.17,31.67 -1.13,33.05 -2.08,34.43 -3.83,35.24 -5.57,36.05 -6.94,36.07 -8.30,36.09 -10.14,35.96 -11.98,35.82 -13.72,35.35 -15.46,34.89 -16.67,34.27 -17.88,33.64 -18.80,32.92 -19.72,32.20 -20.45,31.39 -21.18,30.59 -21.60,29.12 -22.03,27.65 -20.67,27.87 -19.31,28.10 -18.01,27.08 -16.71,26.06 -17.03,27.45 -17.34,28.83 -17.84,30.12 -18.35,31.41 -19.10,32.70 -19.86,33.99 -20.79,34.99 -21.72,36.00 -22.76,36.76 -23.79,37.53 -25.11,38.15 -26.43,38.78 -27.51,38.90 -28.60,39.01 -29.71,38.99 -30.83,38.96 -31.95,38.82 -33.08,38.68 -34.22,38.29 -35.37,37.91 -36.40,37.35 -37.42,36.80 -38.25,36.09 -39.08,35.39 -39.81,34.47 -40.53,33.54 -41.14,32.31 -41.75,31.08 -42.10,29.54 -42.45,28.00 -42.46,26.57 -42.47,25.15 -42.36,23.81 -42.26,22.47 -42.06,21.03 -41.87,19.60 -41.72,19.19 -41.57,18.77 -41.32,18.41 -41.08,18.04 -40.76,17.75 -40.43,17.45 -40.05,17.24 -39.66,17.03 -39.24,16.92 -38.81,16.81 -38.38,16.80 -37.94,16.79 -37.51,16.89 -37.08,16.99 -36.69,17.19 -36.30,17.38 -35.97,17.67 -35.63,17.95 -35.38,18.31 -35.12,18.67 -34.96,19.08 -34.80,19.48 -34.74,19.92 -34.68,20.35 -34.72,20.79 -34.77,21.23 -35.01,22.08 -35.25,22.94 -35.99,24.21 -36.72,25.48 -37.57,26.14 -38.42,26.80 -39.82,27.15 -41.21,27.49 -42.55,27.45 -43.88,27.40 -45.25,27.14 -46.62,26.88 -47.92,26.15 -49.22,25.41 -50.38,24.25 -51.54,23.09 -52.60,21.52 -53.66,19.94 -54.16,18.99 -54.67,18.04 -55.09,17.05 -55.50,16.07 -55.80,14.35 -56.10,12.64 -56.03,11.53 -55.95,10.42 -55.70,9.20 -55.45,7.97 -54.83,6.40 -54.21,4.84 -53.13,3.26 -52.05,1.69 -50.64,0.23 -49.22,-1.22 -48.30,-1.78 -47.37,-2.35 -45.61,-2.10 -43.85,-1.85 -42.52,-1.86 -41.18,-1.87 -40.86,-1.63 -40.54,-1.39 -40.29,-1.08 -40.03,-0.77 -39.86,-0.41 -39.68,-0.05 -39.60,0.33 -39.52,0.72 -39.53,1.13 -39.55,1.53 -39.66,1.91 -39.77,2.30 -39.97,2.65 -40.17,3.00 -40.44,3.29 -40.72,3.58 -41.06,3.79 -41.40,4.01 -41.78,4.14 -42.16,4.27 -42.56,4.30 -42.95,4.33 -43.35,4.27 -43.75,4.21 -44.12,4.05 -44.49,3.90 -44.84,3.66 -45.19,3.42 -45.96,2.40 -46.72,1.38 -47.11,0.27 -47.50,-0.83 -47.64,-2.38 -47.77,-3.94 -47.77,-5.95 -47.77,-7.95 -47.78,-9.08 -47.79,-10.20 -47.79,-11.39 -47.78,-12.57 -47.75,-13.74 -47.71,-14.90 -47.47,-17.01 -47.23,-19.11 -46.93,-20.41 -46.62,-21.71 -45.55,-23.15 -44.48,-24.59 -42.80,-25.22 -41.11,-25.85 -39.72,-25.72 -38.33,-25.60 -36.73,-24.94 -35.13,-24.28 -33.96,-23.16 -32.80,-22.03 -31.88,-20.43 -30.96,-18.83 -30.67,-17.77 -30.37,-16.72 -30.25,-15.65 -30.13,-14.57 -30.13,-14.25 -30.12,-13.92 -30.19,-13.61 -30.27,-13.30 -30.41,-13.01 -30.56,-12.72 -30.77,-12.48 -30.98,-12.23 -31.25,-12.05 -31.51,-11.86 -31.81,-11.74 -32.11,-11.62 -32.43,-11.58 -32.75,-11.54 -33.07,-11.57 -33.39,-11.61 -33.69,-11.72 -34.00,-11.83 -34.27,-12.01 -34.53,-12.19 -34.75,-12.43 -34.97,-12.66 -35.12,-12.95 -35.27,-13.23 -35.36,-13.55 -35.44,-13.86 -35.44,-13.86 L -35.44,-13.86 Z"></path></g></svg>