<svg version="1.1" xmlns="http://www.w3.org/2000/svg" viewBox="0 0 92.63952698119431 112.7459633458376" width="92.63952698119431" height="112.7459633458376">
  <!-- svg-source:excalidraw -->
  
  <defs>
    <style class="style-fonts">
      @font-face {
        font-family: "Virgil";
        src: url("https://excalidraw.com/Virgil.woff2");
      }
      @font-face {
        font-family: "Cascadia";
        src: url("https://excalidraw.com/Cascadia.woff2");
      }
      @font-face {
        font-family: "Assistant";
        src: url("https://excalidraw.com/Assistant-Regular.woff2");
      }
    </style>
    
  </defs>
  <g transform="translate(10 102.7459633458376) rotate(0 36.319763490597154 -46.3729816729188)" stroke="none"><path fill="#1e1e1e" d="M -1.56,0 Q -1.56,0 -1.53,-2.10 -1.50,-4.20 -1.39,-7.19 -1.28,-10.18 -0.85,-13.94 -0.43,-17.70 0.35,-22.10 1.14,-26.50 2.12,-31.15 3.10,-35.79 4.05,-40.04 4.99,-44.29 6.00,-48.40 7.00,-52.50 8.13,-56.29 9.26,-60.09 10.30,-63.00 11.34,-65.91 12.51,-68.32 13.68,-70.74 15.19,-73.10 16.70,-75.45 18.32,-77.65 19.94,-79.85 21.66,-81.82 23.38,-83.79 25.07,-85.45 26.76,-87.12 28.16,-88.42 29.56,-89.72 30.74,-90.72 31.92,-91.71 32.93,-92.44 33.95,-93.16 34.96,-93.65 35.98,-94.14 37.87,-94.54 39.77,-94.95 41.61,-95.00 43.45,-95.05 44.64,-94.69 45.84,-94.33 47.07,-93.60 48.30,-92.86 49.47,-91.92 50.65,-90.97 51.85,-89.82 53.06,-88.67 54.27,-87.36 55.49,-86.05 57.07,-84.00 58.64,-81.94 59.81,-80.23 60.98,-78.52 61.98,-76.86 62.98,-75.20 64.04,-72.13 65.10,-69.06 65.78,-66.57 66.45,-64.08 67.07,-60.48 67.68,-56.88 67.93,-54.12 68.17,-51.36 68.26,-49.10 68.36,-46.84 68.45,-44.20 68.55,-41.56 68.64,-39.19 68.74,-36.82 68.90,-35.08 69.06,-33.34 69.25,-32.11 69.45,-30.88 69.67,-29.55 69.89,-28.22 70.18,-27.13 70.47,-26.04 71.03,-24.49 71.60,-22.94 72.01,-21.53 72.43,-20.13 72.93,-18.54 73.43,-16.94 73.86,-15.47 74.29,-14.00 74.69,-12.29 75.09,-10.57 75.33,-10.13 75.56,-9.69 75.64,-9.19 75.72,-8.70 75.64,-8.21 75.55,-7.72 75.32,-7.28 75.09,-6.84 74.72,-6.50 74.36,-6.15 73.91,-5.94 73.45,-5.74 72.96,-5.68 72.46,-5.63 71.97,-5.74 71.49,-5.85 71.06,-6.11 70.63,-6.36 70.31,-6.74 69.99,-7.13 69.81,-7.59 69.62,-8.05 69.60,-8.55 69.57,-9.05 69.70,-9.53 69.84,-10.01 70.12,-10.42 70.40,-10.83 70.80,-11.13 71.20,-11.44 71.67,-11.59 72.14,-11.75 72.64,-11.75 73.14,-11.75 73.61,-11.59 74.08,-11.43 74.48,-11.13 74.88,-10.82 75.16,-10.41 75.44,-10.00 75.57,-9.52 75.70,-9.03 75.67,-8.54 75.64,-8.04 75.46,-7.58 75.27,-7.11 74.95,-6.73 74.62,-6.35 74.20,-6.10 73.77,-5.84 73.28,-5.74 72.79,-5.63 72.30,-5.68 71.80,-5.74 71.35,-5.95 70.90,-6.16 70.54,-6.50 70.18,-6.85 70.18,-6.85 70.18,-6.85 69.46,-9.02 68.74,-11.19 68.43,-12.52 68.11,-13.86 67.72,-15.43 67.32,-17.01 66.96,-18.64 66.59,-20.27 66.36,-21.49 66.13,-22.72 65.93,-24.11 65.72,-25.50 65.74,-26.80 65.76,-28.10 65.88,-29.37 66.00,-30.64 66.01,-31.91 66.03,-33.18 66.01,-34.94 65.98,-36.70 65.86,-39.07 65.73,-41.44 65.60,-44.07 65.47,-46.69 65.34,-48.88 65.20,-51.06 64.90,-53.69 64.61,-56.32 63.95,-59.73 63.28,-63.14 62.52,-65.48 61.76,-67.83 60.71,-70.50 59.66,-73.16 58.70,-74.66 57.75,-76.15 56.57,-77.65 55.38,-79.14 53.70,-80.88 52.01,-82.62 50.81,-83.76 49.61,-84.89 48.48,-85.88 47.34,-86.86 45.67,-88.15 43.99,-89.45 42.81,-89.87 41.63,-90.28 40.15,-90.34 38.67,-90.40 37.23,-90.21 35.80,-90.01 34.82,-89.56 33.84,-89.11 32.64,-88.34 31.44,-87.58 30.02,-86.41 28.60,-85.24 26.98,-83.65 25.36,-82.05 23.71,-80.17 22.06,-78.28 20.49,-76.15 18.92,-74.02 17.49,-71.80 16.06,-69.58 14.95,-67.30 13.84,-65.01 12.83,-62.17 11.81,-59.33 10.71,-55.60 9.61,-51.87 8.62,-47.79 7.63,-43.71 6.71,-39.47 5.78,-35.23 4.83,-30.63 3.87,-26.02 3.12,-21.71 2.37,-17.40 2.00,-13.75 1.62,-10.10 1.56,-7.15 1.50,-4.20 1.53,-2.10 1.56,0 1.54,0.18 1.51,0.37 1.45,0.55 1.38,0.72 1.27,0.88 1.17,1.03 1.02,1.16 0.88,1.28 0.72,1.37 0.55,1.46 0.37,1.50 0.18,1.55 -0.00,1.55 -0.18,1.55 -0.37,1.50 -0.55,1.46 -0.72,1.37 -0.88,1.28 -1.02,1.16 -1.17,1.03 -1.27,0.88 -1.38,0.72 -1.45,0.55 -1.51,0.37 -1.54,0.18 -1.56,-0.00 -1.56,-0.00 L -1.56,0 Z"></path></g><g transform="translate(26.611395555267677 43.96717907335221) rotate(0 6.028746361958497 4.090153111199982)" stroke="none"><path fill="#1e1e1e" d="M 2.64,-0.23 Q 2.64,-0.23 2.75,1.19 2.86,2.63 3.36,3.61 3.87,4.59 5.00,4.88 6.13,5.18 7.89,4.36 9.66,3.55 10.02,3.22 10.38,2.88 10.83,2.68 11.27,2.48 11.76,2.43 12.25,2.39 12.73,2.50 13.21,2.61 13.63,2.87 14.05,3.12 14.36,3.50 14.67,3.88 14.85,4.34 15.03,4.80 15.05,5.29 15.07,5.78 14.93,6.25 14.79,6.73 14.51,7.13 14.23,7.53 13.84,7.83 13.44,8.12 12.98,8.27 12.51,8.42 12.02,8.41 11.52,8.41 11.06,8.25 10.60,8.08 10.21,7.78 9.82,7.48 9.55,7.07 9.28,6.66 9.15,6.18 9.03,5.71 9.06,5.22 9.09,4.73 9.28,4.27 9.47,3.82 9.79,3.45 10.11,3.08 10.54,2.83 10.96,2.58 11.44,2.48 11.92,2.38 12.41,2.44 12.90,2.50 13.34,2.71 13.79,2.92 14.14,3.27 14.49,3.61 14.72,4.04 14.94,4.48 15.02,4.97 15.09,5.45 15.01,5.94 14.92,6.42 14.68,6.85 14.45,7.28 14.45,7.28 14.45,7.28 11.98,8.98 9.51,10.67 7.31,10.81 5.11,10.94 3.82,10.64 2.54,10.33 0.80,8.83 -0.92,7.34 -1.39,6.35 -1.87,5.35 -2.11,4.23 -2.35,3.10 -2.49,1.67 -2.64,0.23 -2.63,-0.08 -2.62,-0.40 -2.53,-0.71 -2.45,-1.01 -2.29,-1.29 -2.13,-1.57 -1.91,-1.80 -1.69,-2.04 -1.42,-2.21 -1.15,-2.38 -0.85,-2.49 -0.55,-2.59 -0.23,-2.62 0.08,-2.65 0.40,-2.60 0.71,-2.55 1.01,-2.43 1.30,-2.30 1.56,-2.11 1.82,-1.92 2.02,-1.68 2.23,-1.43 2.37,-1.14 2.51,-0.86 2.57,-0.54 2.64,-0.23 2.64,-0.23 L 2.64,-0.23 Z"></path></g><g transform="translate(52.095736399941416 45.965482588507825) rotate(0 7.7165565022492615 5.821750778715284)" stroke="none"><path fill="#1e1e1e" d="M 2.67,0 Q 2.67,0 2.68,1.18 2.69,2.36 3.05,3.75 3.41,5.15 4.29,5.92 5.17,6.70 6.40,7.33 7.62,7.97 8.76,8.15 9.90,8.34 10.98,8.34 12.06,8.33 12.15,6.07 12.23,3.81 12.49,3.32 12.75,2.84 13.14,2.47 13.54,2.09 14.03,1.86 14.53,1.64 15.07,1.58 15.62,1.52 16.15,1.64 16.68,1.76 17.15,2.04 17.62,2.32 17.97,2.74 18.32,3.15 18.52,3.66 18.72,4.17 18.75,4.71 18.78,5.26 18.63,5.78 18.49,6.31 18.18,6.76 17.87,7.21 17.44,7.54 17.00,7.87 16.49,8.04 15.97,8.22 15.42,8.22 14.88,8.22 14.36,8.04 13.84,7.87 13.41,7.53 12.98,7.20 12.67,6.75 12.36,6.30 12.22,5.77 12.07,5.25 12.10,4.70 12.13,4.16 12.34,3.65 12.54,3.14 12.89,2.73 13.25,2.31 13.72,2.03 14.18,1.75 14.72,1.64 15.25,1.52 15.79,1.58 16.34,1.64 16.83,1.87 17.33,2.10 17.72,2.47 18.12,2.85 18.37,3.33 18.63,3.82 18.71,4.35 18.80,4.89 18.71,5.43 18.62,5.97 18.62,5.97 18.62,5.97 17.89,8.11 17.15,10.26 16.65,11.34 16.15,12.43 15.17,13.37 14.20,14.31 12.28,14.58 10.36,14.85 9.06,14.69 7.76,14.54 6.36,14.07 4.95,13.61 3.71,12.89 2.47,12.16 1.33,11.19 0.18,10.22 -0.87,8.55 -1.92,6.89 -2.22,5.79 -2.51,4.68 -2.60,3.52 -2.69,2.36 -2.68,1.18 -2.67,0 -2.63,-0.31 -2.59,-0.63 -2.48,-0.94 -2.36,-1.24 -2.18,-1.50 -2.00,-1.77 -1.75,-1.98 -1.51,-2.19 -1.23,-2.34 -0.94,-2.49 -0.63,-2.57 -0.32,-2.65 0.00,-2.65 0.32,-2.65 0.63,-2.57 0.94,-2.49 1.23,-2.34 1.51,-2.19 1.75,-1.98 2.00,-1.77 2.18,-1.50 2.36,-1.24 2.48,-0.94 2.59,-0.63 2.63,-0.31 2.67,0.00 2.67,0.00 L 2.67,0 Z"></path></g><g transform="translate(36.28789777800364 81.01100493882757) rotate(0 11.875431923240853 6.192918653380616)" stroke="none"><path fill="#1e1e1e" d="M 2.36,-1.19 Q 2.36,-1.19 2.94,-0.05 3.53,1.09 4.29,2.33 5.05,3.57 5.92,4.74 6.79,5.92 7.94,6.66 9.09,7.39 10.44,8.18 11.78,8.97 13.18,8.98 14.59,8.99 15.78,8.84 16.98,8.68 17.99,7.76 18.99,6.83 19.94,5.81 20.88,4.78 21.27,4.37 21.66,3.97 22.15,3.71 22.65,3.45 23.21,3.36 23.76,3.27 24.32,3.36 24.87,3.46 25.37,3.72 25.86,3.99 26.25,4.40 26.63,4.81 26.87,5.32 27.10,5.83 27.16,6.39 27.22,6.95 27.09,7.50 26.97,8.05 26.68,8.53 26.38,9.01 25.95,9.37 25.52,9.73 25.00,9.94 24.48,10.14 23.91,10.17 23.35,10.20 22.81,10.05 22.27,9.89 21.81,9.57 21.34,9.26 21.00,8.81 20.67,8.36 20.49,7.82 20.31,7.29 20.32,6.73 20.32,6.17 20.50,5.63 20.68,5.10 21.03,4.66 21.37,4.21 21.84,3.90 22.30,3.58 22.85,3.44 23.39,3.29 23.95,3.32 24.51,3.36 25.03,3.57 25.55,3.78 25.98,4.14 26.41,4.51 26.69,4.99 26.98,5.48 27.10,6.03 27.22,6.58 27.15,7.13 27.09,7.69 26.85,8.20 26.61,8.71 26.61,8.71 26.61,8.71 24.96,10.54 23.30,12.37 22.04,13.35 20.77,14.34 18.92,15.02 17.08,15.71 15.79,15.73 14.51,15.75 13.38,15.71 12.24,15.66 10.87,15.37 9.49,15.09 8.06,14.21 6.62,13.34 5.69,12.71 4.75,12.09 3.67,11.17 2.59,10.25 1.95,9.30 1.31,8.36 0.75,7.36 0.18,6.36 -0.51,4.92 -1.21,3.49 -1.79,2.34 -2.36,1.19 -2.47,0.89 -2.58,0.59 -2.61,0.27 -2.65,-0.04 -2.60,-0.35 -2.56,-0.67 -2.44,-0.97 -2.32,-1.26 -2.14,-1.52 -1.95,-1.78 -1.71,-1.99 -1.47,-2.20 -1.18,-2.35 -0.90,-2.49 -0.59,-2.56 -0.27,-2.63 0.04,-2.63 0.36,-2.62 0.66,-2.54 0.97,-2.46 1.25,-2.31 1.54,-2.15 1.77,-1.94 2.01,-1.72 2.19,-1.46 2.36,-1.19 2.36,-1.19 L 2.36,-1.19 Z"></path></g></svg>